<svg width="12" height="12" viewBox="0 0 12 12" fill="none" xmlns="http://www.w3.org/2000/svg">
<rect width="12" height="12" fill="white" fill-opacity="0.01"/>
<path d="M6.00002 5.293L3.35352 2.6465C3.25922 2.55542 3.13292 2.50503 3.00182 2.50617C2.87072 2.5073 2.74532 2.55989 2.65261 2.65259C2.55991 2.7453 2.50732 2.8707 2.50618 3.0018C2.50504 3.1329 2.55544 3.2592 2.64652 3.3535L5.29302 6L2.64652 8.6465C2.55544 8.7408 2.50504 8.8671 2.50618 8.9982C2.50732 9.1293 2.55991 9.25471 2.65261 9.34741C2.74532 9.44012 2.87072 9.4927 3.00182 9.49384C3.13292 9.49498 3.25922 9.44458 3.35352 9.3535L6.00002 6.707L8.64652 9.3535C8.74082 9.44458 8.86712 9.49498 8.99822 9.49384C9.12932 9.4927 9.25473 9.44012 9.34743 9.34741C9.44013 9.25471 9.49272 9.1293 9.49386 8.9982C9.495 8.8671 9.4446 8.7408 9.35352 8.6465L6.70702 6L9.35352 3.3535C9.40128 3.30738 9.43937 3.25221 9.46557 3.1912C9.49178 3.1302 9.50557 3.06459 9.50615 2.9982C9.50672 2.93181 9.49407 2.86597 9.46893 2.80453C9.44379 2.74308 9.40666 2.68725 9.35972 2.6403C9.31277 2.59336 9.25695 2.55623 9.1955 2.53109C9.13405 2.50595 9.06821 2.4933 9.00182 2.49388C8.93543 2.49445 8.86982 2.50825 8.80882 2.53445C8.74782 2.56066 8.69264 2.59875 8.64652 2.6465L6.00002 5.293Z" fill="#666E7D"/>
</svg>
