<svg width="12" height="12" viewBox="0 0 12 12" fill="none" xmlns="http://www.w3.org/2000/svg">
<rect width="12" height="12" fill="white" fill-opacity="0.01"/>
<path d="M5.99999 5.293L3.35349 2.6465C3.25919 2.55542 3.13289 2.50503 3.00179 2.50617C2.87069 2.5073 2.74528 2.55989 2.65258 2.65259C2.55988 2.7453 2.50729 2.8707 2.50615 3.0018C2.50501 3.1329 2.55541 3.2592 2.64649 3.3535L5.29299 6L2.64649 8.6465C2.55541 8.7408 2.50501 8.8671 2.50615 8.9982C2.50729 9.1293 2.55988 9.25471 2.65258 9.34741C2.74528 9.44012 2.87069 9.4927 3.00179 9.49384C3.13289 9.49498 3.25919 9.44458 3.35349 9.3535L5.99999 6.707L8.64649 9.3535C8.74079 9.44458 8.86709 9.49498 8.99819 9.49384C9.12929 9.4927 9.25469 9.44012 9.3474 9.34741C9.4401 9.25471 9.49269 9.1293 9.49383 8.9982C9.49497 8.8671 9.44457 8.7408 9.35349 8.6465L6.70699 6L9.35349 3.3535C9.40125 3.30738 9.43934 3.25221 9.46554 3.1912C9.49174 3.1302 9.50554 3.06459 9.50612 2.9982C9.50669 2.93181 9.49404 2.86597 9.4689 2.80453C9.44376 2.74308 9.40663 2.68725 9.35969 2.6403C9.31274 2.59336 9.25691 2.55623 9.19547 2.53109C9.13402 2.50595 9.06818 2.4933 9.00179 2.49388C8.9354 2.49445 8.86979 2.50825 8.80879 2.53445C8.74779 2.56066 8.69261 2.59875 8.64649 2.6465L5.99999 5.293Z" fill="#666E7D"/>
</svg>
