<svg width="64" height="48" viewBox="0 0 64 48" fill="none" xmlns="http://www.w3.org/2000/svg">
<path d="M24 17.7778C24 16.7959 24.7959 16 25.7778 16H28.6927C29.0753 16 29.4149 16.2448 29.5359 16.6078L30.8673 20.602C31.0072 21.0216 30.8172 21.4803 30.4216 21.6781L28.4151 22.6813C29.3949 24.8544 31.1456 26.6051 33.3187 27.5849L34.3219 25.5784C34.5197 25.1828 34.9784 24.9928 35.398 25.1327L39.3922 26.4641C39.7552 26.5851 40 26.9247 40 27.3073V30.2222C40 31.2041 39.2041 32 38.2222 32H37.3333C29.9695 32 24 26.0305 24 18.6667V17.7778Z" stroke="#666E7D" stroke-width="2" stroke-linecap="round" stroke-linejoin="round"/>
</svg>
