<svg width="44" height="44" viewBox="0 0 44 44" fill="none" xmlns="http://www.w3.org/2000/svg">
<path d="M20.3246 14.3173C20.751 12.5609 23.249 12.5609 23.6754 14.3173C23.9508 15.4519 25.2507 15.9904 26.2478 15.3828C27.7913 14.4424 29.5576 16.2087 28.6172 17.7522C28.0096 18.7493 28.5481 20.0492 29.6827 20.3246C31.4391 20.751 31.4391 23.249 29.6827 23.6754C28.5481 23.9508 28.0096 25.2507 28.6172 26.2478C29.5576 27.7913 27.7913 29.5576 26.2478 28.6172C25.2507 28.0096 23.9508 28.5481 23.6754 29.6827C23.249 31.4391 20.751 31.4391 20.3246 29.6827C20.0492 28.5481 18.7493 28.0096 17.7522 28.6172C16.2087 29.5576 14.4424 27.7913 15.3829 26.2478C15.9904 25.2507 15.4519 23.9508 14.3173 23.6754C12.5609 23.249 12.5609 20.751 14.3173 20.3246C15.4519 20.0492 15.9904 18.7493 15.3828 17.7522C14.4424 16.2087 16.2087 14.4424 17.7522 15.3828C18.7493 15.9904 20.0492 15.4519 20.3246 14.3173Z" stroke="#6774BD" stroke-width="2" stroke-linecap="round" stroke-linejoin="round"/>
<path d="M25 22C25 23.6569 23.6569 25 22 25C20.3431 25 19 23.6569 19 22C19 20.3431 20.3431 19 22 19C23.6569 19 25 20.3431 25 22Z" stroke="#6774BD" stroke-width="2" stroke-linecap="round" stroke-linejoin="round"/>
</svg>
