<svg width="44" height="44" viewBox="0 0 44 44" fill="none" xmlns="http://www.w3.org/2000/svg">
<path d="M25 27H30L28.5951 25.5951C28.2141 25.2141 28 24.6973 28 24.1585V21C28 18.3876 26.3304 16.1651 24 15.3414V15C24 13.8954 23.1046 13 22 13C20.8954 13 20 13.8954 20 15V15.3414C17.6696 16.1651 16 18.3876 16 21V24.1585C16 24.6973 15.7859 25.2141 15.4049 25.5951L14 27H19M25 27V28C25 29.6569 23.6569 31 22 31C20.3431 31 19 29.6569 19 28V27M25 27H19" stroke="#6774BD" stroke-width="2" stroke-linecap="round" stroke-linejoin="round"/>
<circle cx="27" cy="17" r="3.5" fill="#C72549" stroke="white"/>
</svg>
