<svg width="44" height="44" viewBox="0 0 44 44" fill="none" xmlns="http://www.w3.org/2000/svg">
<path d="M15.121 27.8037C17.1527 26.6554 19.4998 26 22 26C24.5002 26 26.8473 26.6554 28.879 27.8037M25 20C25 21.6569 23.6569 23 22 23C20.3431 23 19 21.6569 19 20C19 18.3431 20.3431 17 22 17C23.6569 17 25 18.3431 25 20ZM31 22C31 26.9706 26.9706 31 22 31C17.0294 31 13 26.9706 13 22C13 17.0294 17.0294 13 22 13C26.9706 13 31 17.0294 31 22Z" stroke="#6774BD" stroke-width="2" stroke-linecap="round" stroke-linejoin="round"/>
</svg>
