<svg width="48" height="48" viewBox="0 0 48 48" fill="none" xmlns="http://www.w3.org/2000/svg">
<path d="M23.9928 26.1951C25.1833 26.1951 26.1357 25.2195 26.1357 24C26.1357 22.7805 25.1833 21.8049 23.9928 21.8049C22.8024 21.8049 21.85 22.7805 21.85 24C21.85 25.2195 22.8024 26.1951 23.9928 26.1951ZM21.85 31.8049C21.85 30.5854 22.8024 29.6098 23.9928 29.6098C25.1833 29.6098 26.1357 30.5854 26.1357 31.8049C26.1357 33.0244 25.1833 34 23.9928 34C22.8024 34 21.85 33.0244 21.85 31.8049ZM21.85 16.1951C21.85 14.9756 22.8024 14 23.9928 14C25.1833 14 26.1357 14.9756 26.1357 16.1951C26.1357 17.4146 25.1833 18.3902 23.9928 18.3902C22.8024 18.3902 21.85 17.4146 21.85 16.1951Z" fill="#666E7D" fill-opacity="0.5"/>
</svg>
