<svg width="830" height="287" viewBox="0 0 830 287" fill="none" xmlns="http://www.w3.org/2000/svg">
<rect width="830" height="287" fill="white"/>
<rect x="123" y="87" width="93" height="93" rx="8" fill="#0A83CF"/>
<path d="M148.176 197L149.608 188.273H150.46L149.028 197H148.176ZM144.205 194.58L144.341 193.727H150.852L150.716 194.58H144.205ZM145.108 197L146.54 188.273H147.392L145.96 197H145.108ZM144.716 191.545L144.852 190.693H151.364L151.227 191.545H144.716ZM155.32 197.119C154.678 197.119 154.131 196.945 153.68 196.595C153.228 196.243 152.883 195.733 152.644 195.065C152.406 194.395 152.286 193.585 152.286 192.636C152.286 191.693 152.406 190.888 152.644 190.22C152.886 189.55 153.232 189.038 153.684 188.686C154.138 188.331 154.684 188.153 155.32 188.153C155.957 188.153 156.501 188.331 156.952 188.686C157.407 189.038 157.754 189.55 157.992 190.22C158.234 190.888 158.354 191.693 158.354 192.636C158.354 193.585 158.235 194.395 157.996 195.065C157.758 195.733 157.413 196.243 156.961 196.595C156.509 196.945 155.962 197.119 155.32 197.119ZM155.32 196.182C155.957 196.182 156.451 195.875 156.803 195.261C157.156 194.648 157.332 193.773 157.332 192.636C157.332 191.881 157.251 191.237 157.089 190.706C156.93 190.175 156.7 189.77 156.398 189.491C156.1 189.213 155.741 189.074 155.32 189.074C154.69 189.074 154.197 189.385 153.842 190.007C153.487 190.626 153.309 191.503 153.309 192.636C153.309 193.392 153.388 194.034 153.548 194.562C153.707 195.091 153.935 195.493 154.234 195.768C154.535 196.044 154.897 196.182 155.32 196.182ZM160.485 197H159.377L162.582 188.273H163.673L166.877 197H165.769L163.161 189.653H163.093L160.485 197ZM160.894 193.591H165.36V194.528H160.894V193.591ZM170.879 197.119C170.293 197.119 169.776 197.016 169.327 196.808C168.881 196.598 168.533 196.31 168.283 195.943C168.033 195.574 167.91 195.153 167.913 194.682C167.91 194.312 167.982 193.972 168.13 193.659C168.278 193.344 168.479 193.081 168.735 192.871C168.994 192.658 169.282 192.523 169.6 192.466V192.415C169.183 192.307 168.85 192.072 168.603 191.712C168.356 191.348 168.234 190.935 168.237 190.472C168.234 190.028 168.346 189.632 168.573 189.283C168.8 188.933 169.113 188.658 169.511 188.456C169.911 188.254 170.367 188.153 170.879 188.153C171.384 188.153 171.836 188.254 172.234 188.456C172.631 188.658 172.944 188.933 173.171 189.283C173.401 189.632 173.518 190.028 173.521 190.472C173.518 190.935 173.391 191.348 173.141 191.712C172.894 192.072 172.566 192.307 172.157 192.415V192.466C172.472 192.523 172.756 192.658 173.009 192.871C173.262 193.081 173.464 193.344 173.614 193.659C173.765 193.972 173.842 194.312 173.844 194.682C173.842 195.153 173.714 195.574 173.461 195.943C173.211 196.31 172.863 196.598 172.417 196.808C171.974 197.016 171.461 197.119 170.879 197.119ZM170.879 196.182C171.273 196.182 171.614 196.118 171.901 195.99C172.188 195.862 172.41 195.682 172.566 195.449C172.722 195.216 172.802 194.943 172.805 194.631C172.802 194.301 172.717 194.01 172.549 193.757C172.381 193.504 172.153 193.305 171.863 193.161C171.576 193.016 171.248 192.943 170.879 192.943C170.506 192.943 170.174 193.016 169.881 193.161C169.592 193.305 169.363 193.504 169.195 193.757C169.031 194.01 168.95 194.301 168.952 194.631C168.95 194.943 169.025 195.216 169.178 195.449C169.335 195.682 169.558 195.862 169.847 195.99C170.137 196.118 170.481 196.182 170.879 196.182ZM170.879 192.04C171.191 192.04 171.468 191.977 171.71 191.852C171.954 191.727 172.146 191.553 172.285 191.328C172.424 191.104 172.495 190.841 172.498 190.54C172.495 190.244 172.425 189.987 172.289 189.768C172.153 189.547 171.964 189.376 171.722 189.257C171.481 189.135 171.2 189.074 170.879 189.074C170.552 189.074 170.266 189.135 170.022 189.257C169.778 189.376 169.589 189.547 169.455 189.768C169.322 189.987 169.256 190.244 169.259 190.54C169.256 190.841 169.323 191.104 169.46 191.328C169.599 191.553 169.79 191.727 170.035 191.852C170.279 191.977 170.56 192.04 170.879 192.04ZM178.426 197.119C177.864 197.119 177.363 197.023 176.922 196.83C176.485 196.636 176.137 196.368 175.878 196.024C175.623 195.678 175.483 195.276 175.461 194.818H176.534C176.557 195.099 176.654 195.342 176.824 195.547C176.995 195.749 177.218 195.905 177.493 196.016C177.769 196.126 178.074 196.182 178.409 196.182C178.784 196.182 179.117 196.116 179.407 195.986C179.696 195.855 179.924 195.673 180.088 195.44C180.253 195.207 180.336 194.938 180.336 194.631C180.336 194.31 180.256 194.027 180.097 193.783C179.938 193.536 179.705 193.342 179.398 193.203C179.091 193.064 178.716 192.994 178.273 192.994H177.574V192.057H178.273C178.62 192.057 178.924 191.994 179.185 191.869C179.449 191.744 179.655 191.568 179.803 191.341C179.953 191.114 180.029 190.847 180.029 190.54C180.029 190.244 179.963 189.987 179.833 189.768C179.702 189.55 179.517 189.379 179.279 189.257C179.043 189.135 178.765 189.074 178.444 189.074C178.142 189.074 177.858 189.129 177.591 189.24C177.327 189.348 177.111 189.506 176.944 189.713C176.776 189.918 176.685 190.165 176.671 190.455H175.648C175.665 189.997 175.803 189.597 176.061 189.253C176.32 188.906 176.658 188.636 177.076 188.443C177.496 188.25 177.958 188.153 178.461 188.153C179 188.153 179.463 188.263 179.85 188.482C180.236 188.697 180.533 188.983 180.74 189.338C180.948 189.693 181.051 190.077 181.051 190.489C181.051 190.98 180.922 191.399 180.664 191.746C180.408 192.092 180.06 192.332 179.62 192.466V192.534C180.171 192.625 180.601 192.859 180.911 193.237C181.221 193.612 181.375 194.077 181.375 194.631C181.375 195.105 181.246 195.531 180.988 195.909C180.732 196.284 180.382 196.58 179.939 196.795C179.496 197.011 178.992 197.119 178.426 197.119ZM190.294 191H189.238C189.175 190.696 189.066 190.429 188.909 190.199C188.756 189.969 188.569 189.776 188.347 189.619C188.128 189.46 187.885 189.341 187.618 189.261C187.351 189.182 187.073 189.142 186.783 189.142C186.255 189.142 185.776 189.276 185.347 189.543C184.921 189.81 184.581 190.203 184.328 190.723C184.078 191.243 183.953 191.881 183.953 192.636C183.953 193.392 184.078 194.03 184.328 194.55C184.581 195.07 184.921 195.463 185.347 195.73C185.776 195.997 186.255 196.131 186.783 196.131C187.073 196.131 187.351 196.091 187.618 196.011C187.885 195.932 188.128 195.814 188.347 195.658C188.569 195.499 188.756 195.304 188.909 195.074C189.066 194.841 189.175 194.574 189.238 194.273H190.294C190.215 194.719 190.07 195.118 189.86 195.47C189.65 195.822 189.388 196.122 189.076 196.369C188.763 196.614 188.412 196.8 188.023 196.928C187.637 197.055 187.223 197.119 186.783 197.119C186.039 197.119 185.377 196.938 184.797 196.574C184.218 196.21 183.762 195.693 183.429 195.023C183.097 194.352 182.931 193.557 182.931 192.636C182.931 191.716 183.097 190.92 183.429 190.25C183.762 189.58 184.218 189.062 184.797 188.699C185.377 188.335 186.039 188.153 186.783 188.153C187.223 188.153 187.637 188.217 188.023 188.345C188.412 188.473 188.763 188.661 189.076 188.908C189.388 189.152 189.65 189.45 189.86 189.803C190.07 190.152 190.215 190.551 190.294 191ZM192.002 197V188.273H197.235V189.21H193.059V192.159H196.843V193.097H193.059V197H192.002Z" fill="black"/>
<rect x="246" y="87" width="93" height="93" rx="8" fill="#0BBFD9"/>
<path d="M271.176 197L272.608 188.273H273.46L272.028 197H271.176ZM267.205 194.58L267.341 193.727H273.852L273.716 194.58H267.205ZM268.108 197L269.54 188.273H270.392L268.96 197H268.108ZM267.716 191.545L267.852 190.693H274.364L274.227 191.545H267.716ZM278.32 197.119C277.678 197.119 277.131 196.945 276.68 196.595C276.228 196.243 275.883 195.733 275.644 195.065C275.406 194.395 275.286 193.585 275.286 192.636C275.286 191.693 275.406 190.888 275.644 190.22C275.886 189.55 276.232 189.038 276.684 188.686C277.138 188.331 277.684 188.153 278.32 188.153C278.957 188.153 279.501 188.331 279.952 188.686C280.407 189.038 280.754 189.55 280.992 190.22C281.234 190.888 281.354 191.693 281.354 192.636C281.354 193.585 281.235 194.395 280.996 195.065C280.758 195.733 280.413 196.243 279.961 196.595C279.509 196.945 278.962 197.119 278.32 197.119ZM278.32 196.182C278.957 196.182 279.451 195.875 279.803 195.261C280.156 194.648 280.332 193.773 280.332 192.636C280.332 191.881 280.251 191.237 280.089 190.706C279.93 190.175 279.7 189.77 279.398 189.491C279.1 189.213 278.741 189.074 278.32 189.074C277.69 189.074 277.197 189.385 276.842 190.007C276.487 190.626 276.309 191.503 276.309 192.636C276.309 193.392 276.388 194.034 276.548 194.562C276.707 195.091 276.935 195.493 277.234 195.768C277.535 196.044 277.897 196.182 278.32 196.182ZM283.127 197V188.273H286.178C286.786 188.273 287.288 188.378 287.683 188.588C288.077 188.795 288.371 189.075 288.565 189.428C288.758 189.777 288.854 190.165 288.854 190.591C288.854 190.966 288.788 191.276 288.654 191.52C288.523 191.764 288.35 191.957 288.134 192.099C287.921 192.241 287.69 192.347 287.44 192.415V192.5C287.707 192.517 287.975 192.611 288.245 192.781C288.515 192.952 288.741 193.196 288.923 193.514C289.104 193.832 289.195 194.222 289.195 194.682C289.195 195.119 289.096 195.513 288.897 195.862C288.698 196.212 288.384 196.489 287.955 196.693C287.526 196.898 286.968 197 286.281 197H283.127ZM284.184 196.062H286.281C286.971 196.062 287.461 195.929 287.751 195.662C288.043 195.392 288.19 195.065 288.19 194.682C288.19 194.386 288.114 194.114 287.964 193.864C287.813 193.611 287.599 193.409 287.32 193.259C287.042 193.105 286.712 193.028 286.332 193.028H284.184V196.062ZM284.184 192.108H286.144C286.462 192.108 286.749 192.045 287.005 191.92C287.263 191.795 287.468 191.619 287.619 191.392C287.772 191.165 287.849 190.898 287.849 190.591C287.849 190.207 287.715 189.882 287.448 189.615C287.181 189.345 286.758 189.21 286.178 189.21H284.184V192.108ZM290.932 197V188.273H293.983C294.591 188.273 295.092 188.378 295.487 188.588C295.882 188.795 296.176 189.075 296.369 189.428C296.563 189.777 296.659 190.165 296.659 190.591C296.659 190.966 296.592 191.276 296.459 191.52C296.328 191.764 296.155 191.957 295.939 192.099C295.726 192.241 295.494 192.347 295.244 192.415V192.5C295.511 192.517 295.78 192.611 296.05 192.781C296.32 192.952 296.545 193.196 296.727 193.514C296.909 193.832 297 194.222 297 194.682C297 195.119 296.901 195.513 296.702 195.862C296.503 196.212 296.189 196.489 295.76 196.693C295.331 196.898 294.773 197 294.085 197H290.932ZM291.989 196.062H294.085C294.776 196.062 295.266 195.929 295.555 195.662C295.848 195.392 295.994 195.065 295.994 194.682C295.994 194.386 295.919 194.114 295.768 193.864C295.618 193.611 295.403 193.409 295.125 193.259C294.847 193.105 294.517 193.028 294.136 193.028H291.989V196.062ZM291.989 192.108H293.949C294.267 192.108 294.554 192.045 294.81 191.92C295.068 191.795 295.273 191.619 295.423 191.392C295.577 191.165 295.653 190.898 295.653 190.591C295.653 190.207 295.52 189.882 295.253 189.615C294.986 189.345 294.563 189.21 293.983 189.21H291.989V192.108ZM298.737 197V188.273H303.969V189.21H299.793V192.159H303.577V193.097H299.793V197H298.737ZM308.473 197H305.779V188.273H308.592C309.439 188.273 310.163 188.447 310.765 188.797C311.368 189.143 311.829 189.642 312.15 190.293C312.471 190.94 312.632 191.716 312.632 192.619C312.632 193.528 312.47 194.311 312.146 194.967C311.822 195.621 311.35 196.124 310.731 196.476C310.112 196.825 309.359 197 308.473 197ZM306.836 196.062H308.404C309.126 196.062 309.724 195.923 310.199 195.645C310.673 195.366 311.027 194.97 311.26 194.456C311.493 193.942 311.609 193.33 311.609 192.619C311.609 191.915 311.494 191.308 311.264 190.8C311.034 190.288 310.69 189.896 310.233 189.624C309.775 189.348 309.206 189.21 308.524 189.21H306.836V196.062ZM317.029 188.153C317.387 188.156 317.745 188.224 318.103 188.358C318.461 188.491 318.788 188.713 319.083 189.023C319.379 189.33 319.616 189.749 319.795 190.28C319.974 190.811 320.064 191.477 320.064 192.278C320.064 193.054 319.99 193.743 319.842 194.345C319.697 194.945 319.487 195.45 319.211 195.862C318.939 196.274 318.606 196.587 318.214 196.8C317.825 197.013 317.385 197.119 316.893 197.119C316.404 197.119 315.968 197.023 315.585 196.83C315.204 196.634 314.892 196.362 314.647 196.016C314.406 195.666 314.251 195.261 314.183 194.801H315.223C315.316 195.202 315.502 195.533 315.781 195.794C316.062 196.053 316.433 196.182 316.893 196.182C317.566 196.182 318.098 195.888 318.487 195.3C318.879 194.712 319.075 193.881 319.075 192.807H319.007C318.848 193.045 318.659 193.251 318.44 193.425C318.221 193.598 317.978 193.732 317.711 193.825C317.444 193.919 317.16 193.966 316.859 193.966C316.359 193.966 315.9 193.842 315.483 193.595C315.068 193.345 314.735 193.003 314.485 192.568C314.238 192.131 314.115 191.631 314.115 191.068C314.115 190.534 314.234 190.045 314.473 189.602C314.714 189.156 315.052 188.801 315.487 188.537C315.924 188.273 316.439 188.145 317.029 188.153ZM317.029 189.091C316.672 189.091 316.349 189.18 316.062 189.359C315.778 189.536 315.552 189.774 315.385 190.075C315.22 190.374 315.137 190.705 315.137 191.068C315.137 191.432 315.217 191.763 315.376 192.061C315.538 192.357 315.758 192.592 316.037 192.768C316.318 192.942 316.637 193.028 316.995 193.028C317.265 193.028 317.517 192.976 317.75 192.871C317.983 192.763 318.186 192.616 318.359 192.432C318.535 192.244 318.673 192.033 318.772 191.797C318.872 191.558 318.922 191.31 318.922 191.051C318.922 190.71 318.839 190.391 318.674 190.092C318.512 189.794 318.288 189.553 318.001 189.368C317.717 189.183 317.393 189.091 317.029 189.091Z" fill="black"/>
<rect x="369" y="87" width="93" height="93" rx="8" fill="#00C3A5"/>
<path d="M394.176 197L395.608 188.273H396.46L395.028 197H394.176ZM390.205 194.58L390.341 193.727H396.852L396.716 194.58H390.205ZM391.108 197L392.54 188.273H393.392L391.96 197H391.108ZM390.716 191.545L390.852 190.693H397.364L397.227 191.545H390.716ZM401.32 197.119C400.678 197.119 400.131 196.945 399.68 196.595C399.228 196.243 398.883 195.733 398.644 195.065C398.406 194.395 398.286 193.585 398.286 192.636C398.286 191.693 398.406 190.888 398.644 190.22C398.886 189.55 399.232 189.038 399.684 188.686C400.138 188.331 400.684 188.153 401.32 188.153C401.957 188.153 402.501 188.331 402.952 188.686C403.407 189.038 403.754 189.55 403.992 190.22C404.234 190.888 404.354 191.693 404.354 192.636C404.354 193.585 404.235 194.395 403.996 195.065C403.758 195.733 403.413 196.243 402.961 196.595C402.509 196.945 401.962 197.119 401.32 197.119ZM401.32 196.182C401.957 196.182 402.451 195.875 402.803 195.261C403.156 194.648 403.332 193.773 403.332 192.636C403.332 191.881 403.251 191.237 403.089 190.706C402.93 190.175 402.7 189.77 402.398 189.491C402.1 189.213 401.741 189.074 401.32 189.074C400.69 189.074 400.197 189.385 399.842 190.007C399.487 190.626 399.309 191.503 399.309 192.636C399.309 193.392 399.388 194.034 399.548 194.562C399.707 195.091 399.935 195.493 400.234 195.768C400.535 196.044 400.897 196.182 401.32 196.182ZM408.82 197.119C408.178 197.119 407.631 196.945 407.18 196.595C406.728 196.243 406.383 195.733 406.144 195.065C405.906 194.395 405.786 193.585 405.786 192.636C405.786 191.693 405.906 190.888 406.144 190.22C406.386 189.55 406.732 189.038 407.184 188.686C407.638 188.331 408.184 188.153 408.82 188.153C409.457 188.153 410.001 188.331 410.452 188.686C410.907 189.038 411.254 189.55 411.492 190.22C411.734 190.888 411.854 191.693 411.854 192.636C411.854 193.585 411.735 194.395 411.496 195.065C411.258 195.733 410.913 196.243 410.461 196.595C410.009 196.945 409.462 197.119 408.82 197.119ZM408.82 196.182C409.457 196.182 409.951 195.875 410.303 195.261C410.656 194.648 410.832 193.773 410.832 192.636C410.832 191.881 410.751 191.237 410.589 190.706C410.43 190.175 410.2 189.77 409.898 189.491C409.6 189.213 409.241 189.074 408.82 189.074C408.19 189.074 407.697 189.385 407.342 190.007C406.987 190.626 406.809 191.503 406.809 192.636C406.809 193.392 406.888 194.034 407.048 194.562C407.207 195.091 407.435 195.493 407.734 195.768C408.035 196.044 408.397 196.182 408.82 196.182ZM420.65 191H419.593C419.531 190.696 419.421 190.429 419.265 190.199C419.112 189.969 418.924 189.776 418.702 189.619C418.484 189.46 418.241 189.341 417.974 189.261C417.707 189.182 417.428 189.142 417.138 189.142C416.61 189.142 416.131 189.276 415.702 189.543C415.276 189.81 414.937 190.203 414.684 190.723C414.434 191.243 414.309 191.881 414.309 192.636C414.309 193.392 414.434 194.03 414.684 194.55C414.937 195.07 415.276 195.463 415.702 195.73C416.131 195.997 416.61 196.131 417.138 196.131C417.428 196.131 417.707 196.091 417.974 196.011C418.241 195.932 418.484 195.814 418.702 195.658C418.924 195.499 419.112 195.304 419.265 195.074C419.421 194.841 419.531 194.574 419.593 194.273H420.65C420.57 194.719 420.425 195.118 420.215 195.47C420.005 195.822 419.744 196.122 419.431 196.369C419.119 196.614 418.768 196.8 418.379 196.928C417.992 197.055 417.579 197.119 417.138 197.119C416.394 197.119 415.732 196.938 415.153 196.574C414.573 196.21 414.117 195.693 413.785 195.023C413.452 194.352 413.286 193.557 413.286 192.636C413.286 191.716 413.452 190.92 413.785 190.25C414.117 189.58 414.573 189.062 415.153 188.699C415.732 188.335 416.394 188.153 417.138 188.153C417.579 188.153 417.992 188.217 418.379 188.345C418.768 188.473 419.119 188.661 419.431 188.908C419.744 189.152 420.005 189.45 420.215 189.803C420.425 190.152 420.57 190.551 420.65 191ZM425.153 197.119C424.591 197.119 424.089 197.023 423.649 196.83C423.211 196.636 422.863 196.368 422.605 196.024C422.349 195.678 422.21 195.276 422.187 194.818H423.261C423.284 195.099 423.38 195.342 423.551 195.547C423.721 195.749 423.944 195.905 424.22 196.016C424.495 196.126 424.801 196.182 425.136 196.182C425.511 196.182 425.843 196.116 426.133 195.986C426.423 195.855 426.65 195.673 426.815 195.44C426.98 195.207 427.062 194.938 427.062 194.631C427.062 194.31 426.983 194.027 426.824 193.783C426.664 193.536 426.431 193.342 426.125 193.203C425.818 193.064 425.443 192.994 425 192.994H424.301V192.057H425C425.346 192.057 425.65 191.994 425.912 191.869C426.176 191.744 426.382 191.568 426.529 191.341C426.68 191.114 426.755 190.847 426.755 190.54C426.755 190.244 426.69 189.987 426.559 189.768C426.429 189.55 426.244 189.379 426.005 189.257C425.77 189.135 425.491 189.074 425.17 189.074C424.869 189.074 424.585 189.129 424.318 189.24C424.054 189.348 423.838 189.506 423.67 189.713C423.502 189.918 423.412 190.165 423.397 190.455H422.375C422.392 189.997 422.529 189.597 422.788 189.253C423.047 188.906 423.385 188.636 423.802 188.443C424.223 188.25 424.684 188.153 425.187 188.153C425.727 188.153 426.19 188.263 426.576 188.482C426.963 188.697 427.26 188.983 427.467 189.338C427.674 189.693 427.778 190.077 427.778 190.489C427.778 190.98 427.649 191.399 427.39 191.746C427.135 192.092 426.787 192.332 426.346 192.466V192.534C426.897 192.625 427.328 192.859 427.637 193.237C427.947 193.612 428.102 194.077 428.102 194.631C428.102 195.105 427.973 195.531 427.714 195.909C427.458 196.284 427.109 196.58 426.666 196.795C426.223 197.011 425.718 197.119 425.153 197.119ZM430.356 197H429.248L432.453 188.273H433.544L436.748 197H435.64L433.032 189.653H432.964L430.356 197ZM430.765 193.591H435.231V194.528H430.765V193.591ZM440.681 197.119C440.181 197.119 439.731 197.02 439.331 196.821C438.93 196.622 438.609 196.349 438.368 196.003C438.126 195.656 437.994 195.261 437.971 194.818H438.994C439.034 195.213 439.213 195.54 439.531 195.798C439.852 196.054 440.235 196.182 440.681 196.182C441.039 196.182 441.358 196.098 441.636 195.93C441.917 195.763 442.137 195.533 442.297 195.24C442.458 194.945 442.539 194.611 442.539 194.239C442.539 193.858 442.456 193.518 442.288 193.22C442.123 192.919 441.896 192.682 441.606 192.509C441.316 192.335 440.985 192.247 440.613 192.244C440.346 192.241 440.072 192.283 439.791 192.368C439.51 192.45 439.278 192.557 439.096 192.688L438.108 192.568L438.636 188.273H443.17V189.21H439.522L439.216 191.784H439.267C439.446 191.642 439.67 191.524 439.94 191.43C440.21 191.337 440.491 191.29 440.784 191.29C441.318 191.29 441.794 191.418 442.211 191.673C442.632 191.926 442.961 192.273 443.2 192.713C443.441 193.153 443.562 193.656 443.562 194.222C443.562 194.778 443.437 195.276 443.187 195.713C442.94 196.148 442.599 196.491 442.164 196.744C441.73 196.994 441.235 197.119 440.681 197.119Z" fill="black"/>
<rect x="492" y="87" width="93" height="93" rx="8" fill="#0BD980"/>
<path d="M517.176 197L518.608 188.273H519.46L518.028 197H517.176ZM513.205 194.58L513.341 193.727H519.852L519.716 194.58H513.205ZM514.108 197L515.54 188.273H516.392L514.96 197H514.108ZM513.716 191.545L513.852 190.693H520.364L520.227 191.545H513.716ZM524.32 197.119C523.678 197.119 523.131 196.945 522.68 196.595C522.228 196.243 521.883 195.733 521.644 195.065C521.406 194.395 521.286 193.585 521.286 192.636C521.286 191.693 521.406 190.888 521.644 190.22C521.886 189.55 522.232 189.038 522.684 188.686C523.138 188.331 523.684 188.153 524.32 188.153C524.957 188.153 525.501 188.331 525.952 188.686C526.407 189.038 526.754 189.55 526.992 190.22C527.234 190.888 527.354 191.693 527.354 192.636C527.354 193.585 527.235 194.395 526.996 195.065C526.758 195.733 526.413 196.243 525.961 196.595C525.509 196.945 524.962 197.119 524.32 197.119ZM524.32 196.182C524.957 196.182 525.451 195.875 525.803 195.261C526.156 194.648 526.332 193.773 526.332 192.636C526.332 191.881 526.251 191.237 526.089 190.706C525.93 190.175 525.7 189.77 525.398 189.491C525.1 189.213 524.741 189.074 524.32 189.074C523.69 189.074 523.197 189.385 522.842 190.007C522.487 190.626 522.309 191.503 522.309 192.636C522.309 193.392 522.388 194.034 522.548 194.562C522.707 195.091 522.935 195.493 523.234 195.768C523.535 196.044 523.897 196.182 524.32 196.182ZM529.127 197V188.273H532.178C532.786 188.273 533.288 188.378 533.683 188.588C534.077 188.795 534.371 189.075 534.565 189.428C534.758 189.777 534.854 190.165 534.854 190.591C534.854 190.966 534.788 191.276 534.654 191.52C534.523 191.764 534.35 191.957 534.134 192.099C533.921 192.241 533.69 192.347 533.44 192.415V192.5C533.707 192.517 533.975 192.611 534.245 192.781C534.515 192.952 534.741 193.196 534.923 193.514C535.104 193.832 535.195 194.222 535.195 194.682C535.195 195.119 535.096 195.513 534.897 195.862C534.698 196.212 534.384 196.489 533.955 196.693C533.526 196.898 532.968 197 532.281 197H529.127ZM530.184 196.062H532.281C532.971 196.062 533.461 195.929 533.751 195.662C534.043 195.392 534.19 195.065 534.19 194.682C534.19 194.386 534.114 194.114 533.964 193.864C533.813 193.611 533.599 193.409 533.32 193.259C533.042 193.105 532.712 193.028 532.332 193.028H530.184V196.062ZM530.184 192.108H532.144C532.462 192.108 532.749 192.045 533.005 191.92C533.263 191.795 533.468 191.619 533.619 191.392C533.772 191.165 533.849 190.898 533.849 190.591C533.849 190.207 533.715 189.882 533.448 189.615C533.181 189.345 532.758 189.21 532.178 189.21H530.184V192.108ZM539.625 197H536.932V188.273H539.744C540.591 188.273 541.315 188.447 541.918 188.797C542.52 189.143 542.982 189.642 543.303 190.293C543.624 190.94 543.784 191.716 543.784 192.619C543.784 193.528 543.622 194.311 543.298 194.967C542.974 195.621 542.503 196.124 541.884 196.476C541.264 196.825 540.511 197 539.625 197ZM537.989 196.062H539.557C540.278 196.062 540.876 195.923 541.351 195.645C541.825 195.366 542.179 194.97 542.412 194.456C542.645 193.942 542.761 193.33 542.761 192.619C542.761 191.915 542.646 191.308 542.416 190.8C542.186 190.288 541.842 189.896 541.385 189.624C540.928 189.348 540.358 189.21 539.676 189.21H537.989V196.062ZM548.182 188.153C548.54 188.156 548.898 188.224 549.256 188.358C549.614 188.491 549.94 188.713 550.236 189.023C550.531 189.33 550.768 189.749 550.947 190.28C551.126 190.811 551.216 191.477 551.216 192.278C551.216 193.054 551.142 193.743 550.994 194.345C550.849 194.945 550.639 195.45 550.364 195.862C550.091 196.274 549.759 196.587 549.366 196.8C548.977 197.013 548.537 197.119 548.045 197.119C547.557 197.119 547.121 197.023 546.737 196.83C546.357 196.634 546.044 196.362 545.8 196.016C545.558 195.666 545.403 195.261 545.335 194.801H546.375C546.469 195.202 546.655 195.533 546.933 195.794C547.214 196.053 547.585 196.182 548.045 196.182C548.719 196.182 549.25 195.888 549.639 195.3C550.031 194.712 550.227 193.881 550.227 192.807H550.159C550 193.045 549.811 193.251 549.592 193.425C549.374 193.598 549.131 193.732 548.864 193.825C548.597 193.919 548.313 193.966 548.011 193.966C547.511 193.966 547.053 193.842 546.635 193.595C546.22 193.345 545.888 193.003 545.638 192.568C545.391 192.131 545.267 191.631 545.267 191.068C545.267 190.534 545.386 190.045 545.625 189.602C545.866 189.156 546.205 188.801 546.639 188.537C547.077 188.273 547.591 188.145 548.182 188.153ZM548.182 189.091C547.824 189.091 547.501 189.18 547.214 189.359C546.93 189.536 546.705 189.774 546.537 190.075C546.372 190.374 546.29 190.705 546.29 191.068C546.29 191.432 546.369 191.763 546.528 192.061C546.69 192.357 546.911 192.592 547.189 192.768C547.47 192.942 547.79 193.028 548.148 193.028C548.418 193.028 548.669 192.976 548.902 192.871C549.135 192.763 549.338 192.616 549.511 192.432C549.688 192.244 549.825 192.033 549.925 191.797C550.024 191.558 550.074 191.31 550.074 191.051C550.074 190.71 549.991 190.391 549.827 190.092C549.665 189.794 549.44 189.553 549.153 189.368C548.869 189.183 548.545 189.091 548.182 189.091ZM555.687 197.119C555.102 197.119 554.585 197.016 554.136 196.808C553.69 196.598 553.342 196.31 553.092 195.943C552.842 195.574 552.718 195.153 552.721 194.682C552.718 194.312 552.791 193.972 552.939 193.659C553.086 193.344 553.288 193.081 553.544 192.871C553.802 192.658 554.091 192.523 554.409 192.466V192.415C553.991 192.307 553.659 192.072 553.412 191.712C553.164 191.348 553.042 190.935 553.045 190.472C553.042 190.028 553.154 189.632 553.382 189.283C553.609 188.933 553.922 188.658 554.319 188.456C554.72 188.254 555.176 188.153 555.687 188.153C556.193 188.153 556.645 188.254 557.042 188.456C557.44 188.658 557.752 188.933 557.98 189.283C558.21 189.632 558.326 190.028 558.329 190.472C558.326 190.935 558.2 191.348 557.95 191.712C557.703 192.072 557.375 192.307 556.966 192.415V192.466C557.281 192.523 557.565 192.658 557.818 192.871C558.071 193.081 558.272 193.344 558.423 193.659C558.574 193.972 558.65 194.312 558.653 194.682C558.65 195.153 558.522 195.574 558.27 195.943C558.02 196.31 557.672 196.598 557.225 196.808C556.782 197.016 556.27 197.119 555.687 197.119ZM555.687 196.182C556.082 196.182 556.423 196.118 556.71 195.99C556.997 195.862 557.218 195.682 557.375 195.449C557.531 195.216 557.61 194.943 557.613 194.631C557.61 194.301 557.525 194.01 557.358 193.757C557.19 193.504 556.961 193.305 556.672 193.161C556.385 193.016 556.056 192.943 555.687 192.943C555.315 192.943 554.983 193.016 554.69 193.161C554.4 193.305 554.172 193.504 554.004 193.757C553.839 194.01 553.758 194.301 553.761 194.631C553.758 194.943 553.833 195.216 553.987 195.449C554.143 195.682 554.366 195.862 554.656 195.99C554.946 196.118 555.289 196.182 555.687 196.182ZM555.687 192.04C556 192.04 556.277 191.977 556.518 191.852C556.762 191.727 556.954 191.553 557.093 191.328C557.233 191.104 557.304 190.841 557.306 190.54C557.304 190.244 557.234 189.987 557.098 189.768C556.961 189.547 556.772 189.376 556.531 189.257C556.289 189.135 556.008 189.074 555.687 189.074C555.36 189.074 555.075 189.135 554.831 189.257C554.586 189.376 554.397 189.547 554.264 189.768C554.13 189.987 554.065 190.244 554.068 190.54C554.065 190.841 554.132 191.104 554.268 191.328C554.407 191.553 554.599 191.727 554.843 191.852C555.088 191.977 555.369 192.04 555.687 192.04ZM563.133 197.119C562.491 197.119 561.944 196.945 561.492 196.595C561.04 196.243 560.695 195.733 560.457 195.065C560.218 194.395 560.099 193.585 560.099 192.636C560.099 191.693 560.218 190.888 560.457 190.22C560.698 189.55 561.045 189.038 561.496 188.686C561.951 188.331 562.496 188.153 563.133 188.153C563.769 188.153 564.313 188.331 564.765 188.686C565.219 189.038 565.566 189.55 565.805 190.22C566.046 190.888 566.167 191.693 566.167 192.636C566.167 193.585 566.048 194.395 565.809 195.065C565.57 195.733 565.225 196.243 564.773 196.595C564.322 196.945 563.775 197.119 563.133 197.119ZM563.133 196.182C563.769 196.182 564.263 195.875 564.616 195.261C564.968 194.648 565.144 193.773 565.144 192.636C565.144 191.881 565.063 191.237 564.901 190.706C564.742 190.175 564.512 189.77 564.211 189.491C563.913 189.213 563.553 189.074 563.133 189.074C562.502 189.074 562.009 189.385 561.654 190.007C561.299 190.626 561.121 191.503 561.121 192.636C561.121 193.392 561.201 194.034 561.36 194.562C561.519 195.091 561.748 195.493 562.046 195.768C562.347 196.044 562.71 196.182 563.133 196.182Z" fill="black"/>
<rect x="615" y="87" width="93" height="93" rx="8" fill="#0ACF42"/>
<path d="M640.176 197L641.608 188.273H642.46L641.028 197H640.176ZM636.205 194.58L636.341 193.727H642.852L642.716 194.58H636.205ZM637.108 197L638.54 188.273H639.392L637.96 197H637.108ZM636.716 191.545L636.852 190.693H643.364L643.227 191.545H636.716ZM647.32 197.119C646.678 197.119 646.131 196.945 645.68 196.595C645.228 196.243 644.883 195.733 644.644 195.065C644.406 194.395 644.286 193.585 644.286 192.636C644.286 191.693 644.406 190.888 644.644 190.22C644.886 189.55 645.232 189.038 645.684 188.686C646.138 188.331 646.684 188.153 647.32 188.153C647.957 188.153 648.501 188.331 648.952 188.686C649.407 189.038 649.754 189.55 649.992 190.22C650.234 190.888 650.354 191.693 650.354 192.636C650.354 193.585 650.235 194.395 649.996 195.065C649.758 195.733 649.413 196.243 648.961 196.595C648.509 196.945 647.962 197.119 647.32 197.119ZM647.32 196.182C647.957 196.182 648.451 195.875 648.803 195.261C649.156 194.648 649.332 193.773 649.332 192.636C649.332 191.881 649.251 191.237 649.089 190.706C648.93 190.175 648.7 189.77 648.398 189.491C648.1 189.213 647.741 189.074 647.32 189.074C646.69 189.074 646.197 189.385 645.842 190.007C645.487 190.626 645.309 191.503 645.309 192.636C645.309 193.392 645.388 194.034 645.548 194.562C645.707 195.091 645.935 195.493 646.234 195.768C646.535 196.044 646.897 196.182 647.32 196.182ZM652.485 197H651.377L654.582 188.273H655.673L658.877 197H657.769L655.161 189.653H655.093L652.485 197ZM652.894 193.591H657.36V194.528H652.894V193.591ZM666.849 191H665.792C665.73 190.696 665.62 190.429 665.464 190.199C665.311 189.969 665.123 189.776 664.902 189.619C664.683 189.46 664.44 189.341 664.173 189.261C663.906 189.182 663.627 189.142 663.338 189.142C662.809 189.142 662.331 189.276 661.902 189.543C661.475 189.81 661.136 190.203 660.883 190.723C660.633 191.243 660.508 191.881 660.508 192.636C660.508 193.392 660.633 194.03 660.883 194.55C661.136 195.07 661.475 195.463 661.902 195.73C662.331 195.997 662.809 196.131 663.338 196.131C663.627 196.131 663.906 196.091 664.173 196.011C664.44 195.932 664.683 195.814 664.902 195.658C665.123 195.499 665.311 195.304 665.464 195.074C665.62 194.841 665.73 194.574 665.792 194.273H666.849C666.77 194.719 666.625 195.118 666.414 195.47C666.204 195.822 665.943 196.122 665.63 196.369C665.318 196.614 664.967 196.8 664.578 196.928C664.191 197.055 663.778 197.119 663.338 197.119C662.593 197.119 661.931 196.938 661.352 196.574C660.772 196.21 660.316 195.693 659.984 195.023C659.652 194.352 659.485 193.557 659.485 192.636C659.485 191.716 659.652 190.92 659.984 190.25C660.316 189.58 660.772 189.062 661.352 188.699C661.931 188.335 662.593 188.153 663.338 188.153C663.778 188.153 664.191 188.217 664.578 188.345C664.967 188.473 665.318 188.661 665.63 188.908C665.943 189.152 666.204 189.45 666.414 189.803C666.625 190.152 666.77 190.551 666.849 191ZM668.557 197V188.273H673.79V189.21H669.614V192.159H673.398V193.097H669.614V197H668.557ZM675.242 195.21V194.341L679.077 188.273H679.708V189.619H679.282L676.384 194.205V194.273H681.549V195.21H675.242ZM679.35 197V194.946V194.541V188.273H680.355V197H679.35ZM683.146 197V196.233L686.026 193.08C686.364 192.71 686.643 192.389 686.862 192.116C687.08 191.841 687.242 191.582 687.347 191.341C687.455 191.097 687.509 190.841 687.509 190.574C687.509 190.267 687.435 190.001 687.288 189.777C687.143 189.553 686.944 189.379 686.691 189.257C686.438 189.135 686.154 189.074 685.839 189.074C685.504 189.074 685.211 189.143 684.961 189.283C684.714 189.419 684.522 189.611 684.386 189.858C684.252 190.105 684.185 190.395 684.185 190.727H683.18C683.18 190.216 683.298 189.767 683.533 189.381C683.769 188.994 684.09 188.693 684.496 188.477C684.906 188.261 685.364 188.153 685.873 188.153C686.384 188.153 686.837 188.261 687.232 188.477C687.627 188.693 687.937 188.984 688.161 189.351C688.386 189.717 688.498 190.125 688.498 190.574C688.498 190.895 688.44 191.209 688.323 191.516C688.21 191.82 688.011 192.159 687.727 192.534C687.445 192.906 687.055 193.361 686.555 193.898L684.594 195.994V196.062H688.651V197H683.146Z" fill="black"/>
</svg>
