<svg width="830" height="287" viewBox="0 0 830 287" fill="none" xmlns="http://www.w3.org/2000/svg">
<rect width="830" height="287" fill="white"/>
<rect x="123" y="87" width="93" height="93" rx="8" fill="#17468C"/>
<path d="M148.176 197L149.608 188.273H150.46L149.028 197H148.176ZM144.205 194.58L144.341 193.727H150.852L150.716 194.58H144.205ZM145.108 197L146.54 188.273H147.392L145.96 197H145.108ZM144.716 191.545L144.852 190.693H151.364L151.227 191.545H144.716ZM155.542 188.273V197H154.485V189.381H154.434L152.303 190.795V189.722L154.485 188.273H155.542ZM158.325 197L162.228 189.278V189.21H157.728V188.273H163.319V189.261L159.433 197H158.325ZM164 195.21V194.341L167.835 188.273H168.466V189.619H168.039L165.142 194.205V194.273H170.306V195.21H164ZM168.108 197V194.946V194.541V188.273H169.113V197H168.108ZM174.801 197.119C174.443 197.114 174.085 197.045 173.727 196.915C173.369 196.784 173.043 196.564 172.747 196.254C172.452 195.942 172.214 195.52 172.036 194.989C171.857 194.455 171.767 193.784 171.767 192.977C171.767 192.205 171.839 191.52 171.984 190.923C172.129 190.324 172.339 189.82 172.615 189.411C172.891 188.999 173.223 188.686 173.612 188.473C174.004 188.26 174.446 188.153 174.938 188.153C175.426 188.153 175.861 188.251 176.241 188.447C176.625 188.641 176.938 188.911 177.179 189.257C177.42 189.604 177.577 190.003 177.648 190.455H176.608C176.511 190.062 176.324 189.737 176.045 189.479C175.767 189.22 175.398 189.091 174.938 189.091C174.261 189.091 173.729 189.385 173.339 189.973C172.953 190.561 172.759 191.386 172.756 192.449H172.824C172.983 192.207 173.172 192.001 173.391 191.831C173.612 191.658 173.857 191.524 174.124 191.43C174.391 191.337 174.673 191.29 174.972 191.29C175.472 191.29 175.929 191.415 176.344 191.665C176.759 191.912 177.091 192.254 177.341 192.692C177.591 193.126 177.716 193.625 177.716 194.188C177.716 194.727 177.595 195.222 177.354 195.67C177.112 196.116 176.773 196.472 176.335 196.736C175.901 196.997 175.389 197.125 174.801 197.119ZM174.801 196.182C175.159 196.182 175.48 196.092 175.764 195.913C176.051 195.734 176.277 195.494 176.442 195.193C176.609 194.892 176.693 194.557 176.693 194.188C176.693 193.827 176.612 193.499 176.45 193.203C176.291 192.905 176.071 192.668 175.79 192.491C175.511 192.315 175.193 192.227 174.835 192.227C174.565 192.227 174.314 192.281 174.081 192.389C173.848 192.494 173.643 192.639 173.467 192.824C173.294 193.009 173.158 193.22 173.058 193.459C172.959 193.695 172.909 193.943 172.909 194.205C172.909 194.551 172.99 194.875 173.152 195.176C173.317 195.477 173.541 195.72 173.825 195.905C174.112 196.089 174.438 196.182 174.801 196.182ZM182.187 197.119C181.602 197.119 181.085 197.016 180.636 196.808C180.19 196.598 179.842 196.31 179.592 195.943C179.342 195.574 179.218 195.153 179.221 194.682C179.218 194.312 179.291 193.972 179.439 193.659C179.586 193.344 179.788 193.081 180.044 192.871C180.302 192.658 180.591 192.523 180.909 192.466V192.415C180.491 192.307 180.159 192.072 179.912 191.712C179.664 191.348 179.542 190.935 179.545 190.472C179.542 190.028 179.654 189.632 179.882 189.283C180.109 188.933 180.422 188.658 180.819 188.456C181.22 188.254 181.676 188.153 182.187 188.153C182.693 188.153 183.145 188.254 183.542 188.456C183.94 188.658 184.252 188.933 184.48 189.283C184.71 189.632 184.826 190.028 184.829 190.472C184.826 190.935 184.7 191.348 184.45 191.712C184.203 192.072 183.875 192.307 183.466 192.415V192.466C183.781 192.523 184.065 192.658 184.318 192.871C184.571 193.081 184.772 193.344 184.923 193.659C185.074 193.972 185.15 194.312 185.153 194.682C185.15 195.153 185.022 195.574 184.77 195.943C184.52 196.31 184.172 196.598 183.725 196.808C183.282 197.016 182.77 197.119 182.187 197.119ZM182.187 196.182C182.582 196.182 182.923 196.118 183.21 195.99C183.497 195.862 183.718 195.682 183.875 195.449C184.031 195.216 184.11 194.943 184.113 194.631C184.11 194.301 184.025 194.01 183.858 193.757C183.69 193.504 183.461 193.305 183.172 193.161C182.885 193.016 182.556 192.943 182.187 192.943C181.815 192.943 181.483 193.016 181.19 193.161C180.9 193.305 180.672 193.504 180.504 193.757C180.339 194.01 180.258 194.301 180.261 194.631C180.258 194.943 180.333 195.216 180.487 195.449C180.643 195.682 180.866 195.862 181.156 195.99C181.446 196.118 181.789 196.182 182.187 196.182ZM182.187 192.04C182.5 192.04 182.777 191.977 183.018 191.852C183.262 191.727 183.454 191.553 183.593 191.328C183.733 191.104 183.804 190.841 183.806 190.54C183.804 190.244 183.734 189.987 183.598 189.768C183.461 189.547 183.272 189.376 183.031 189.257C182.789 189.135 182.508 189.074 182.187 189.074C181.86 189.074 181.575 189.135 181.331 189.257C181.086 189.376 180.897 189.547 180.764 189.768C180.63 189.987 180.565 190.244 180.568 190.54C180.565 190.841 180.632 191.104 180.768 191.328C180.907 191.553 181.099 191.727 181.343 191.852C181.588 191.977 181.869 192.04 182.187 192.04ZM193.962 191H192.906C192.843 190.696 192.734 190.429 192.577 190.199C192.424 189.969 192.237 189.776 192.015 189.619C191.796 189.46 191.553 189.341 191.286 189.261C191.019 189.182 190.741 189.142 190.451 189.142C189.923 189.142 189.444 189.276 189.015 189.543C188.589 189.81 188.249 190.203 187.996 190.723C187.746 191.243 187.621 191.881 187.621 192.636C187.621 193.392 187.746 194.03 187.996 194.55C188.249 195.07 188.589 195.463 189.015 195.73C189.444 195.997 189.923 196.131 190.451 196.131C190.741 196.131 191.019 196.091 191.286 196.011C191.553 195.932 191.796 195.814 192.015 195.658C192.237 195.499 192.424 195.304 192.577 195.074C192.734 194.841 192.843 194.574 192.906 194.273H193.962C193.883 194.719 193.738 195.118 193.528 195.47C193.317 195.822 193.056 196.122 192.744 196.369C192.431 196.614 192.08 196.8 191.691 196.928C191.305 197.055 190.891 197.119 190.451 197.119C189.707 197.119 189.045 196.938 188.465 196.574C187.886 196.21 187.43 195.693 187.097 195.023C186.765 194.352 186.599 193.557 186.599 192.636C186.599 191.716 186.765 190.92 187.097 190.25C187.43 189.58 187.886 189.062 188.465 188.699C189.045 188.335 189.707 188.153 190.451 188.153C190.891 188.153 191.305 188.217 191.691 188.345C192.08 188.473 192.431 188.661 192.744 188.908C193.056 189.152 193.317 189.45 193.528 189.803C193.738 190.152 193.883 190.551 193.962 191Z" fill="black"/>
<rect x="246" y="87" width="93" height="93" rx="8" fill="#448DCC"/>
<path d="M271.176 197L272.608 188.273H273.46L272.028 197H271.176ZM267.205 194.58L267.341 193.727H273.852L273.716 194.58H267.205ZM268.108 197L269.54 188.273H270.392L268.96 197H268.108ZM267.716 191.545L267.852 190.693H274.364L274.227 191.545H267.716ZM275.269 195.21V194.341L279.104 188.273H279.735V189.619H279.309L276.411 194.205V194.273H281.576V195.21H275.269ZM279.377 197V194.946V194.541V188.273H280.383V197H279.377ZM282.968 195.21V194.341L286.804 188.273H287.434V189.619H287.008L284.11 194.205V194.273H289.275V195.21H282.968ZM287.076 197V194.946V194.541V188.273H288.082V197H287.076ZM293.668 197.119C293.082 197.119 292.565 197.016 292.116 196.808C291.67 196.598 291.322 196.31 291.072 195.943C290.822 195.574 290.699 195.153 290.702 194.682C290.699 194.312 290.771 193.972 290.919 193.659C291.067 193.344 291.268 193.081 291.524 192.871C291.783 192.658 292.071 192.523 292.389 192.466V192.415C291.972 192.307 291.639 192.072 291.392 191.712C291.145 191.348 291.023 190.935 291.026 190.472C291.023 190.028 291.135 189.632 291.362 189.283C291.589 188.933 291.902 188.658 292.3 188.456C292.7 188.254 293.156 188.153 293.668 188.153C294.173 188.153 294.625 188.254 295.023 188.456C295.42 188.658 295.733 188.933 295.96 189.283C296.19 189.632 296.307 190.028 296.31 190.472C296.307 190.935 296.18 191.348 295.93 191.712C295.683 192.072 295.355 192.307 294.946 192.415V192.466C295.261 192.523 295.545 192.658 295.798 192.871C296.051 193.081 296.253 193.344 296.403 193.659C296.554 193.972 296.631 194.312 296.634 194.682C296.631 195.153 296.503 195.574 296.25 195.943C296 196.31 295.652 196.598 295.206 196.808C294.763 197.016 294.25 197.119 293.668 197.119ZM293.668 196.182C294.063 196.182 294.403 196.118 294.69 195.99C294.977 195.862 295.199 195.682 295.355 195.449C295.511 195.216 295.591 194.943 295.594 194.631C295.591 194.301 295.506 194.01 295.338 193.757C295.17 193.504 294.942 193.305 294.652 193.161C294.365 193.016 294.037 192.943 293.668 192.943C293.295 192.943 292.963 193.016 292.67 193.161C292.381 193.305 292.152 193.504 291.984 193.757C291.82 194.01 291.739 194.301 291.741 194.631C291.739 194.943 291.814 195.216 291.967 195.449C292.124 195.682 292.347 195.862 292.636 195.99C292.926 196.118 293.27 196.182 293.668 196.182ZM293.668 192.04C293.98 192.04 294.257 191.977 294.499 191.852C294.743 191.727 294.935 191.553 295.074 191.328C295.213 191.104 295.284 190.841 295.287 190.54C295.284 190.244 295.214 189.987 295.078 189.768C294.942 189.547 294.753 189.376 294.511 189.257C294.27 189.135 293.989 189.074 293.668 189.074C293.341 189.074 293.055 189.135 292.811 189.257C292.567 189.376 292.378 189.547 292.244 189.768C292.111 189.987 292.045 190.244 292.048 190.54C292.045 190.841 292.112 191.104 292.249 191.328C292.388 191.553 292.58 191.727 292.824 191.852C293.068 191.977 293.349 192.04 293.668 192.04ZM301.113 197H298.42V188.273H301.233C302.079 188.273 302.804 188.447 303.406 188.797C304.008 189.143 304.47 189.642 304.791 190.293C305.112 190.94 305.272 191.716 305.272 192.619C305.272 193.528 305.11 194.311 304.787 194.967C304.463 195.621 303.991 196.124 303.372 196.476C302.752 196.825 302 197 301.113 197ZM299.477 196.062H301.045C301.767 196.062 302.365 195.923 302.839 195.645C303.314 195.366 303.667 194.97 303.9 194.456C304.133 193.942 304.25 193.33 304.25 192.619C304.25 191.915 304.135 191.308 303.904 190.8C303.674 190.288 303.331 189.896 302.873 189.624C302.416 189.348 301.846 189.21 301.164 189.21H299.477V196.062ZM314.068 191H313.011C312.949 190.696 312.839 190.429 312.683 190.199C312.529 189.969 312.342 189.776 312.12 189.619C311.902 189.46 311.659 189.341 311.392 189.261C311.125 189.182 310.846 189.142 310.556 189.142C310.028 189.142 309.549 189.276 309.12 189.543C308.694 189.81 308.355 190.203 308.102 190.723C307.852 191.243 307.727 191.881 307.727 192.636C307.727 193.392 307.852 194.03 308.102 194.55C308.355 195.07 308.694 195.463 309.12 195.73C309.549 195.997 310.028 196.131 310.556 196.131C310.846 196.131 311.125 196.091 311.392 196.011C311.659 195.932 311.902 195.814 312.12 195.658C312.342 195.499 312.529 195.304 312.683 195.074C312.839 194.841 312.949 194.574 313.011 194.273H314.068C313.988 194.719 313.843 195.118 313.633 195.47C313.423 195.822 313.162 196.122 312.849 196.369C312.537 196.614 312.186 196.8 311.797 196.928C311.41 197.055 310.997 197.119 310.556 197.119C309.812 197.119 309.15 196.938 308.571 196.574C307.991 196.21 307.535 195.693 307.203 195.023C306.87 194.352 306.704 193.557 306.704 192.636C306.704 191.716 306.87 190.92 307.203 190.25C307.535 189.58 307.991 189.062 308.571 188.699C309.15 188.335 309.812 188.153 310.556 188.153C310.997 188.153 311.41 188.217 311.797 188.345C312.186 188.473 312.537 188.661 312.849 188.908C313.162 189.152 313.423 189.45 313.633 189.803C313.843 190.152 313.988 190.551 314.068 191ZM322.798 191H321.741C321.679 190.696 321.57 190.429 321.413 190.199C321.26 189.969 321.072 189.776 320.851 189.619C320.632 189.46 320.389 189.341 320.122 189.261C319.855 189.182 319.577 189.142 319.287 189.142C318.759 189.142 318.28 189.276 317.851 189.543C317.425 189.81 317.085 190.203 316.832 190.723C316.582 191.243 316.457 191.881 316.457 192.636C316.457 193.392 316.582 194.03 316.832 194.55C317.085 195.07 317.425 195.463 317.851 195.73C318.28 195.997 318.759 196.131 319.287 196.131C319.577 196.131 319.855 196.091 320.122 196.011C320.389 195.932 320.632 195.814 320.851 195.658C321.072 195.499 321.26 195.304 321.413 195.074C321.57 194.841 321.679 194.574 321.741 194.273H322.798C322.719 194.719 322.574 195.118 322.364 195.47C322.153 195.822 321.892 196.122 321.58 196.369C321.267 196.614 320.916 196.8 320.527 196.928C320.141 197.055 319.727 197.119 319.287 197.119C318.543 197.119 317.881 196.938 317.301 196.574C316.722 196.21 316.266 195.693 315.933 195.023C315.601 194.352 315.435 193.557 315.435 192.636C315.435 191.716 315.601 190.92 315.933 190.25C316.266 189.58 316.722 189.062 317.301 188.699C317.881 188.335 318.543 188.153 319.287 188.153C319.727 188.153 320.141 188.217 320.527 188.345C320.916 188.473 321.267 188.661 321.58 188.908C321.892 189.152 322.153 189.45 322.364 189.803C322.574 190.152 322.719 190.551 322.798 191Z" fill="black"/>
<rect x="369" y="87" width="93" height="93" rx="8" fill="#67CBFA"/>
<path d="M394.176 197L395.608 188.273H396.46L395.028 197H394.176ZM390.205 194.58L390.341 193.727H396.852L396.716 194.58H390.205ZM391.108 197L392.54 188.273H393.392L391.96 197H391.108ZM390.716 191.545L390.852 190.693H397.364L397.227 191.545H390.716ZM401.371 197.119C401.013 197.114 400.656 197.045 400.298 196.915C399.94 196.784 399.613 196.564 399.317 196.254C399.022 195.942 398.785 195.52 398.606 194.989C398.427 194.455 398.337 193.784 398.337 192.977C398.337 192.205 398.41 191.52 398.555 190.923C398.7 190.324 398.91 189.82 399.185 189.411C399.461 188.999 399.793 188.686 400.183 188.473C400.575 188.26 401.016 188.153 401.508 188.153C401.996 188.153 402.431 188.251 402.812 188.447C403.195 188.641 403.508 188.911 403.749 189.257C403.991 189.604 404.147 190.003 404.218 190.455H403.178C403.082 190.062 402.894 189.737 402.616 189.479C402.337 189.22 401.968 189.091 401.508 189.091C400.832 189.091 400.299 189.385 399.91 189.973C399.523 190.561 399.329 191.386 399.326 192.449H399.394C399.553 192.207 399.742 192.001 399.961 191.831C400.183 191.658 400.427 191.524 400.694 191.43C400.961 191.337 401.244 191.29 401.542 191.29C402.042 191.29 402.499 191.415 402.914 191.665C403.329 191.912 403.661 192.254 403.911 192.692C404.161 193.126 404.286 193.625 404.286 194.188C404.286 194.727 404.165 195.222 403.924 195.67C403.683 196.116 403.343 196.472 402.906 196.736C402.471 196.997 401.96 197.125 401.371 197.119ZM401.371 196.182C401.729 196.182 402.05 196.092 402.335 195.913C402.621 195.734 402.847 195.494 403.012 195.193C403.18 194.892 403.263 194.557 403.263 194.188C403.263 193.827 403.183 193.499 403.021 193.203C402.862 192.905 402.641 192.668 402.36 192.491C402.082 192.315 401.763 192.227 401.406 192.227C401.136 192.227 400.884 192.281 400.651 192.389C400.418 192.494 400.214 192.639 400.038 192.824C399.864 193.009 399.728 193.22 399.629 193.459C399.529 193.695 399.479 193.943 399.479 194.205C399.479 194.551 399.56 194.875 399.722 195.176C399.887 195.477 400.112 195.72 400.396 195.905C400.683 196.089 401.008 196.182 401.371 196.182ZM406.235 197L410.138 189.278V189.21H405.638V188.273H411.229V189.261L407.343 197H406.235ZM419.994 191H418.937C418.874 190.696 418.765 190.429 418.609 190.199C418.455 189.969 418.268 189.776 418.046 189.619C417.827 189.46 417.585 189.341 417.317 189.261C417.05 189.182 416.772 189.142 416.482 189.142C415.954 189.142 415.475 189.276 415.046 189.543C414.62 189.81 414.281 190.203 414.028 190.723C413.778 191.243 413.653 191.881 413.653 192.636C413.653 193.392 413.778 194.03 414.028 194.55C414.281 195.07 414.62 195.463 415.046 195.73C415.475 195.997 415.954 196.131 416.482 196.131C416.772 196.131 417.05 196.091 417.317 196.011C417.585 195.932 417.827 195.814 418.046 195.658C418.268 195.499 418.455 195.304 418.609 195.074C418.765 194.841 418.874 194.574 418.937 194.273H419.994C419.914 194.719 419.769 195.118 419.559 195.47C419.349 195.822 419.087 196.122 418.775 196.369C418.462 196.614 418.112 196.8 417.722 196.928C417.336 197.055 416.923 197.119 416.482 197.119C415.738 197.119 415.076 196.938 414.496 196.574C413.917 196.21 413.461 195.693 413.129 195.023C412.796 194.352 412.63 193.557 412.63 192.636C412.63 191.716 412.796 190.92 413.129 190.25C413.461 189.58 413.917 189.062 414.496 188.699C415.076 188.335 415.738 188.153 416.482 188.153C416.923 188.153 417.336 188.217 417.722 188.345C418.112 188.473 418.462 188.661 418.775 188.908C419.087 189.152 419.349 189.45 419.559 189.803C419.769 190.152 419.914 190.551 419.994 191ZM421.701 197V188.273H424.752C425.36 188.273 425.862 188.378 426.257 188.588C426.652 188.795 426.946 189.075 427.139 189.428C427.332 189.777 427.429 190.165 427.429 190.591C427.429 190.966 427.362 191.276 427.228 191.52C427.098 191.764 426.924 191.957 426.708 192.099C426.495 192.241 426.264 192.347 426.014 192.415V192.5C426.281 192.517 426.549 192.611 426.819 192.781C427.089 192.952 427.315 193.196 427.497 193.514C427.679 193.832 427.77 194.222 427.77 194.682C427.77 195.119 427.67 195.513 427.471 195.862C427.272 196.212 426.958 196.489 426.529 196.693C426.1 196.898 425.542 197 424.855 197H421.701ZM422.758 196.062H424.855C425.545 196.062 426.035 195.929 426.325 195.662C426.618 195.392 426.764 195.065 426.764 194.682C426.764 194.386 426.689 194.114 426.538 193.864C426.387 193.611 426.173 193.409 425.895 193.259C425.616 193.105 425.287 193.028 424.906 193.028H422.758V196.062ZM422.758 192.108H424.718C425.037 192.108 425.324 192.045 425.579 191.92C425.838 191.795 426.042 191.619 426.193 191.392C426.346 191.165 426.423 190.898 426.423 190.591C426.423 190.207 426.289 189.882 426.022 189.615C425.755 189.345 425.332 189.21 424.752 189.21H422.758V192.108ZM429.506 197V188.273H434.739V189.21H430.563V192.159H434.347V193.097H430.563V197H429.506ZM435.817 197H434.709L437.914 188.273H439.005L442.209 197H441.101L438.493 189.653H438.425L435.817 197ZM436.226 193.591H440.692V194.528H436.226V193.591Z" fill="black"/>
<rect x="492" y="87" width="93" height="93" rx="8" fill="#8EF2F5"/>
<path d="M517.176 197L518.608 188.273H519.46L518.028 197H517.176ZM513.205 194.58L513.341 193.727H519.852L519.716 194.58H513.205ZM514.108 197L515.54 188.273H516.392L514.96 197H514.108ZM513.716 191.545L513.852 190.693H520.364L520.227 191.545H513.716ZM524.269 197.119C523.684 197.119 523.167 197.016 522.718 196.808C522.272 196.598 521.924 196.31 521.674 195.943C521.424 195.574 521.3 195.153 521.303 194.682C521.3 194.312 521.373 193.972 521.521 193.659C521.668 193.344 521.87 193.081 522.126 192.871C522.384 192.658 522.673 192.523 522.991 192.466V192.415C522.573 192.307 522.241 192.072 521.994 191.712C521.746 191.348 521.624 190.935 521.627 190.472C521.624 190.028 521.737 189.632 521.964 189.283C522.191 188.933 522.504 188.658 522.901 188.456C523.302 188.254 523.758 188.153 524.269 188.153C524.775 188.153 525.227 188.254 525.624 188.456C526.022 188.658 526.335 188.933 526.562 189.283C526.792 189.632 526.908 190.028 526.911 190.472C526.908 190.935 526.782 191.348 526.532 191.712C526.285 192.072 525.957 192.307 525.548 192.415V192.466C525.863 192.523 526.147 192.658 526.4 192.871C526.653 193.081 526.854 193.344 527.005 193.659C527.156 193.972 527.232 194.312 527.235 194.682C527.232 195.153 527.104 195.574 526.852 195.943C526.602 196.31 526.254 196.598 525.808 196.808C525.364 197.016 524.852 197.119 524.269 197.119ZM524.269 196.182C524.664 196.182 525.005 196.118 525.292 195.99C525.579 195.862 525.8 195.682 525.957 195.449C526.113 195.216 526.192 194.943 526.195 194.631C526.192 194.301 526.107 194.01 525.94 193.757C525.772 193.504 525.543 193.305 525.254 193.161C524.967 193.016 524.638 192.943 524.269 192.943C523.897 192.943 523.565 193.016 523.272 193.161C522.982 193.305 522.754 193.504 522.586 193.757C522.421 194.01 522.34 194.301 522.343 194.631C522.34 194.943 522.415 195.216 522.569 195.449C522.725 195.682 522.948 195.862 523.238 195.99C523.528 196.118 523.871 196.182 524.269 196.182ZM524.269 192.04C524.582 192.04 524.859 191.977 525.1 191.852C525.344 191.727 525.536 191.553 525.675 191.328C525.815 191.104 525.886 190.841 525.888 190.54C525.886 190.244 525.816 189.987 525.68 189.768C525.543 189.547 525.354 189.376 525.113 189.257C524.871 189.135 524.59 189.074 524.269 189.074C523.942 189.074 523.657 189.135 523.413 189.257C523.168 189.376 522.979 189.547 522.846 189.768C522.712 189.987 522.647 190.244 522.65 190.54C522.647 190.841 522.714 191.104 522.85 191.328C522.989 191.553 523.181 191.727 523.425 191.852C523.67 191.977 523.951 192.04 524.269 192.04ZM529.022 197V188.273H534.289V189.21H530.078V192.159H534.016V193.097H530.078V196.062H534.357V197H529.022ZM536.194 197V188.273H541.426V189.21H537.25V192.159H541.034V193.097H537.25V197H536.194ZM543.083 197V196.233L545.964 193.08C546.302 192.71 546.58 192.389 546.799 192.116C547.018 191.841 547.18 191.582 547.285 191.341C547.393 191.097 547.447 190.841 547.447 190.574C547.447 190.267 547.373 190.001 547.225 189.777C547.08 189.553 546.881 189.379 546.629 189.257C546.376 189.135 546.092 189.074 545.776 189.074C545.441 189.074 545.148 189.143 544.898 189.283C544.651 189.419 544.46 189.611 544.323 189.858C544.19 190.105 544.123 190.395 544.123 190.727H543.117C543.117 190.216 543.235 189.767 543.471 189.381C543.707 188.994 544.028 188.693 544.434 188.477C544.843 188.261 545.302 188.153 545.81 188.153C546.322 188.153 546.775 188.261 547.17 188.477C547.565 188.693 547.874 188.984 548.099 189.351C548.323 189.717 548.435 190.125 548.435 190.574C548.435 190.895 548.377 191.209 548.261 191.516C548.147 191.82 547.948 192.159 547.664 192.534C547.383 192.906 546.992 193.361 546.492 193.898L544.532 195.994V196.062H548.589V197H543.083ZM550.502 197V188.273H555.735V189.21H551.559V192.159H555.343V193.097H551.559V197H550.502ZM560.119 197.119C559.619 197.119 559.169 197.02 558.768 196.821C558.368 196.622 558.047 196.349 557.805 196.003C557.564 195.656 557.431 195.261 557.409 194.818H558.431C558.471 195.213 558.65 195.54 558.968 195.798C559.289 196.054 559.673 196.182 560.119 196.182C560.477 196.182 560.795 196.098 561.074 195.93C561.355 195.763 561.575 195.533 561.734 195.24C561.896 194.945 561.977 194.611 561.977 194.239C561.977 193.858 561.893 193.518 561.725 193.22C561.561 192.919 561.333 192.682 561.044 192.509C560.754 192.335 560.423 192.247 560.051 192.244C559.784 192.241 559.51 192.283 559.228 192.368C558.947 192.45 558.716 192.557 558.534 192.688L557.545 192.568L558.074 188.273H562.608V189.21H558.96L558.653 191.784H558.704C558.883 191.642 559.108 191.524 559.377 191.43C559.647 191.337 559.929 191.29 560.221 191.29C560.755 191.29 561.231 191.418 561.649 191.673C562.069 191.926 562.399 192.273 562.637 192.713C562.879 193.153 563 193.656 563 194.222C563 194.778 562.875 195.276 562.625 195.713C562.377 196.148 562.037 196.491 561.602 196.744C561.167 196.994 560.673 197.119 560.119 197.119Z" fill="black"/>
<rect x="615" y="87" width="93" height="93" rx="8" fill="#E0E0E0"/>
<path d="M640.176 197L641.608 188.273H642.46L641.028 197H640.176ZM636.205 194.58L636.341 193.727H642.852L642.716 194.58H636.205ZM637.108 197L638.54 188.273H639.392L637.96 197H637.108ZM636.716 191.545L636.852 190.693H643.364L643.227 191.545H636.716ZM644.627 197V188.273H649.894V189.21H645.684V192.159H649.621V193.097H645.684V196.062H649.962V197H644.627ZM654.492 197.119C653.85 197.119 653.303 196.945 652.852 196.595C652.4 196.243 652.055 195.733 651.816 195.065C651.577 194.395 651.458 193.585 651.458 192.636C651.458 191.693 651.577 190.888 651.816 190.22C652.058 189.55 652.404 189.038 652.856 188.686C653.31 188.331 653.856 188.153 654.492 188.153C655.129 188.153 655.673 188.331 656.124 188.686C656.579 189.038 656.925 189.55 657.164 190.22C657.406 190.888 657.526 191.693 657.526 192.636C657.526 193.585 657.407 194.395 657.168 195.065C656.93 195.733 656.585 196.243 656.133 196.595C655.681 196.945 655.134 197.119 654.492 197.119ZM654.492 196.182C655.129 196.182 655.623 195.875 655.975 195.261C656.327 194.648 656.504 193.773 656.504 192.636C656.504 191.881 656.423 191.237 656.261 190.706C656.102 190.175 655.871 189.77 655.57 189.491C655.272 189.213 654.913 189.074 654.492 189.074C653.862 189.074 653.369 189.385 653.013 190.007C652.658 190.626 652.481 191.503 652.481 192.636C652.481 193.392 652.56 194.034 652.719 194.562C652.879 195.091 653.107 195.493 653.406 195.768C653.707 196.044 654.069 196.182 654.492 196.182ZM659.299 197V188.273H664.566V189.21H660.356V192.159H664.293V193.097H660.356V196.062H664.634V197H659.299ZM669.164 197.119C668.522 197.119 667.975 196.945 667.523 196.595C667.072 196.243 666.727 195.733 666.488 195.065C666.249 194.395 666.13 193.585 666.13 192.636C666.13 191.693 666.249 190.888 666.488 190.22C666.729 189.55 667.076 189.038 667.528 188.686C667.982 188.331 668.528 188.153 669.164 188.153C669.8 188.153 670.344 188.331 670.796 188.686C671.251 189.038 671.597 189.55 671.836 190.22C672.077 190.888 672.198 191.693 672.198 192.636C672.198 193.585 672.079 194.395 671.84 195.065C671.602 195.733 671.256 196.243 670.805 196.595C670.353 196.945 669.806 197.119 669.164 197.119ZM669.164 196.182C669.8 196.182 670.295 195.875 670.647 195.261C670.999 194.648 671.175 193.773 671.175 192.636C671.175 191.881 671.094 191.237 670.933 190.706C670.773 190.175 670.543 189.77 670.242 189.491C669.944 189.213 669.585 189.074 669.164 189.074C668.533 189.074 668.04 189.385 667.685 190.007C667.33 190.626 667.153 191.503 667.153 192.636C667.153 193.392 667.232 194.034 667.391 194.562C667.55 195.091 667.779 195.493 668.077 195.768C668.379 196.044 668.741 196.182 669.164 196.182ZM673.971 197V188.273H679.238V189.21H675.028V192.159H678.965V193.097H675.028V196.062H679.306V197H673.971ZM683.836 197.119C683.194 197.119 682.647 196.945 682.195 196.595C681.744 196.243 681.398 195.733 681.16 195.065C680.921 194.395 680.802 193.585 680.802 192.636C680.802 191.693 680.921 190.888 681.16 190.22C681.401 189.55 681.748 189.038 682.2 188.686C682.654 188.331 683.2 188.153 683.836 188.153C684.472 188.153 685.016 188.331 685.468 188.686C685.923 189.038 686.269 189.55 686.508 190.22C686.749 190.888 686.87 191.693 686.87 192.636C686.87 193.585 686.751 194.395 686.512 195.065C686.273 195.733 685.928 196.243 685.477 196.595C685.025 196.945 684.478 197.119 683.836 197.119ZM683.836 196.182C684.472 196.182 684.967 195.875 685.319 195.261C685.671 194.648 685.847 193.773 685.847 192.636C685.847 191.881 685.766 191.237 685.604 190.706C685.445 190.175 685.215 189.77 684.914 189.491C684.616 189.213 684.256 189.074 683.836 189.074C683.205 189.074 682.712 189.385 682.357 190.007C682.002 190.626 681.825 191.503 681.825 192.636C681.825 193.392 681.904 194.034 682.063 194.562C682.222 195.091 682.451 195.493 682.749 195.768C683.05 196.044 683.413 196.182 683.836 196.182Z" fill="black"/>
</svg>
