<svg width="339" height="192" viewBox="0 0 339 192" fill="none" xmlns="http://www.w3.org/2000/svg">
<path d="M8.064 153V49.32H48.128V59.688H22.528V94.248H42.368V104.488H22.528V153H8.064ZM57.808 153V79.016H71.504V153H57.808ZM57.808 68.008V53.672H71.504V68.008H57.808ZM103.314 154.024C97.2553 154.024 92.3913 152.147 88.722 148.392C85.0527 144.552 82.962 139.517 82.45 133.288L93.842 129.832C94.5247 134.525 95.6767 138.067 97.298 140.456C98.9193 142.76 101.309 143.912 104.466 143.912C106.941 143.912 108.818 143.229 110.098 141.864C111.378 140.413 112.018 138.493 112.018 136.104C112.018 133.971 111.549 132.051 110.61 130.344C109.671 128.637 108.135 126.888 106.002 125.096L93.33 114.216C90.77 111.997 88.594 109.523 86.802 106.792C85.0953 104.061 84.242 100.52 84.242 96.168C84.242 92.2427 85.01 88.9573 86.546 86.312C88.1673 83.5813 90.386 81.5333 93.202 80.168C96.1033 78.7173 99.474 77.992 103.314 77.992C109.202 77.992 113.682 79.912 116.754 83.752C119.911 87.5067 121.703 92.072 122.13 97.448L112.914 100.904C112.573 98.344 112.061 96.1253 111.378 94.248C110.695 92.2853 109.757 90.792 108.562 89.768C107.367 88.6587 105.789 88.104 103.826 88.104C101.607 88.104 99.8153 88.872 98.45 90.408C97.17 91.8587 96.53 93.608 96.53 95.656C96.53 96.936 96.786 98.216 97.298 99.496C97.8953 100.691 98.8767 101.885 100.242 103.08L113.298 115.112C115.09 116.733 116.754 118.483 118.29 120.36C119.911 122.237 121.234 124.371 122.258 126.76C123.282 129.149 123.794 131.923 123.794 135.08C123.794 139.261 122.941 142.76 121.234 145.576C119.527 148.392 117.138 150.525 114.066 151.976C110.994 153.341 107.41 154.024 103.314 154.024ZM134.933 153V79.016H148.629V153H134.933ZM134.933 68.008V53.672H148.629V68.008H134.933ZM183.639 154.024C178.178 154.024 173.868 152.915 170.711 150.696C167.554 148.477 165.292 145.32 163.927 141.224C162.647 137.128 162.007 132.307 162.007 126.76V105.256C162.007 99.7093 162.647 94.888 163.927 90.792C165.292 86.696 167.554 83.5387 170.711 81.32C173.868 79.1013 178.178 77.992 183.639 77.992C189.1 77.992 193.367 79.1013 196.439 81.32C199.596 83.5387 201.815 86.696 203.095 90.792C204.46 94.888 205.143 99.7093 205.143 105.256V126.76C205.143 132.307 204.46 137.128 203.095 141.224C201.815 145.32 199.596 148.477 196.439 150.696C193.367 152.915 189.1 154.024 183.639 154.024ZM183.639 143.912C186.284 143.912 188.119 143.144 189.143 141.608C190.252 140.072 190.892 138.067 191.063 135.592C191.319 133.032 191.447 130.387 191.447 127.656V104.488C191.447 101.672 191.319 99.0267 191.063 96.552C190.892 94.0773 190.252 92.072 189.143 90.536C188.119 88.9147 186.284 88.104 183.639 88.104C180.994 88.104 179.116 88.9147 178.007 90.536C176.898 92.072 176.215 94.0773 175.959 96.552C175.788 99.0267 175.703 101.672 175.703 104.488V127.656C175.703 130.387 175.788 133.032 175.959 135.592C176.215 138.067 176.898 140.072 178.007 141.608C179.116 143.144 180.994 143.912 183.639 143.912Z" fill="black"/>
<path d="M8.064 153H7.564V153.5H8.064V153ZM8.064 49.32V48.82H7.564V49.32H8.064ZM48.128 49.32H48.628V48.82H48.128V49.32ZM48.128 59.688V60.188H48.628V59.688H48.128ZM22.528 59.688V59.188H22.028V59.688H22.528ZM22.528 94.248H22.028V94.748H22.528V94.248ZM42.368 94.248H42.868V93.748H42.368V94.248ZM42.368 104.488V104.988H42.868V104.488H42.368ZM22.528 104.488V103.988H22.028V104.488H22.528ZM22.528 153V153.5H23.028V153H22.528ZM8.564 153V49.32H7.564V153H8.564ZM8.064 49.82H48.128V48.82H8.064V49.82ZM47.628 49.32V59.688H48.628V49.32H47.628ZM48.128 59.188H22.528V60.188H48.128V59.188ZM22.028 59.688V94.248H23.028V59.688H22.028ZM22.528 94.748H42.368V93.748H22.528V94.748ZM41.868 94.248V104.488H42.868V94.248H41.868ZM42.368 103.988H22.528V104.988H42.368V103.988ZM22.028 104.488V153H23.028V104.488H22.028ZM22.528 152.5H8.064V153.5H22.528V152.5ZM57.808 153H57.308V153.5H57.808V153ZM57.808 79.016V78.516H57.308V79.016H57.808ZM71.504 79.016H72.004V78.516H71.504V79.016ZM71.504 153V153.5H72.004V153H71.504ZM57.808 68.008H57.308V68.508H57.808V68.008ZM57.808 53.672V53.172H57.308V53.672H57.808ZM71.504 53.672H72.004V53.172H71.504V53.672ZM71.504 68.008V68.508H72.004V68.008H71.504ZM58.308 153V79.016H57.308V153H58.308ZM57.808 79.516H71.504V78.516H57.808V79.516ZM71.004 79.016V153H72.004V79.016H71.004ZM71.504 152.5H57.808V153.5H71.504V152.5ZM58.308 68.008V53.672H57.308V68.008H58.308ZM57.808 54.172H71.504V53.172H57.808V54.172ZM71.004 53.672V68.008H72.004V53.672H71.004ZM71.504 67.508H57.808V68.508H71.504V67.508ZM88.722 148.392L88.3605 148.737L88.3644 148.741L88.722 148.392ZM82.45 133.288L82.3048 132.81L81.9186 132.927L81.9517 133.329L82.45 133.288ZM93.842 129.832L94.3368 129.76L94.2531 129.185L93.6968 129.354L93.842 129.832ZM97.298 140.456L96.8842 140.737L96.8891 140.744L97.298 140.456ZM110.098 141.864L110.463 142.206L110.468 142.2L110.473 142.195L110.098 141.864ZM110.61 130.344L110.172 130.585L110.172 130.585L110.61 130.344ZM106.002 125.096L105.676 125.475L105.68 125.479L106.002 125.096ZM93.33 114.216L93.0025 114.594L93.0043 114.595L93.33 114.216ZM86.802 106.792L86.3779 107.057L86.384 107.066L86.802 106.792ZM86.546 86.312L86.1161 86.0567L86.1136 86.0609L86.546 86.312ZM93.202 80.168L93.4202 80.6179L93.4256 80.6152L93.202 80.168ZM116.754 83.752L116.363 84.0644L116.371 84.0738L116.754 83.752ZM122.13 97.448L122.306 97.9162L122.658 97.7839L122.628 97.4084L122.13 97.448ZM112.914 100.904L112.418 100.97L112.501 101.593L113.09 101.372L112.914 100.904ZM111.378 94.248L110.906 94.4123L110.908 94.4189L111.378 94.248ZM108.562 89.768L108.222 90.1344L108.229 90.1412L108.237 90.1476L108.562 89.768ZM98.45 90.408L98.0763 90.0758L98.0751 90.0772L98.45 90.408ZM97.298 99.496L96.8338 99.6817L96.8415 99.701L96.8508 99.7196L97.298 99.496ZM100.242 103.08L100.581 102.712L100.571 102.704L100.242 103.08ZM113.298 115.112L112.959 115.48L112.963 115.483L113.298 115.112ZM118.29 120.36L117.903 120.677L117.912 120.687L118.29 120.36ZM122.258 126.76L122.718 126.563L122.718 126.563L122.258 126.76ZM121.234 145.576L120.806 145.317L120.806 145.317L121.234 145.576ZM114.066 151.976L114.269 152.433L114.28 152.428L114.066 151.976ZM103.314 153.524C97.3674 153.524 92.6402 151.686 89.0796 148.043L88.3644 148.741C92.1425 152.607 97.1433 154.524 103.314 154.524V153.524ZM89.0835 148.047C85.5068 144.303 83.4527 139.383 82.9483 133.247L81.9517 133.329C82.4713 139.651 84.5986 144.801 88.3605 148.737L89.0835 148.047ZM82.5952 133.766L93.9872 130.31L93.6968 129.354L82.3048 132.81L82.5952 133.766ZM93.3472 129.904C94.0346 134.63 95.2016 138.257 96.8843 140.737L97.7117 140.175C96.1517 137.876 95.0147 134.421 94.3368 129.76L93.3472 129.904ZM96.8891 140.744C98.6165 143.198 101.169 144.412 104.466 144.412V143.412C101.449 143.412 99.2222 142.322 97.7069 140.168L96.8891 140.744ZM104.466 144.412C107.032 144.412 109.06 143.702 110.463 142.206L109.733 141.522C108.576 142.757 106.849 143.412 104.466 143.412V144.412ZM110.473 142.195C111.851 140.633 112.518 138.585 112.518 136.104H111.518C111.518 138.401 110.905 140.194 109.723 141.533L110.473 142.195ZM112.518 136.104C112.518 133.895 112.031 131.89 111.048 130.103L110.172 130.585C111.066 132.211 111.518 134.047 111.518 136.104H112.518ZM111.048 130.103C110.07 128.324 108.486 126.529 106.324 124.713L105.68 125.479C107.785 127.247 109.273 128.95 110.172 130.585L111.048 130.103ZM106.328 124.717L93.6557 113.837L93.0043 114.595L105.676 125.475L106.328 124.717ZM93.6575 113.838C91.131 111.649 88.9858 109.208 87.22 106.518L86.384 107.066C88.2022 109.837 90.409 112.346 93.0025 114.594L93.6575 113.838ZM87.226 106.527C85.5836 103.899 84.742 100.458 84.742 96.168H83.742C83.742 100.582 84.6071 104.224 86.378 107.057L87.226 106.527ZM84.742 96.168C84.742 92.3064 85.4975 89.1134 86.9784 86.5631L86.1136 86.0609C84.5225 88.8012 83.742 92.179 83.742 96.168H84.742ZM86.9759 86.5673C88.548 83.9195 90.6936 81.9398 93.4201 80.6179L92.9839 79.7181C90.0784 81.1268 87.7866 83.2432 86.1161 86.0567L86.9759 86.5673ZM93.4256 80.6152C96.2459 79.2051 99.5374 78.492 103.314 78.492V77.492C99.4106 77.492 95.9608 78.2296 92.9784 79.7208L93.4256 80.6152ZM103.314 78.492C109.083 78.492 113.405 80.3667 116.364 84.0643L117.144 83.4397C113.959 79.4573 109.321 77.492 103.314 77.492V78.492ZM116.371 84.0738C119.455 87.7408 121.212 92.2046 121.632 97.4876L122.628 97.4084C122.194 91.9394 120.368 87.2725 117.137 83.4302L116.371 84.0738ZM121.954 96.9798L112.738 100.436L113.09 101.372L122.306 97.9162L121.954 96.9798ZM113.41 100.838C113.065 98.252 112.546 95.9965 111.848 94.0771L110.908 94.4189C111.575 96.2541 112.081 98.436 112.418 100.97L113.41 100.838ZM111.85 94.0837C111.148 92.0636 110.167 90.4855 108.887 89.3884L108.237 90.1476C109.346 91.0985 110.243 92.5071 110.906 94.4123L111.85 94.0837ZM108.902 89.4016C107.597 88.1895 105.888 87.604 103.826 87.604V88.604C105.69 88.604 107.138 89.1278 108.222 90.1344L108.902 89.4016ZM103.826 87.604C101.477 87.604 99.5447 88.4239 98.0763 90.0758L98.8237 90.7402C100.086 89.3201 101.737 88.604 103.826 88.604V87.604ZM98.0751 90.0772C96.7095 91.6249 96.03 93.4939 96.03 95.656H97.03C97.03 93.722 97.6305 92.0925 98.8249 90.7388L98.0751 90.0772ZM96.03 95.656C96.03 97.0044 96.3 98.3472 96.8338 99.6817L97.7622 99.3103C97.272 98.0848 97.03 96.8676 97.03 95.656H96.03ZM96.8508 99.7196C97.4855 100.989 98.515 102.233 99.9127 103.456L100.571 102.704C99.2384 101.537 98.3051 100.392 97.7452 99.2724L96.8508 99.7196ZM99.9032 103.448L112.959 115.48L113.637 114.744L100.581 102.712L99.9032 103.448ZM112.963 115.483C114.736 117.087 116.383 118.819 117.903 120.677L118.677 120.043C117.125 118.147 115.444 116.379 113.633 114.741L112.963 115.483ZM117.912 120.687C119.498 122.523 120.794 124.613 121.798 126.957L122.718 126.563C121.674 124.129 120.325 121.951 118.668 120.033L117.912 120.687ZM121.798 126.957C122.791 129.272 123.294 131.976 123.294 135.08H124.294C124.294 131.869 123.773 129.026 122.718 126.563L121.798 126.957ZM123.294 135.08C123.294 139.194 122.455 142.597 120.806 145.317L121.662 145.835C123.427 142.923 124.294 139.328 124.294 135.08H123.294ZM120.806 145.317C119.152 148.046 116.839 150.114 113.852 151.524L114.28 152.428C117.437 150.937 119.902 148.738 121.662 145.835L120.806 145.317ZM113.863 151.519C110.867 152.851 107.355 153.524 103.314 153.524V154.524C107.465 154.524 111.121 153.832 114.269 152.433L113.863 151.519ZM134.933 153H134.433V153.5H134.933V153ZM134.933 79.016V78.516H134.433V79.016H134.933ZM148.629 79.016H149.129V78.516H148.629V79.016ZM148.629 153V153.5H149.129V153H148.629ZM134.933 68.008H134.433V68.508H134.933V68.008ZM134.933 53.672V53.172H134.433V53.672H134.933ZM148.629 53.672H149.129V53.172H148.629V53.672ZM148.629 68.008V68.508H149.129V68.008H148.629ZM135.433 153V79.016H134.433V153H135.433ZM134.933 79.516H148.629V78.516H134.933V79.516ZM148.129 79.016V153H149.129V79.016H148.129ZM148.629 152.5H134.933V153.5H148.629V152.5ZM135.433 68.008V53.672H134.433V68.008H135.433ZM134.933 54.172H148.629V53.172H134.933V54.172ZM148.129 53.672V68.008H149.129V53.672H148.129ZM148.629 67.508H134.933V68.508H148.629V67.508ZM170.711 150.696L170.424 151.105L170.424 151.105L170.711 150.696ZM163.927 141.224L163.45 141.373L163.453 141.382L163.927 141.224ZM163.927 90.792L163.453 90.6339L163.45 90.6429L163.927 90.792ZM170.711 81.32L170.998 81.7291L170.998 81.7291L170.711 81.32ZM196.439 81.32L196.146 81.7254L196.152 81.7291L196.439 81.32ZM203.095 90.792L202.618 90.9412L202.621 90.9501L203.095 90.792ZM203.095 141.224L202.621 141.066L202.618 141.075L203.095 141.224ZM196.439 150.696L196.152 150.287L196.146 150.291L196.439 150.696ZM189.143 141.608L188.738 141.315L188.732 141.323L188.727 141.331L189.143 141.608ZM191.063 135.592L190.565 135.542L190.565 135.55L190.564 135.558L191.063 135.592ZM191.063 96.552L190.564 96.5864L190.565 96.5949L190.566 96.6034L191.063 96.552ZM189.143 90.536L188.72 90.803L188.729 90.8161L188.738 90.8287L189.143 90.536ZM178.007 90.536L178.412 90.8288L178.42 90.8183L178.007 90.536ZM175.959 96.552L175.462 96.5005L175.461 96.5091L175.46 96.5176L175.959 96.552ZM175.959 135.592L175.46 135.625L175.461 135.634L175.462 135.643L175.959 135.592ZM178.007 141.608L178.412 141.315L178.412 141.315L178.007 141.608ZM183.639 153.524C178.239 153.524 174.043 152.426 170.998 150.287L170.424 151.105C173.693 153.403 178.116 154.524 183.639 154.524V153.524ZM170.998 150.287C167.939 148.137 165.737 145.073 164.401 141.066L163.453 141.382C164.848 145.567 167.168 148.818 170.424 151.105L170.998 150.287ZM164.404 141.075C163.143 137.039 162.507 132.27 162.507 126.76H161.507C161.507 132.343 162.151 137.217 163.45 141.373L164.404 141.075ZM162.507 126.76V105.256H161.507V126.76H162.507ZM162.507 105.256C162.507 99.7459 163.143 94.9771 164.404 90.9411L163.45 90.6429C162.151 94.7989 161.507 99.6727 161.507 105.256H162.507ZM164.401 90.9501C165.737 86.943 167.939 83.879 170.998 81.7291L170.424 80.9109C167.168 83.1983 164.848 86.449 163.453 90.6339L164.401 90.9501ZM170.998 81.7291C174.043 79.5895 178.239 78.492 183.639 78.492V77.492C178.116 77.492 173.693 78.6131 170.424 80.9109L170.998 81.7291ZM183.639 78.492C189.04 78.492 193.19 79.59 196.146 81.7253L196.732 80.9147C193.544 78.6127 189.161 77.492 183.639 77.492V78.492ZM196.152 81.7291C199.209 83.8773 201.367 86.9379 202.618 90.9411L203.572 90.6429C202.263 86.4541 199.984 83.2 196.726 80.9109L196.152 81.7291ZM202.621 90.9501C203.965 94.983 204.643 99.7486 204.643 105.256H205.643C205.643 99.6701 204.956 94.793 203.569 90.6339L202.621 90.9501ZM204.643 105.256V126.76H205.643V105.256H204.643ZM204.643 126.76C204.643 132.267 203.965 137.033 202.621 141.066L203.569 141.382C204.956 137.223 205.643 132.346 205.643 126.76H204.643ZM202.618 141.075C201.367 145.078 199.209 148.139 196.152 150.287L196.726 151.105C199.984 148.816 202.263 145.562 203.572 141.373L202.618 141.075ZM196.146 150.291C193.19 152.426 189.04 153.524 183.639 153.524V154.524C189.161 154.524 193.544 153.403 196.732 151.101L196.146 150.291ZM183.639 144.412C186.373 144.412 188.406 143.615 189.559 141.885L188.727 141.331C187.832 142.673 186.195 143.412 183.639 143.412V144.412ZM189.548 141.901C190.727 140.269 191.387 138.166 191.562 135.626L190.564 135.558C190.398 137.967 189.778 139.875 188.738 141.315L189.548 141.901ZM191.561 135.642C191.818 133.064 191.947 130.402 191.947 127.656H190.947C190.947 130.371 190.82 133 190.565 135.542L191.561 135.642ZM191.947 127.656V104.488H190.947V127.656H191.947ZM191.947 104.488C191.947 101.657 191.818 98.9944 191.56 96.5005L190.566 96.6034C190.82 99.059 190.947 101.687 190.947 104.488H191.947ZM191.562 96.5176C191.387 93.978 190.727 91.875 189.548 90.2433L188.738 90.8287C189.778 92.269 190.398 94.1767 190.564 96.5864L191.562 96.5176ZM189.566 90.269C188.417 88.4507 186.384 87.604 183.639 87.604V88.604C186.185 88.604 187.821 89.3786 188.72 90.803L189.566 90.269ZM183.639 87.604C180.891 87.604 178.827 88.4514 177.594 90.2537L178.42 90.8183C179.405 89.378 181.096 88.604 183.639 88.604V87.604ZM177.602 90.2433C176.427 91.8691 175.724 93.9653 175.462 96.5005L176.456 96.6034C176.706 94.1894 177.368 92.2749 178.412 90.8287L177.602 90.2433ZM175.46 96.5176C175.289 99.0051 175.203 101.662 175.203 104.488H176.203C176.203 101.682 176.288 99.0482 176.458 96.5864L175.46 96.5176ZM175.203 104.488V127.656H176.203V104.488H175.203ZM175.203 127.656C175.203 130.397 175.289 133.054 175.46 135.625L176.458 135.559C176.288 133.01 176.203 130.376 176.203 127.656H175.203ZM175.462 135.643C175.724 138.179 176.427 140.275 177.602 141.901L178.412 141.315C177.368 139.869 176.706 137.955 176.456 135.541L175.462 135.643ZM177.602 141.901C178.839 143.614 180.901 144.412 183.639 144.412V143.412C181.086 143.412 179.394 142.674 178.412 141.315L177.602 141.901Z" fill="white"/>
<g clip-path="url(#clip0_1_176)">
<mask id="mask0_1_176" style="mask-type:luminance" maskUnits="userSpaceOnUse" x="215" y="29" width="124" height="125">
<path d="M339 29.5953H215.238V153.357H339V29.5953Z" fill="white"/>
</mask>
<g mask="url(#mask0_1_176)">
<mask id="mask1_1_176" style="mask-type:luminance" maskUnits="userSpaceOnUse" x="215" y="29" width="124" height="125">
<path d="M215.238 29.5953H338.949V153.307H215.238V29.5953Z" fill="white"/>
</mask>
<g mask="url(#mask1_1_176)">
<mask id="path-5-inside-1_1_176" fill="white">
<path fill-rule="evenodd" clip-rule="evenodd" d="M297.104 71.4403V40.6898C297.104 38.6127 296.648 36.8903 295.635 35.1172C294.622 33.3441 293.356 32.0776 291.582 31.0644C289.809 30.0512 288.087 29.5953 286.061 29.5953H268.127C266.101 29.5953 264.378 30.0512 262.605 31.0644C260.832 32.0776 259.565 33.3441 258.552 35.1172C257.539 36.8903 257.083 38.6127 257.083 40.6898V71.4403H226.333C224.256 71.4403 222.533 71.8962 220.76 72.9094C218.987 73.9226 217.72 75.1891 216.707 76.9622C215.694 78.7353 215.238 80.4577 215.238 82.4841V100.418C215.238 106.497 220.203 111.462 226.333 111.462H257.083V142.212C257.083 148.342 262.048 153.307 268.127 153.307H286.061C288.087 153.307 289.809 152.851 291.582 151.837C293.356 150.824 294.622 149.558 295.635 147.785C296.648 146.012 297.104 144.289 297.104 142.212V111.462H327.855C329.932 111.462 331.654 111.006 333.427 109.992C335.201 108.979 336.467 107.713 337.48 105.94C338.493 104.167 338.949 102.444 338.949 100.418V82.4841C338.949 80.4577 338.493 78.7353 337.48 76.9622C336.467 75.1891 335.201 73.9226 333.427 72.9094C331.654 71.8962 329.932 71.4403 327.855 71.4403H297.104ZM289.911 94.9464L289.86 94.9971C289.759 95.0477 289.708 95.0984 289.657 95.1997L277.094 107.713L264.277 94.9464H264.327C263.872 94.4905 263.568 94.0345 263.213 93.4773C262.554 92.2615 262.2 91.0963 262.2 89.6778C262.2 88.31 262.554 87.0942 263.213 85.8783C263.922 84.6625 264.834 83.8013 266.05 83.092C267.266 82.3828 268.431 82.0788 269.849 82.0788C271.268 82.0788 272.433 82.3828 273.649 83.092C274.865 83.8013 275.726 84.6625 276.435 85.8783C276.739 86.3849 276.942 86.7902 277.094 87.3475C277.246 86.7902 277.448 86.3849 277.752 85.8783C278.462 84.6625 279.323 83.8013 280.539 83.092C281.754 82.3828 282.97 82.0788 284.338 82.0788C285.757 82.0788 286.972 82.3828 288.188 83.092C289.404 83.8013 290.265 84.6625 290.975 85.8783C291.684 87.0942 291.988 88.31 291.988 89.6778C291.988 91.0963 291.684 92.2615 290.975 93.4773C290.671 94.0345 290.316 94.4905 289.911 94.9464Z"/>
</mask>
<path fill-rule="evenodd" clip-rule="evenodd" d="M297.104 71.4403V40.6898C297.104 38.6127 296.648 36.8903 295.635 35.1172C294.622 33.3441 293.356 32.0776 291.582 31.0644C289.809 30.0512 288.087 29.5953 286.061 29.5953H268.127C266.101 29.5953 264.378 30.0512 262.605 31.0644C260.832 32.0776 259.565 33.3441 258.552 35.1172C257.539 36.8903 257.083 38.6127 257.083 40.6898V71.4403H226.333C224.256 71.4403 222.533 71.8962 220.76 72.9094C218.987 73.9226 217.72 75.1891 216.707 76.9622C215.694 78.7353 215.238 80.4577 215.238 82.4841V100.418C215.238 106.497 220.203 111.462 226.333 111.462H257.083V142.212C257.083 148.342 262.048 153.307 268.127 153.307H286.061C288.087 153.307 289.809 152.851 291.582 151.837C293.356 150.824 294.622 149.558 295.635 147.785C296.648 146.012 297.104 144.289 297.104 142.212V111.462H327.855C329.932 111.462 331.654 111.006 333.427 109.992C335.201 108.979 336.467 107.713 337.48 105.94C338.493 104.167 338.949 102.444 338.949 100.418V82.4841C338.949 80.4577 338.493 78.7353 337.48 76.9622C336.467 75.1891 335.201 73.9226 333.427 72.9094C331.654 71.8962 329.932 71.4403 327.855 71.4403H297.104ZM289.911 94.9464L289.86 94.9971C289.759 95.0477 289.708 95.0984 289.657 95.1997L277.094 107.713L264.277 94.9464H264.327C263.872 94.4905 263.568 94.0345 263.213 93.4773C262.554 92.2615 262.2 91.0963 262.2 89.6778C262.2 88.31 262.554 87.0942 263.213 85.8783C263.922 84.6625 264.834 83.8013 266.05 83.092C267.266 82.3828 268.431 82.0788 269.849 82.0788C271.268 82.0788 272.433 82.3828 273.649 83.092C274.865 83.8013 275.726 84.6625 276.435 85.8783C276.739 86.3849 276.942 86.7902 277.094 87.3475C277.246 86.7902 277.448 86.3849 277.752 85.8783C278.462 84.6625 279.323 83.8013 280.539 83.092C281.754 82.3828 282.97 82.0788 284.338 82.0788C285.757 82.0788 286.972 82.3828 288.188 83.092C289.404 83.8013 290.265 84.6625 290.975 85.8783C291.684 87.0942 291.988 88.31 291.988 89.6778C291.988 91.0963 291.684 92.2615 290.975 93.4773C290.671 94.0345 290.316 94.4905 289.911 94.9464Z" fill="#17468C"/>
<path d="M297.104 71.4403H296.604V71.9403H297.104V71.4403ZM257.083 71.4403V71.9403H257.583V71.4403H257.083ZM257.083 111.462H257.583V110.962H257.083V111.462ZM297.104 111.462V110.962H296.604V111.462H297.104ZM289.911 94.9464L290.264 95.2999L290.275 95.2896L290.284 95.2786L289.911 94.9464ZM289.86 94.9971L290.084 95.4443L290.156 95.408L290.214 95.3506L289.86 94.9971ZM289.657 95.1997L290.01 95.554L290.068 95.4964L290.105 95.4233L289.657 95.1997ZM277.094 107.713L276.741 108.067L277.094 108.418L277.447 108.067L277.094 107.713ZM264.277 94.9464V94.4464H263.066L263.924 95.3007L264.277 94.9464ZM264.327 94.9464V95.4464H265.535L264.681 94.5929L264.327 94.9464ZM263.213 93.4773L262.773 93.7154L262.782 93.7309L262.791 93.7457L263.213 93.4773ZM263.213 85.8783L262.781 85.6264L262.777 85.6332L262.773 85.6402L263.213 85.8783ZM276.435 85.8783L276.003 86.1303L276.006 86.1356L276.435 85.8783ZM277.094 87.3475L276.611 87.479L277.094 89.2477L277.576 87.479L277.094 87.3475ZM277.752 85.8783L278.181 86.1356L278.184 86.1303L277.752 85.8783ZM290.975 93.4773L290.543 93.2254L290.539 93.2316L290.536 93.2379L290.975 93.4773ZM297.604 71.4403V40.6898H296.604V71.4403H297.604ZM297.604 40.6898C297.604 38.5268 297.126 36.7187 296.069 34.8691L295.201 35.3653C296.171 37.0619 296.604 38.6987 296.604 40.6898H297.604ZM296.069 34.8691C295.012 33.0185 293.681 31.6878 291.83 30.6303L291.334 31.4985C293.03 32.4674 294.232 33.6697 295.201 35.3653L296.069 34.8691ZM291.83 30.6303C289.982 29.574 288.174 29.0953 286.061 29.0953V30.0953C288 30.0953 289.637 30.5285 291.334 31.4985L291.83 30.6303ZM286.061 29.0953H268.127V30.0953H286.061V29.0953ZM268.127 29.0953C266.013 29.0953 264.205 29.574 262.357 30.6303L262.853 31.4985C264.551 30.5285 266.188 30.0953 268.127 30.0953V29.0953ZM262.357 30.6303C260.506 31.6878 259.176 33.0185 258.118 34.8691L258.986 35.3653C259.955 33.6697 261.158 32.4674 262.853 31.4985L262.357 30.6303ZM258.118 34.8691C257.061 36.7187 256.583 38.5268 256.583 40.6898H257.583C257.583 38.6987 258.017 37.0619 258.986 35.3653L258.118 34.8691ZM256.583 40.6898V71.4403H257.583V40.6898H256.583ZM257.083 70.9403H226.333V71.9403H257.083V70.9403ZM226.333 70.9403C224.17 70.9403 222.362 71.4184 220.512 72.4753L221.008 73.3435C222.705 72.374 224.341 71.9403 226.333 71.9403V70.9403ZM220.512 72.4753C218.661 73.5328 217.331 74.8635 216.273 76.7141L217.141 77.2103C218.11 75.5147 219.313 74.3124 221.008 73.3435L220.512 72.4753ZM216.273 76.7141C215.217 78.5627 214.738 80.3706 214.738 82.4841H215.738C215.738 80.5448 216.171 78.9079 217.141 77.2103L216.273 76.7141ZM214.738 82.4841V100.418H215.738V82.4841H214.738ZM214.738 100.418C214.738 106.774 219.928 111.962 226.333 111.962V110.962C220.477 110.962 215.738 106.219 215.738 100.418H214.738ZM226.333 111.962H257.083V110.962H226.333V111.962ZM256.583 111.462V142.212H257.583V111.462H256.583ZM256.583 142.212C256.583 148.617 261.77 153.807 268.127 153.807V152.807C262.325 152.807 257.583 148.067 257.583 142.212H256.583ZM268.127 153.807H286.061V152.807H268.127V153.807ZM286.061 153.807C288.174 153.807 289.982 153.328 291.83 152.272L291.334 151.403C289.637 152.373 288 152.807 286.061 152.807V153.807ZM291.83 152.272C293.681 151.214 295.012 149.883 296.069 148.033L295.201 147.537C294.232 149.232 293.03 150.434 291.334 151.403L291.83 152.272ZM296.069 148.033C297.126 146.183 297.604 144.375 297.604 142.212H296.604C296.604 144.203 296.171 145.84 295.201 147.537L296.069 148.033ZM297.604 142.212V111.462H296.604V142.212H297.604ZM297.104 111.962H327.855V110.962H297.104V111.962ZM327.855 111.962C330.018 111.962 331.826 111.483 333.675 110.427L333.179 109.558C331.483 110.528 329.846 110.962 327.855 110.962V111.962ZM333.675 110.427C335.526 109.369 336.857 108.038 337.914 106.188L337.046 105.692C336.077 107.387 334.875 108.589 333.179 109.558L333.675 110.427ZM337.914 106.188C338.971 104.339 339.449 102.531 339.449 100.418H338.449C338.449 102.357 338.016 103.994 337.046 105.692L337.914 106.188ZM339.449 100.418V82.4841H338.449V100.418H339.449ZM339.449 82.4841C339.449 80.3706 338.971 78.5627 337.914 76.7141L337.046 77.2103C338.016 78.9079 338.449 80.5448 338.449 82.4841H339.449ZM337.914 76.7141C336.857 74.8635 335.526 73.5328 333.675 72.4753L333.179 73.3435C334.875 74.3124 336.077 75.5147 337.046 77.2103L337.914 76.7141ZM333.675 72.4753C331.826 71.4184 330.018 70.9403 327.855 70.9403V71.9403C329.846 71.9403 331.483 72.374 333.179 73.3435L333.675 72.4753ZM327.855 70.9403H297.104V71.9403H327.855V70.9403ZM289.557 94.5929L289.506 94.6436L290.214 95.3506L290.264 95.2999L289.557 94.5929ZM289.636 94.5499C289.556 94.5903 289.468 94.6442 289.386 94.7258C289.305 94.8075 289.251 94.8953 289.21 94.9761L290.105 95.4233C290.11 95.4126 290.112 95.4106 290.11 95.4136C290.107 95.4173 290.102 95.4246 290.093 95.433C290.085 95.4413 290.078 95.4468 290.074 95.4493C290.071 95.4514 290.073 95.4497 290.084 95.4443L289.636 94.5499ZM289.305 94.8455L276.741 107.358L277.447 108.067L290.01 95.554L289.305 94.8455ZM277.447 107.358L264.63 94.5922L263.924 95.3007L276.741 108.067L277.447 107.358ZM264.277 95.4464H264.327V94.4464H264.277V95.4464ZM264.681 94.5929C264.267 94.1785 263.987 93.7629 263.635 93.2089L262.791 93.7457C263.148 94.3062 263.476 94.8024 263.974 95.3L264.681 94.5929ZM263.653 93.2391C263.027 92.0835 262.7 90.9995 262.7 89.6778H261.7C261.7 91.1931 262.082 92.4395 262.773 93.7154L263.653 93.2391ZM262.7 89.6778C262.7 88.4051 263.027 87.2705 263.653 86.1165L262.773 85.6402C262.081 86.9178 261.7 88.2149 261.7 89.6778H262.7ZM263.645 86.1303C264.306 84.9969 265.152 84.1946 266.302 83.5239L265.798 82.6601C264.516 83.408 263.538 84.3281 262.781 85.6264L263.645 86.1303ZM266.302 83.5239C267.438 82.8609 268.516 82.5788 269.849 82.5788V81.5788C268.346 81.5788 267.093 81.9047 265.798 82.6601L266.302 83.5239ZM269.849 82.5788C271.183 82.5788 272.26 82.8609 273.397 83.5239L273.901 82.6601C272.606 81.9047 271.353 81.5788 269.849 81.5788V82.5788ZM273.397 83.5239C274.538 84.1897 275.337 84.9889 276.003 86.1303L276.867 85.6264C276.114 84.336 275.191 83.4128 273.901 82.6601L273.397 83.5239ZM276.006 86.1356C276.297 86.6203 276.476 86.9819 276.611 87.479L277.576 87.2159C277.408 86.5985 277.181 86.1496 276.864 85.6211L276.006 86.1356ZM277.576 87.479C277.712 86.9819 277.89 86.6203 278.181 86.1356L277.324 85.6211C277.006 86.1496 276.78 86.5985 276.611 87.2159L277.576 87.479ZM278.184 86.1303C278.85 84.9889 279.649 84.1897 280.791 83.5239L280.287 82.6601C278.996 83.4128 278.073 84.336 277.32 85.6264L278.184 86.1303ZM280.791 83.5239C281.926 82.8618 283.054 82.5788 284.338 82.5788V81.5788C282.887 81.5788 281.583 81.9038 280.287 82.6601L280.791 83.5239ZM284.338 82.5788C285.675 82.5788 286.803 82.8626 287.936 83.5239L288.44 82.6601C287.142 81.903 285.838 81.5788 284.338 81.5788V82.5788ZM287.936 83.5239C289.078 84.1897 289.877 84.9889 290.543 86.1303L291.406 85.6264C290.654 84.336 289.73 83.4128 288.44 82.6601L287.936 83.5239ZM290.543 86.1303C291.205 87.2654 291.488 88.3935 291.488 89.6778H292.488C292.488 88.2265 292.163 86.9229 291.406 85.6264L290.543 86.1303ZM291.488 89.6778C291.488 91.011 291.206 92.0888 290.543 93.2254L291.406 93.7292C292.162 92.4341 292.488 91.1815 292.488 89.6778H291.488ZM290.536 93.2379C290.256 93.7501 289.928 94.1745 289.537 94.6142L290.284 95.2786C290.704 94.8064 291.085 94.319 291.413 93.7167L290.536 93.2379Z" fill="white" mask="url(#path-5-inside-1_1_176)"/>
</g>
</g>
</g>
<defs>
<clipPath id="clip0_1_176">
<rect width="123.762" height="123.762" fill="white" transform="translate(215.238 29.5953)"/>
</clipPath>
</defs>
</svg>
