<svg width="713" height="287" viewBox="0 0 713 287" fill="none" xmlns="http://www.w3.org/2000/svg">
<rect width="713" height="287" fill="white"/>
<path d="M68.1392 40.9091V70H62.8693V40.9091H68.1392ZM78.7607 57.2159V70H73.6186V48.1818H78.5334V51.8892H78.7891C79.291 50.6676 80.0911 49.697 81.1896 48.9773C82.2976 48.2576 83.666 47.8977 85.2947 47.8977C86.8004 47.8977 88.112 48.2197 89.2294 48.8636C90.3563 49.5076 91.2275 50.4403 91.843 51.6619C92.468 52.8835 92.7758 54.3655 92.7663 56.108V70H87.6243V56.9034C87.6243 55.4451 87.2455 54.304 86.4879 53.4801C85.7398 52.6562 84.7029 52.2443 83.3771 52.2443C82.4775 52.2443 81.6773 52.4432 80.9766 52.8409C80.2853 53.2292 79.7408 53.7926 79.343 54.5312C78.9548 55.2699 78.7607 56.1648 78.7607 57.2159ZM108.888 48.1818V52.1591H96.3459V48.1818H108.888ZM99.4425 42.9545H104.585V63.4375C104.585 64.1288 104.689 64.6591 104.897 65.0284C105.115 65.3883 105.399 65.6345 105.749 65.767C106.1 65.8996 106.488 65.9659 106.914 65.9659C107.236 65.9659 107.53 65.9422 107.795 65.8949C108.069 65.8475 108.278 65.8049 108.42 65.767L109.286 69.7869C109.012 69.8816 108.619 69.9858 108.107 70.0994C107.605 70.2131 106.99 70.2794 106.261 70.2983C104.973 70.3362 103.813 70.142 102.781 69.7159C101.748 69.2803 100.929 68.608 100.323 67.6989C99.7266 66.7898 99.433 65.6534 99.4425 64.2898V42.9545ZM122.614 70.4261C120.426 70.4261 118.537 69.9716 116.946 69.0625C115.365 68.1439 114.148 66.8466 113.295 65.1705C112.443 63.4848 112.017 61.5009 112.017 59.2188C112.017 56.9744 112.443 55.0047 113.295 53.3097C114.157 51.6051 115.36 50.2794 116.903 49.3324C118.447 48.3759 120.26 47.8977 122.344 47.8977C123.688 47.8977 124.957 48.1155 126.151 48.5511C127.353 48.9773 128.414 49.6402 129.332 50.5398C130.26 51.4394 130.99 52.5852 131.52 53.9773C132.05 55.3598 132.315 57.0076 132.315 58.9205V60.4972H114.432V57.0312H127.386C127.377 56.0464 127.164 55.1705 126.747 54.4034C126.33 53.6269 125.748 53.0161 125 52.571C124.261 52.1259 123.4 51.9034 122.415 51.9034C121.364 51.9034 120.44 52.1591 119.645 52.6705C118.849 53.1723 118.229 53.8352 117.784 54.6591C117.348 55.4735 117.126 56.3684 117.116 57.3438V60.3693C117.116 61.6383 117.348 62.7273 117.812 63.6364C118.277 64.536 118.925 65.2273 119.759 65.7102C120.592 66.1837 121.567 66.4205 122.685 66.4205C123.433 66.4205 124.11 66.3163 124.716 66.108C125.322 65.8902 125.848 65.5729 126.293 65.1562C126.738 64.7396 127.074 64.2235 127.301 63.608L132.102 64.1477C131.799 65.4167 131.222 66.5246 130.369 67.4716C129.527 68.4091 128.447 69.1383 127.131 69.6591C125.814 70.1705 124.309 70.4261 122.614 70.4261ZM136.665 70V48.1818H141.651V51.8182H141.879C142.276 50.5587 142.958 49.5881 143.924 48.9062C144.899 48.215 146.012 47.8693 147.262 47.8693C147.546 47.8693 147.863 47.8835 148.214 47.9119C148.574 47.9309 148.872 47.964 149.109 48.0114V52.7415C148.891 52.6657 148.545 52.5994 148.072 52.5426C147.608 52.4763 147.158 52.4432 146.722 52.4432C145.785 52.4432 144.942 52.6468 144.194 53.054C143.455 53.4517 142.873 54.0057 142.447 54.7159C142.021 55.4261 141.808 56.2453 141.808 57.1733V70H136.665ZM178.484 48.9062C178.351 47.6657 177.792 46.6998 176.808 46.0085C175.832 45.3172 174.563 44.9716 173.001 44.9716C171.902 44.9716 170.96 45.1373 170.174 45.4688C169.388 45.8002 168.787 46.25 168.37 46.8182C167.953 47.3864 167.74 48.035 167.731 48.7642C167.731 49.3703 167.868 49.8958 168.143 50.3409C168.427 50.786 168.81 51.1648 169.293 51.4773C169.776 51.7803 170.311 52.036 170.898 52.2443C171.486 52.4527 172.077 52.6278 172.674 52.7699L175.401 53.4517C176.5 53.7074 177.556 54.053 178.569 54.4886C179.592 54.9242 180.505 55.4735 181.31 56.1364C182.125 56.7992 182.769 57.5994 183.242 58.5369C183.716 59.4744 183.952 60.5729 183.952 61.8324C183.952 63.5369 183.517 65.0379 182.646 66.3352C181.774 67.6231 180.515 68.6316 178.867 69.3608C177.229 70.0805 175.245 70.4403 172.915 70.4403C170.652 70.4403 168.687 70.09 167.021 69.3892C165.363 68.6884 164.066 67.6657 163.129 66.321C162.201 64.9763 161.699 63.3381 161.623 61.4062H166.808C166.883 62.4195 167.196 63.2623 167.745 63.9347C168.294 64.607 169.009 65.1089 169.89 65.4403C170.78 65.7718 171.774 65.9375 172.873 65.9375C174.019 65.9375 175.022 65.767 175.884 65.4261C176.755 65.0758 177.437 64.5928 177.93 63.9773C178.422 63.3523 178.673 62.6231 178.683 61.7898C178.673 61.0322 178.451 60.4072 178.015 59.9148C177.579 59.4129 176.969 58.9962 176.183 58.6648C175.406 58.3239 174.497 58.0208 173.455 57.7557L170.146 56.9034C167.75 56.2879 165.856 55.3551 164.464 54.1051C163.081 52.8456 162.39 51.1742 162.39 49.0909C162.39 47.3769 162.854 45.8759 163.782 44.5881C164.719 43.3002 165.993 42.3011 167.603 41.5909C169.213 40.8712 171.036 40.5114 173.072 40.5114C175.136 40.5114 176.945 40.8712 178.498 41.5909C180.06 42.3011 181.287 43.2907 182.177 44.5597C183.067 45.8191 183.526 47.268 183.555 48.9062H178.484ZM198.082 70.4261C195.895 70.4261 194.006 69.9716 192.415 69.0625C190.833 68.1439 189.616 66.8466 188.764 65.1705C187.912 63.4848 187.486 61.5009 187.486 59.2188C187.486 56.9744 187.912 55.0047 188.764 53.3097C189.626 51.6051 190.829 50.2794 192.372 49.3324C193.916 48.3759 195.729 47.8977 197.812 47.8977C199.157 47.8977 200.426 48.1155 201.619 48.5511C202.822 48.9773 203.883 49.6402 204.801 50.5398C205.729 51.4394 206.458 52.5852 206.989 53.9773C207.519 55.3598 207.784 57.0076 207.784 58.9205V60.4972H189.901V57.0312H202.855C202.846 56.0464 202.633 55.1705 202.216 54.4034C201.799 53.6269 201.217 53.0161 200.469 52.571C199.73 52.1259 198.868 51.9034 197.884 51.9034C196.832 51.9034 195.909 52.1591 195.114 52.6705C194.318 53.1723 193.698 53.8352 193.253 54.6591C192.817 55.4735 192.595 56.3684 192.585 57.3438V60.3693C192.585 61.6383 192.817 62.7273 193.281 63.6364C193.745 64.536 194.394 65.2273 195.227 65.7102C196.061 66.1837 197.036 66.4205 198.153 66.4205C198.902 66.4205 199.579 66.3163 200.185 66.108C200.791 65.8902 201.316 65.5729 201.761 65.1562C202.206 64.7396 202.543 64.2235 202.77 63.608L207.571 64.1477C207.268 65.4167 206.69 66.5246 205.838 67.4716C204.995 68.4091 203.916 69.1383 202.599 69.6591C201.283 70.1705 199.777 70.4261 198.082 70.4261ZM212.134 70V48.1818H217.049V51.8892H217.305C217.759 50.6392 218.512 49.6638 219.563 48.9631C220.614 48.2528 221.869 47.8977 223.327 47.8977C224.805 47.8977 226.05 48.2576 227.063 48.9773C228.086 49.6875 228.806 50.6581 229.222 51.8892H229.45C229.933 50.6771 230.747 49.7112 231.893 48.9915C233.048 48.2623 234.416 47.8977 235.998 47.8977C238.005 47.8977 239.644 48.5322 240.913 49.8011C242.182 51.0701 242.816 52.9214 242.816 55.3551V70H237.66V56.1506C237.66 54.7964 237.3 53.8068 236.58 53.1818C235.861 52.5473 234.98 52.2301 233.938 52.2301C232.698 52.2301 231.727 52.6184 231.026 53.3949C230.335 54.1619 229.989 55.161 229.989 56.392V70H224.947V55.9375C224.947 54.8106 224.606 53.911 223.924 53.2386C223.252 52.5663 222.371 52.2301 221.282 52.2301C220.543 52.2301 219.871 52.4195 219.265 52.7983C218.659 53.1676 218.176 53.6932 217.816 54.375C217.456 55.0473 217.276 55.8333 217.276 56.733V70H212.134ZM248.033 70V48.1818H253.175V70H248.033ZM250.618 45.0852C249.804 45.0852 249.103 44.8153 248.516 44.2756C247.929 43.7263 247.635 43.0682 247.635 42.3011C247.635 41.5246 247.929 40.8665 248.516 40.3267C249.103 39.7775 249.804 39.5028 250.618 39.5028C251.442 39.5028 252.143 39.7775 252.72 40.3267C253.307 40.8665 253.601 41.5246 253.601 42.3011C253.601 43.0682 253.307 43.7263 252.72 44.2756C252.143 44.8153 251.442 45.0852 250.618 45.0852ZM268.612 70V40.9091H279.748C281.85 40.9091 283.597 41.2405 284.989 41.9034C286.391 42.5568 287.437 43.4517 288.129 44.5881C288.829 45.7244 289.18 47.0123 289.18 48.4517C289.18 49.6354 288.952 50.6487 288.498 51.4915C288.043 52.3248 287.433 53.0019 286.665 53.5227C285.898 54.0436 285.041 54.4176 284.094 54.6449V54.929C285.127 54.9858 286.116 55.303 287.063 55.8807C288.02 56.4489 288.801 57.2538 289.407 58.2955C290.013 59.3371 290.316 60.5966 290.316 62.0739C290.316 63.5795 289.951 64.9337 289.222 66.1364C288.493 67.3295 287.395 68.2718 285.927 68.9631C284.459 69.6544 282.612 70 280.387 70H268.612ZM273.881 65.5966H279.549C281.462 65.5966 282.84 65.232 283.683 64.5028C284.535 63.7642 284.961 62.8172 284.961 61.6619C284.961 60.8002 284.748 60.0237 284.322 59.3324C283.896 58.6316 283.29 58.0824 282.504 57.6847C281.718 57.2775 280.78 57.0739 279.691 57.0739H273.881V65.5966ZM273.881 53.2812H279.094C280.004 53.2812 280.823 53.1155 281.552 52.7841C282.281 52.4432 282.854 51.965 283.271 51.3494C283.697 50.7244 283.91 49.9858 283.91 49.1335C283.91 48.0066 283.512 47.0786 282.717 46.3494C281.931 45.6203 280.761 45.2557 279.208 45.2557H273.881V53.2812ZM304.19 70.4261C302.06 70.4261 300.213 69.9574 298.651 69.0199C297.088 68.0824 295.876 66.7708 295.014 65.0852C294.162 63.3996 293.736 61.4299 293.736 59.1761C293.736 56.9223 294.162 54.9479 295.014 53.2528C295.876 51.5578 297.088 50.2415 298.651 49.304C300.213 48.3665 302.06 47.8977 304.19 47.8977C306.321 47.8977 308.168 48.3665 309.73 49.304C311.293 50.2415 312.5 51.5578 313.352 53.2528C314.214 54.9479 314.645 56.9223 314.645 59.1761C314.645 61.4299 314.214 63.3996 313.352 65.0852C312.5 66.7708 311.293 68.0824 309.73 69.0199C308.168 69.9574 306.321 70.4261 304.19 70.4261ZM304.219 66.3068C305.374 66.3068 306.34 65.9896 307.116 65.3551C307.893 64.7112 308.471 63.8494 308.849 62.7699C309.238 61.6903 309.432 60.4877 309.432 59.1619C309.432 57.8267 309.238 56.6193 308.849 55.5398C308.471 54.4508 307.893 53.5843 307.116 52.9403C306.34 52.2964 305.374 51.9744 304.219 51.9744C303.035 51.9744 302.05 52.2964 301.264 52.9403C300.488 53.5843 299.905 54.4508 299.517 55.5398C299.138 56.6193 298.949 57.8267 298.949 59.1619C298.949 60.4877 299.138 61.6903 299.517 62.7699C299.905 63.8494 300.488 64.7112 301.264 65.3551C302.05 65.9896 303.035 66.3068 304.219 66.3068ZM324.151 40.9091V70H319.009V40.9091H324.151ZM337.536 70.3835C335.821 70.3835 334.287 69.9432 332.933 69.0625C331.579 68.1818 330.509 66.9034 329.723 65.2273C328.937 63.5511 328.544 61.5152 328.544 59.1193C328.544 56.6951 328.942 54.6496 329.737 52.983C330.542 51.3068 331.626 50.0426 332.99 49.1903C334.354 48.3286 335.874 47.8977 337.55 47.8977C338.828 47.8977 339.879 48.1155 340.703 48.5511C341.527 48.9773 342.18 49.4934 342.663 50.0994C343.146 50.696 343.52 51.2595 343.786 51.7898H343.999V40.9091H349.155V70H344.098V66.5625H343.786C343.52 67.0928 343.137 67.6562 342.635 68.2528C342.133 68.84 341.47 69.3419 340.646 69.7585C339.822 70.1752 338.786 70.3835 337.536 70.3835ZM338.97 66.1648C340.059 66.1648 340.987 65.8712 341.754 65.2841C342.521 64.6875 343.104 63.8589 343.501 62.7983C343.899 61.7377 344.098 60.5019 344.098 59.0909C344.098 57.6799 343.899 56.4536 343.501 55.4119C343.113 54.3703 342.536 53.5606 341.768 52.983C341.011 52.4053 340.078 52.1165 338.97 52.1165C337.824 52.1165 336.868 52.4148 336.101 53.0114C335.334 53.608 334.756 54.4318 334.368 55.483C333.98 56.5341 333.786 57.7367 333.786 59.0909C333.786 60.4545 333.98 61.6714 334.368 62.7415C334.766 63.8021 335.348 64.6402 336.115 65.2557C336.892 65.8617 337.843 66.1648 338.97 66.1648Z" fill="black"/>
<path d="M519.591 44.3267V39.9091H542.801V44.3267H533.81V69H528.582V44.3267H519.591ZM547.048 69V47.1818H552.19V69H547.048ZM547.659 44.3125L550.841 37.821H555.869L551.509 44.3125H547.659ZM568.373 47.1818V51.1591H555.83V47.1818H568.373ZM558.927 41.9545H564.069V62.4375C564.069 63.1288 564.173 63.6591 564.381 64.0284C564.599 64.3883 564.883 64.6345 565.234 64.767C565.584 64.8996 565.972 64.9659 566.398 64.9659C566.72 64.9659 567.014 64.9422 567.279 64.8949C567.554 64.8475 567.762 64.8049 567.904 64.767L568.771 68.7869C568.496 68.8816 568.103 68.9858 567.592 69.0994C567.09 69.2131 566.474 69.2794 565.745 69.2983C564.457 69.3362 563.297 69.142 562.265 68.7159C561.233 68.2803 560.414 67.608 559.808 66.6989C559.211 65.7898 558.917 64.6534 558.927 63.2898V41.9545ZM586.58 59.8239V47.1818H591.722V69H586.736V65.1222H586.509C586.016 66.3437 585.206 67.3428 584.08 68.1193C582.962 68.8958 581.584 69.2841 579.946 69.2841C578.516 69.2841 577.252 68.9669 576.153 68.3324C575.064 67.6884 574.212 66.7557 573.597 65.5341C572.981 64.303 572.673 62.8163 572.673 61.0739V47.1818H577.815V60.2784C577.815 61.661 578.194 62.7595 578.952 63.5739C579.709 64.3883 580.704 64.7955 581.935 64.7955C582.692 64.7955 583.426 64.6108 584.136 64.2415C584.847 63.8722 585.429 63.3229 585.884 62.5938C586.348 61.8551 586.58 60.9318 586.58 59.8239ZM602.151 39.9091V69H597.009V39.9091H602.151ZM616.956 69.4261C614.825 69.4261 612.979 68.9574 611.416 68.0199C609.854 67.0824 608.642 65.7708 607.78 64.0852C606.928 62.3996 606.501 60.4299 606.501 58.1761C606.501 55.9223 606.928 53.9479 607.78 52.2528C608.642 50.5578 609.854 49.2415 611.416 48.304C612.979 47.3665 614.825 46.8977 616.956 46.8977C619.087 46.8977 620.933 47.3665 622.496 48.304C624.058 49.2415 625.266 50.5578 626.118 52.2528C626.98 53.9479 627.411 55.9223 627.411 58.1761C627.411 60.4299 626.98 62.3996 626.118 64.0852C625.266 65.7708 624.058 67.0824 622.496 68.0199C620.933 68.9574 619.087 69.4261 616.956 69.4261ZM616.984 65.3068C618.14 65.3068 619.106 64.9896 619.882 64.3551C620.659 63.7112 621.236 62.8494 621.615 61.7699C622.003 60.6903 622.197 59.4877 622.197 58.1619C622.197 56.8267 622.003 55.6193 621.615 54.5398C621.236 53.4508 620.659 52.5843 619.882 51.9403C619.106 51.2964 618.14 50.9744 616.984 50.9744C615.801 50.9744 614.816 51.2964 614.03 51.9403C613.253 52.5843 612.671 53.4508 612.283 54.5398C611.904 55.6193 611.714 56.8267 611.714 58.1619C611.714 59.4877 611.904 60.6903 612.283 61.7699C612.671 62.8494 613.253 63.7112 614.03 64.3551C614.816 64.9896 615.801 65.3068 616.984 65.3068ZM649.019 52.9489L644.332 53.4602C644.199 52.9867 643.967 52.5417 643.636 52.125C643.314 51.7083 642.878 51.3722 642.329 51.1165C641.78 50.8608 641.107 50.733 640.312 50.733C639.242 50.733 638.342 50.965 637.613 51.429C636.893 51.893 636.538 52.4943 636.548 53.233C636.538 53.8674 636.77 54.3835 637.244 54.7812C637.727 55.179 638.522 55.5057 639.63 55.7614L643.352 56.5568C645.416 57.0019 646.95 57.7074 647.954 58.6733C648.967 59.6392 649.478 60.9034 649.488 62.4659C649.478 63.839 649.076 65.0511 648.281 66.1023C647.495 67.1439 646.401 67.9583 644.999 68.5455C643.598 69.1326 641.988 69.4261 640.17 69.4261C637.499 69.4261 635.35 68.8674 633.721 67.75C632.092 66.6231 631.121 65.0559 630.809 63.0483L635.823 62.5653C636.05 63.5502 636.533 64.2936 637.272 64.7955C638.011 65.2973 638.972 65.5483 640.156 65.5483C641.377 65.5483 642.357 65.2973 643.096 64.7955C643.844 64.2936 644.218 63.6733 644.218 62.9347C644.218 62.3097 643.977 61.7936 643.494 61.3864C643.02 60.9792 642.281 60.6667 641.278 60.4489L637.556 59.6676C635.463 59.232 633.915 58.4981 632.911 57.4659C631.907 56.4242 631.41 55.108 631.42 53.517C631.41 52.1723 631.775 51.0076 632.513 50.0227C633.262 49.0284 634.299 48.2614 635.624 47.7216C636.96 47.1723 638.498 46.8977 640.241 46.8977C642.798 46.8977 644.81 47.4422 646.278 48.5312C647.755 49.6203 648.669 51.0928 649.019 52.9489Z" fill="black"/>
<path d="M65.6364 131.727V155H62.8182V131.727H65.6364ZM73.6051 144.5V155H70.9233V137.545H73.5142V140.273H73.7415C74.1506 139.386 74.7718 138.674 75.6051 138.136C76.4384 137.591 77.5142 137.318 78.8324 137.318C80.0142 137.318 81.0483 137.561 81.9347 138.045C82.821 138.523 83.5104 139.25 84.0028 140.227C84.4953 141.197 84.7415 142.424 84.7415 143.909V155H82.0597V144.091C82.0597 142.72 81.7036 141.652 80.9915 140.886C80.2794 140.114 79.3021 139.727 78.0597 139.727C77.2036 139.727 76.4384 139.913 75.7642 140.284C75.0975 140.655 74.571 141.197 74.1847 141.909C73.7983 142.621 73.6051 143.485 73.6051 144.5ZM97.233 137.545V139.818H88.1875V137.545H97.233ZM90.8239 133.364H93.5057V150C93.5057 150.758 93.6155 151.326 93.8352 151.705C94.0625 152.076 94.3504 152.326 94.6989 152.455C95.0549 152.576 95.4299 152.636 95.8239 152.636C96.1193 152.636 96.3617 152.621 96.5511 152.591C96.7405 152.553 96.892 152.523 97.0057 152.5L97.5511 154.909C97.3693 154.977 97.1155 155.045 96.7898 155.114C96.464 155.189 96.0511 155.227 95.5511 155.227C94.7936 155.227 94.0511 155.064 93.3239 154.739C92.6042 154.413 92.0057 153.917 91.5284 153.25C91.0587 152.583 90.8239 151.742 90.8239 150.727V133.364ZM108.398 155.364C106.716 155.364 105.265 154.992 104.045 154.25C102.833 153.5 101.898 152.455 101.239 151.114C100.587 149.765 100.261 148.197 100.261 146.409C100.261 144.621 100.587 143.045 101.239 141.682C101.898 140.311 102.814 139.242 103.989 138.477C105.17 137.705 106.549 137.318 108.125 137.318C109.034 137.318 109.932 137.47 110.818 137.773C111.705 138.076 112.511 138.568 113.239 139.25C113.966 139.924 114.545 140.818 114.977 141.932C115.409 143.045 115.625 144.417 115.625 146.045V147.182H102.17V144.864H112.898C112.898 143.879 112.701 143 112.307 142.227C111.92 141.455 111.367 140.845 110.648 140.398C109.936 139.951 109.095 139.727 108.125 139.727C107.057 139.727 106.133 139.992 105.352 140.523C104.58 141.045 103.985 141.727 103.568 142.568C103.152 143.409 102.943 144.311 102.943 145.273V146.818C102.943 148.136 103.17 149.254 103.625 150.17C104.087 151.08 104.727 151.773 105.545 152.25C106.364 152.72 107.314 152.955 108.398 152.955C109.102 152.955 109.739 152.856 110.307 152.659C110.883 152.455 111.379 152.152 111.795 151.75C112.212 151.341 112.534 150.833 112.761 150.227L115.352 150.955C115.08 151.833 114.621 152.606 113.977 153.273C113.333 153.932 112.538 154.447 111.591 154.818C110.644 155.182 109.58 155.364 108.398 155.364ZM119.705 155V137.545H122.295V140.182H122.477C122.795 139.318 123.371 138.617 124.205 138.08C125.038 137.542 125.977 137.273 127.023 137.273C127.22 137.273 127.466 137.277 127.761 137.284C128.057 137.292 128.28 137.303 128.432 137.318V140.045C128.341 140.023 128.133 139.989 127.807 139.943C127.489 139.89 127.152 139.864 126.795 139.864C125.947 139.864 125.189 140.042 124.523 140.398C123.864 140.746 123.341 141.231 122.955 141.852C122.576 142.466 122.386 143.167 122.386 143.955V155H119.705ZM140.974 155V131.727H148.838C150.656 131.727 152.149 132.038 153.315 132.659C154.482 133.273 155.346 134.117 155.906 135.193C156.467 136.269 156.747 137.492 156.747 138.864C156.747 140.235 156.467 141.451 155.906 142.511C155.346 143.572 154.486 144.405 153.327 145.011C152.168 145.61 150.687 145.909 148.884 145.909H142.52V143.364H148.793C150.035 143.364 151.035 143.182 151.793 142.818C152.558 142.455 153.111 141.939 153.452 141.273C153.8 140.598 153.974 139.795 153.974 138.864C153.974 137.932 153.8 137.117 153.452 136.42C153.103 135.723 152.546 135.186 151.781 134.807C151.016 134.42 150.005 134.227 148.747 134.227H143.793V155H140.974ZM151.929 144.545L157.656 155H154.384L148.747 144.545H151.929ZM168.21 155.364C166.528 155.364 165.078 154.992 163.858 154.25C162.646 153.5 161.71 152.455 161.051 151.114C160.4 149.765 160.074 148.197 160.074 146.409C160.074 144.621 160.4 143.045 161.051 141.682C161.71 140.311 162.627 139.242 163.801 138.477C164.983 137.705 166.362 137.318 167.938 137.318C168.847 137.318 169.744 137.47 170.631 137.773C171.517 138.076 172.324 138.568 173.051 139.25C173.778 139.924 174.358 140.818 174.79 141.932C175.222 143.045 175.438 144.417 175.438 146.045V147.182H161.983V144.864H172.71C172.71 143.879 172.513 143 172.119 142.227C171.733 141.455 171.18 140.845 170.46 140.398C169.748 139.951 168.907 139.727 167.938 139.727C166.869 139.727 165.945 139.992 165.165 140.523C164.392 141.045 163.797 141.727 163.381 142.568C162.964 143.409 162.756 144.311 162.756 145.273V146.818C162.756 148.136 162.983 149.254 163.438 150.17C163.9 151.08 164.54 151.773 165.358 152.25C166.176 152.72 167.127 152.955 168.21 152.955C168.915 152.955 169.551 152.856 170.119 152.659C170.695 152.455 171.191 152.152 171.608 151.75C172.025 151.341 172.347 150.833 172.574 150.227L175.165 150.955C174.892 151.833 174.434 152.606 173.79 153.273C173.146 153.932 172.35 154.447 171.403 154.818C170.456 155.182 169.392 155.364 168.21 155.364ZM186.562 161.909C185.267 161.909 184.153 161.742 183.222 161.409C182.29 161.083 181.513 160.652 180.892 160.114C180.278 159.583 179.79 159.015 179.426 158.409L181.562 156.909C181.805 157.227 182.112 157.591 182.483 158C182.854 158.417 183.362 158.777 184.006 159.08C184.657 159.39 185.509 159.545 186.562 159.545C187.972 159.545 189.134 159.205 190.051 158.523C190.968 157.841 191.426 156.773 191.426 155.318V151.773H191.199C191.002 152.091 190.722 152.485 190.358 152.955C190.002 153.417 189.487 153.83 188.812 154.193C188.146 154.549 187.244 154.727 186.108 154.727C184.699 154.727 183.434 154.394 182.312 153.727C181.199 153.061 180.316 152.091 179.665 150.818C179.021 149.545 178.699 148 178.699 146.182C178.699 144.394 179.013 142.837 179.642 141.511C180.271 140.178 181.146 139.148 182.267 138.42C183.388 137.686 184.684 137.318 186.153 137.318C187.29 137.318 188.191 137.508 188.858 137.886C189.532 138.258 190.047 138.682 190.403 139.159C190.767 139.629 191.047 140.015 191.244 140.318H191.517V137.545H194.108V155.5C194.108 157 193.767 158.22 193.085 159.159C192.411 160.106 191.502 160.799 190.358 161.239C189.222 161.686 187.956 161.909 186.562 161.909ZM186.472 152.318C187.547 152.318 188.456 152.072 189.199 151.58C189.941 151.087 190.506 150.379 190.892 149.455C191.278 148.53 191.472 147.424 191.472 146.136C191.472 144.879 191.282 143.769 190.903 142.807C190.525 141.845 189.964 141.091 189.222 140.545C188.479 140 187.563 139.727 186.472 139.727C185.335 139.727 184.388 140.015 183.631 140.591C182.881 141.167 182.316 141.939 181.938 142.909C181.566 143.879 181.381 144.955 181.381 146.136C181.381 147.348 181.57 148.42 181.949 149.352C182.335 150.277 182.903 151.004 183.653 151.534C184.411 152.057 185.35 152.318 186.472 152.318ZM210.017 147.864V137.545H212.699V155H210.017V152.045H209.835C209.426 152.932 208.79 153.686 207.926 154.307C207.063 154.92 205.972 155.227 204.653 155.227C203.562 155.227 202.593 154.989 201.744 154.511C200.896 154.027 200.229 153.299 199.744 152.33C199.259 151.352 199.017 150.121 199.017 148.636V137.545H201.699V148.455C201.699 149.727 202.055 150.742 202.767 151.5C203.487 152.258 204.403 152.636 205.517 152.636C206.184 152.636 206.862 152.466 207.551 152.125C208.248 151.784 208.831 151.261 209.301 150.557C209.778 149.852 210.017 148.955 210.017 147.864ZM220.293 131.727V155H217.611V131.727H220.293ZM230.341 155.409C229.235 155.409 228.231 155.201 227.33 154.784C226.428 154.36 225.712 153.75 225.182 152.955C224.652 152.152 224.386 151.182 224.386 150.045C224.386 149.045 224.583 148.235 224.977 147.614C225.371 146.985 225.898 146.492 226.557 146.136C227.216 145.78 227.943 145.515 228.739 145.341C229.542 145.159 230.348 145.015 231.159 144.909C232.22 144.773 233.08 144.67 233.739 144.602C234.405 144.527 234.89 144.402 235.193 144.227C235.504 144.053 235.659 143.75 235.659 143.318V143.227C235.659 142.106 235.352 141.235 234.739 140.614C234.133 139.992 233.212 139.682 231.977 139.682C230.697 139.682 229.693 139.962 228.966 140.523C228.239 141.083 227.727 141.682 227.432 142.318L224.886 141.409C225.341 140.348 225.947 139.523 226.705 138.932C227.47 138.333 228.303 137.917 229.205 137.682C230.114 137.439 231.008 137.318 231.886 137.318C232.447 137.318 233.091 137.386 233.818 137.523C234.553 137.652 235.261 137.92 235.943 138.33C236.633 138.739 237.205 139.356 237.659 140.182C238.114 141.008 238.341 142.114 238.341 143.5V155H235.659V152.636H235.523C235.341 153.015 235.038 153.42 234.614 153.852C234.189 154.284 233.625 154.652 232.92 154.955C232.216 155.258 231.356 155.409 230.341 155.409ZM230.75 153C231.811 153 232.705 152.792 233.432 152.375C234.167 151.958 234.72 151.42 235.091 150.761C235.47 150.102 235.659 149.409 235.659 148.682V146.227C235.545 146.364 235.295 146.489 234.909 146.602C234.53 146.708 234.091 146.803 233.591 146.886C233.098 146.962 232.617 147.03 232.148 147.091C231.686 147.144 231.311 147.189 231.023 147.227C230.326 147.318 229.674 147.466 229.068 147.67C228.47 147.867 227.985 148.167 227.614 148.568C227.25 148.962 227.068 149.5 227.068 150.182C227.068 151.114 227.413 151.818 228.102 152.295C228.799 152.765 229.682 153 230.75 153ZM243.236 155V137.545H245.827V140.182H246.009C246.327 139.318 246.902 138.617 247.736 138.08C248.569 137.542 249.509 137.273 250.554 137.273C250.751 137.273 250.997 137.277 251.293 137.284C251.588 137.292 251.812 137.303 251.963 137.318V140.045C251.872 140.023 251.664 139.989 251.338 139.943C251.02 139.89 250.683 139.864 250.327 139.864C249.478 139.864 248.721 140.042 248.054 140.398C247.395 140.746 246.872 141.231 246.486 141.852C246.107 142.466 245.918 143.167 245.918 143.955V155H243.236Z" fill="black"/>
<path d="M416.545 137.545C416.409 136.394 415.856 135.5 414.886 134.864C413.917 134.227 412.727 133.909 411.318 133.909C410.288 133.909 409.386 134.076 408.614 134.409C407.848 134.742 407.25 135.201 406.818 135.784C406.394 136.367 406.182 137.03 406.182 137.773C406.182 138.394 406.33 138.928 406.625 139.375C406.928 139.814 407.314 140.182 407.784 140.477C408.254 140.765 408.746 141.004 409.261 141.193C409.777 141.375 410.25 141.523 410.682 141.636L413.045 142.273C413.652 142.432 414.326 142.652 415.068 142.932C415.818 143.212 416.534 143.595 417.216 144.08C417.905 144.557 418.473 145.17 418.92 145.92C419.367 146.67 419.591 147.591 419.591 148.682C419.591 149.939 419.261 151.076 418.602 152.091C417.951 153.106 416.996 153.913 415.739 154.511C414.489 155.11 412.97 155.409 411.182 155.409C409.515 155.409 408.072 155.14 406.852 154.602C405.64 154.064 404.686 153.314 403.989 152.352C403.299 151.39 402.909 150.273 402.818 149H405.727C405.803 149.879 406.098 150.606 406.614 151.182C407.136 151.75 407.795 152.174 408.591 152.455C409.394 152.727 410.258 152.864 411.182 152.864C412.258 152.864 413.223 152.689 414.08 152.341C414.936 151.985 415.614 151.492 416.114 150.864C416.614 150.227 416.864 149.485 416.864 148.636C416.864 147.864 416.648 147.235 416.216 146.75C415.784 146.265 415.216 145.871 414.511 145.568C413.807 145.265 413.045 145 412.227 144.773L409.364 143.955C407.545 143.432 406.106 142.686 405.045 141.716C403.985 140.746 403.455 139.477 403.455 137.909C403.455 136.606 403.807 135.47 404.511 134.5C405.223 133.523 406.178 132.765 407.375 132.227C408.58 131.682 409.924 131.409 411.409 131.409C412.909 131.409 414.242 131.678 415.409 132.216C416.576 132.746 417.5 133.473 418.182 134.398C418.871 135.322 419.235 136.371 419.273 137.545H416.545ZM434.861 147.864V137.545H437.543V155H434.861V152.045H434.679C434.27 152.932 433.634 153.686 432.77 154.307C431.906 154.92 430.815 155.227 429.497 155.227C428.406 155.227 427.437 154.989 426.588 154.511C425.74 154.027 425.073 153.299 424.588 152.33C424.103 151.352 423.861 150.121 423.861 148.636V137.545H426.543V148.455C426.543 149.727 426.899 150.742 427.611 151.5C428.33 152.258 429.247 152.636 430.361 152.636C431.027 152.636 431.705 152.466 432.395 152.125C433.092 151.784 433.675 151.261 434.145 150.557C434.622 149.852 434.861 148.955 434.861 147.864ZM442.818 155V131.727H445.5V140.318H445.727C445.924 140.015 446.197 139.629 446.545 139.159C446.902 138.682 447.409 138.258 448.068 137.886C448.735 137.508 449.636 137.318 450.773 137.318C452.242 137.318 453.538 137.686 454.659 138.42C455.78 139.155 456.655 140.197 457.284 141.545C457.913 142.894 458.227 144.485 458.227 146.318C458.227 148.167 457.913 149.769 457.284 151.125C456.655 152.473 455.784 153.519 454.67 154.261C453.557 154.996 452.273 155.364 450.818 155.364C449.697 155.364 448.799 155.178 448.125 154.807C447.451 154.428 446.932 154 446.568 153.523C446.205 153.038 445.924 152.636 445.727 152.318H445.409V155H442.818ZM445.455 146.273C445.455 147.591 445.648 148.754 446.034 149.761C446.42 150.761 446.985 151.545 447.727 152.114C448.47 152.674 449.379 152.955 450.455 152.955C451.576 152.955 452.511 152.659 453.261 152.068C454.019 151.47 454.587 150.667 454.966 149.659C455.352 148.644 455.545 147.515 455.545 146.273C455.545 145.045 455.356 143.939 454.977 142.955C454.606 141.962 454.042 141.178 453.284 140.602C452.534 140.019 451.591 139.727 450.455 139.727C449.364 139.727 448.447 140.004 447.705 140.557C446.962 141.102 446.402 141.867 446.023 142.852C445.644 143.83 445.455 144.97 445.455 146.273ZM469.92 137.545V139.818H460.875V137.545H469.92ZM463.511 133.364H466.193V150C466.193 150.758 466.303 151.326 466.523 151.705C466.75 152.076 467.038 152.326 467.386 152.455C467.742 152.576 468.117 152.636 468.511 152.636C468.807 152.636 469.049 152.621 469.239 152.591C469.428 152.553 469.58 152.523 469.693 152.5L470.239 154.909C470.057 154.977 469.803 155.045 469.477 155.114C469.152 155.189 468.739 155.227 468.239 155.227C467.481 155.227 466.739 155.064 466.011 154.739C465.292 154.413 464.693 153.917 464.216 153.25C463.746 152.583 463.511 151.742 463.511 150.727V133.364ZM473.955 155V137.545H476.636V155H473.955ZM474.091 135.182L476.864 129.909H480L476.455 135.182H474.091ZM489.139 137.545V139.818H480.094V137.545H489.139ZM482.73 133.364H485.412V150C485.412 150.758 485.522 151.326 485.741 151.705C485.969 152.076 486.257 152.326 486.605 152.455C486.961 152.576 487.336 152.636 487.73 152.636C488.026 152.636 488.268 152.621 488.457 152.591C488.647 152.553 488.798 152.523 488.912 152.5L489.457 154.909C489.276 154.977 489.022 155.045 488.696 155.114C488.37 155.189 487.957 155.227 487.457 155.227C486.7 155.227 485.957 155.064 485.23 154.739C484.51 154.413 483.912 153.917 483.435 153.25C482.965 152.583 482.73 151.742 482.73 150.727V133.364ZM504.173 147.864V137.545H506.855V155H504.173V152.045H503.991C503.582 152.932 502.946 153.686 502.082 154.307C501.219 154.92 500.128 155.227 498.81 155.227C497.719 155.227 496.749 154.989 495.901 154.511C495.052 154.027 494.385 153.299 493.901 152.33C493.416 151.352 493.173 150.121 493.173 148.636V137.545H495.855V148.455C495.855 149.727 496.211 150.742 496.923 151.5C497.643 152.258 498.56 152.636 499.673 152.636C500.34 152.636 501.018 152.466 501.707 152.125C502.404 151.784 502.988 151.261 503.457 150.557C503.935 149.852 504.173 148.955 504.173 147.864ZM514.449 131.727V155H511.767V131.727H514.449ZM526.452 155.364C524.876 155.364 523.493 154.989 522.304 154.239C521.122 153.489 520.198 152.439 519.531 151.091C518.872 149.742 518.543 148.167 518.543 146.364C518.543 144.545 518.872 142.958 519.531 141.602C520.198 140.246 521.122 139.193 522.304 138.443C523.493 137.693 524.876 137.318 526.452 137.318C528.027 137.318 529.406 137.693 530.588 138.443C531.777 139.193 532.702 140.246 533.361 141.602C534.027 142.958 534.361 144.545 534.361 146.364C534.361 148.167 534.027 149.742 533.361 151.091C532.702 152.439 531.777 153.489 530.588 154.239C529.406 154.989 528.027 155.364 526.452 155.364ZM526.452 152.955C527.649 152.955 528.634 152.648 529.406 152.034C530.179 151.42 530.751 150.614 531.122 149.614C531.493 148.614 531.679 147.53 531.679 146.364C531.679 145.197 531.493 144.11 531.122 143.102C530.751 142.095 530.179 141.28 529.406 140.659C528.634 140.038 527.649 139.727 526.452 139.727C525.255 139.727 524.27 140.038 523.497 140.659C522.724 141.28 522.152 142.095 521.781 143.102C521.41 144.11 521.224 145.197 521.224 146.364C521.224 147.53 521.41 148.614 521.781 149.614C522.152 150.614 522.724 151.42 523.497 152.034C524.27 152.648 525.255 152.955 526.452 152.955ZM550.818 141.455L548.409 142.136C548.258 141.735 548.034 141.345 547.739 140.966C547.451 140.58 547.057 140.261 546.557 140.011C546.057 139.761 545.417 139.636 544.636 139.636C543.568 139.636 542.678 139.883 541.966 140.375C541.261 140.86 540.909 141.477 540.909 142.227C540.909 142.894 541.152 143.42 541.636 143.807C542.121 144.193 542.879 144.515 543.909 144.773L546.5 145.409C548.061 145.788 549.223 146.367 549.989 147.148C550.754 147.92 551.136 148.917 551.136 150.136C551.136 151.136 550.848 152.03 550.273 152.818C549.705 153.606 548.909 154.227 547.886 154.682C546.864 155.136 545.674 155.364 544.318 155.364C542.538 155.364 541.064 154.977 539.898 154.205C538.731 153.432 537.992 152.303 537.682 150.818L540.227 150.182C540.47 151.121 540.928 151.826 541.602 152.295C542.284 152.765 543.174 153 544.273 153C545.523 153 546.515 152.735 547.25 152.205C547.992 151.667 548.364 151.023 548.364 150.273C548.364 149.667 548.152 149.159 547.727 148.75C547.303 148.333 546.652 148.023 545.773 147.818L542.864 147.136C541.265 146.758 540.091 146.17 539.341 145.375C538.598 144.572 538.227 143.568 538.227 142.364C538.227 141.379 538.504 140.508 539.057 139.75C539.617 138.992 540.379 138.398 541.341 137.966C542.311 137.534 543.409 137.318 544.636 137.318C546.364 137.318 547.72 137.697 548.705 138.455C549.697 139.212 550.402 140.212 550.818 141.455Z" fill="black"/>
<path d="M63.7376 213.818V232H62.6278V213.818H63.7376ZM69.7013 223.158V232H68.6182V218.364H69.6746V220.521H69.7812C70.1008 219.817 70.6127 219.251 71.317 218.825C72.0213 218.399 72.8588 218.186 73.8295 218.186C74.7468 218.186 75.5518 218.381 76.2442 218.772C76.9426 219.163 77.4871 219.719 77.8778 220.441C78.2743 221.157 78.4726 222.012 78.4726 223.007V232H77.3895V223.051C77.3895 221.891 77.0432 220.959 76.3508 220.255C75.6642 219.544 74.7557 219.189 73.6253 219.189C72.8677 219.189 72.193 219.355 71.6011 219.686C71.0093 220.018 70.5447 220.482 70.2073 221.08C69.8699 221.672 69.7013 222.365 69.7013 223.158ZM87.7943 218.364V219.331H81.8373V218.364H87.7943ZM83.8525 215.097H84.9268V228.777C84.9268 229.334 85.0333 229.789 85.2464 230.145C85.4653 230.494 85.7494 230.754 86.0986 230.926C86.4537 231.092 86.8325 231.174 87.235 231.174C87.4303 231.174 87.599 231.16 87.741 231.13C87.889 231.1 88.0281 231.062 88.1583 231.015L88.4246 232C88.2589 232.059 88.0754 232.109 87.8742 232.151C87.673 232.198 87.4362 232.222 87.164 232.222C86.5958 232.222 86.0572 232.095 85.5482 231.84C85.0451 231.586 84.6367 231.216 84.3231 230.73C84.0094 230.245 83.8525 229.659 83.8525 228.973V215.097ZM96.9829 232.284C95.7518 232.284 94.6805 231.979 93.7691 231.37C92.8576 230.76 92.1533 229.926 91.6562 228.866C91.159 227.807 90.9104 226.599 90.9104 225.244C90.9104 223.883 91.159 222.669 91.6562 221.604C92.1592 220.539 92.8488 219.698 93.7247 219.083C94.6006 218.467 95.6009 218.159 96.7254 218.159C97.4889 218.159 98.211 218.313 98.8916 218.621C99.5782 218.923 100.182 219.361 100.703 219.935C101.229 220.509 101.641 221.202 101.937 222.012C102.239 222.823 102.389 223.735 102.389 224.747V225.422H91.594V224.436H101.306C101.306 223.448 101.105 222.557 100.703 221.764C100.3 220.971 99.7528 220.34 99.0603 219.873C98.3678 219.405 97.5895 219.172 96.7254 219.172C95.8199 219.172 95.012 219.426 94.3018 219.935C93.5974 220.438 93.0381 221.119 92.6238 221.977C92.2155 222.835 92.0024 223.794 91.9846 224.853V225.297C91.9846 226.434 92.1829 227.455 92.5795 228.36C92.9819 229.26 93.556 229.973 94.3018 230.5C95.0475 231.02 95.9412 231.281 96.9829 231.281C97.7286 231.281 98.3648 231.157 98.8916 230.908C99.4243 230.654 99.8593 230.346 100.197 229.985C100.534 229.624 100.789 229.275 100.96 228.937L101.946 229.337C101.738 229.792 101.416 230.248 100.978 230.704C100.546 231.154 99.9954 231.529 99.3266 231.831C98.6637 232.133 97.8825 232.284 96.9829 232.284ZM106.118 232V218.364H107.175V220.494H107.272C107.568 219.796 108.068 219.237 108.773 218.816C109.477 218.39 110.279 218.177 111.179 218.177C111.273 218.177 111.368 218.177 111.463 218.177C111.557 218.177 111.646 218.18 111.729 218.186V219.278C111.658 219.272 111.572 219.263 111.472 219.251C111.377 219.234 111.258 219.225 111.116 219.225C110.359 219.225 109.684 219.388 109.092 219.713C108.506 220.039 108.045 220.488 107.707 221.062C107.37 221.631 107.201 222.282 107.201 223.016V232H106.118ZM122.052 232V213.818H132.172V214.848H123.161V222.385H131.631V223.415H123.161V230.97H132.385V232H122.052ZM136.8 218.364L140.564 224.427L144.328 218.364H145.58L141.212 225.182L145.58 232H144.328L140.564 226.034L136.8 232H135.539L139.889 225.182L135.539 218.364H136.8ZM154.03 218.364V219.331H148.073V218.364H154.03ZM150.088 215.097H151.162V228.777C151.162 229.334 151.269 229.789 151.482 230.145C151.701 230.494 151.985 230.754 152.334 230.926C152.689 231.092 153.068 231.174 153.47 231.174C153.666 231.174 153.834 231.16 153.976 231.13C154.124 231.1 154.263 231.062 154.394 231.015L154.66 232C154.494 232.059 154.311 232.109 154.11 232.151C153.908 232.198 153.672 232.222 153.399 232.222C152.831 232.222 152.293 232.095 151.784 231.84C151.28 231.586 150.872 231.216 150.558 230.73C150.245 230.245 150.088 229.659 150.088 228.973V215.097ZM158.047 232V218.364H159.103V220.494H159.201C159.497 219.796 159.997 219.237 160.701 218.816C161.406 218.39 162.208 218.177 163.107 218.177C163.202 218.177 163.297 218.177 163.391 218.177C163.486 218.177 163.575 218.18 163.658 218.186V219.278C163.587 219.272 163.501 219.263 163.4 219.251C163.306 219.234 163.187 219.225 163.045 219.225C162.288 219.225 161.613 219.388 161.021 219.713C160.435 220.039 159.973 220.488 159.636 221.062C159.299 221.631 159.13 222.282 159.13 223.016V232H158.047ZM170.181 232.293C169.393 232.293 168.671 232.136 168.014 231.822C167.363 231.509 166.84 231.05 166.443 230.446C166.052 229.843 165.857 229.109 165.857 228.245C165.857 227.676 165.958 227.176 166.159 226.744C166.36 226.312 166.671 225.939 167.091 225.626C167.511 225.312 168.05 225.055 168.707 224.853C169.364 224.646 170.148 224.486 171.06 224.374C171.752 224.291 172.371 224.211 172.915 224.134C173.46 224.051 173.886 223.924 174.193 223.752C174.507 223.581 174.664 223.32 174.664 222.971V222.403C174.664 221.409 174.35 220.619 173.723 220.033C173.096 219.447 172.231 219.154 171.131 219.154C170.154 219.154 169.331 219.37 168.663 219.802C168 220.228 167.535 220.778 167.269 221.453L166.248 221.071C166.508 220.42 166.884 219.879 167.375 219.447C167.872 219.015 168.441 218.692 169.08 218.479C169.725 218.266 170.4 218.159 171.104 218.159C171.714 218.159 172.294 218.245 172.844 218.417C173.4 218.589 173.895 218.849 174.327 219.198C174.765 219.547 175.111 219.994 175.365 220.539C175.62 221.077 175.747 221.722 175.747 222.474V232H174.664V229.541H174.584C174.347 230.05 174.022 230.514 173.608 230.935C173.199 231.349 172.705 231.68 172.125 231.929C171.551 232.172 170.903 232.293 170.181 232.293ZM170.287 231.29C171.139 231.29 171.894 231.083 172.551 230.668C173.214 230.248 173.732 229.674 174.105 228.946C174.478 228.218 174.664 227.392 174.664 226.469V224.463C174.528 224.581 174.33 224.688 174.069 224.782C173.815 224.871 173.525 224.951 173.199 225.022C172.88 225.087 172.542 225.146 172.187 225.2C171.838 225.247 171.498 225.291 171.166 225.333C170.172 225.451 169.361 225.635 168.734 225.883C168.112 226.126 167.656 226.445 167.366 226.842C167.082 227.239 166.94 227.718 166.94 228.28C166.94 229.209 167.26 229.943 167.899 230.482C168.538 231.02 169.334 231.29 170.287 231.29ZM187.701 232V213.818H188.811V230.97H197.689V232H187.701ZM201.435 232V218.364H202.509V232H201.435ZM201.977 215.949C201.74 215.949 201.533 215.866 201.355 215.7C201.184 215.535 201.098 215.333 201.098 215.097C201.098 214.86 201.184 214.659 201.355 214.493C201.527 214.327 201.734 214.244 201.977 214.244C202.213 214.244 202.418 214.327 202.589 214.493C202.767 214.659 202.856 214.86 202.856 215.097C202.856 215.333 202.77 215.535 202.598 215.7C202.426 215.866 202.219 215.949 201.977 215.949ZM211.964 237.398C211.118 237.398 210.357 237.285 209.683 237.06C209.008 236.841 208.434 236.528 207.96 236.119C207.493 235.711 207.135 235.226 206.886 234.663L207.792 234.131C207.993 234.569 208.28 234.959 208.653 235.303C209.026 235.646 209.487 235.915 210.038 236.11C210.594 236.306 211.236 236.403 211.964 236.403C213.278 236.403 214.317 236.063 215.08 235.382C215.85 234.708 216.234 233.672 216.234 232.275V228.884H216.128C215.921 229.476 215.613 230.002 215.205 230.464C214.802 230.92 214.308 231.278 213.722 231.538C213.136 231.799 212.47 231.929 211.725 231.929C210.647 231.929 209.7 231.651 208.884 231.094C208.067 230.538 207.431 229.757 206.975 228.751C206.519 227.739 206.291 226.549 206.291 225.182C206.291 223.815 206.513 222.604 206.957 221.551C207.407 220.491 208.04 219.663 208.857 219.065C209.674 218.461 210.633 218.159 211.733 218.159C212.521 218.159 213.201 218.31 213.775 218.612C214.355 218.908 214.841 219.302 215.231 219.793C215.622 220.284 215.924 220.823 216.137 221.409H216.261V218.364H217.309V232.32C217.309 233.456 217.084 234.4 216.634 235.152C216.19 235.903 215.566 236.466 214.761 236.838C213.962 237.211 213.03 237.398 211.964 237.398ZM211.822 230.926C212.734 230.926 213.518 230.695 214.175 230.233C214.838 229.766 215.347 229.103 215.702 228.245C216.063 227.381 216.243 226.357 216.243 225.173C216.243 224.025 216.069 222.998 215.72 222.092C215.37 221.187 214.864 220.474 214.201 219.953C213.539 219.432 212.745 219.172 211.822 219.172C210.881 219.172 210.079 219.438 209.416 219.971C208.753 220.497 208.244 221.213 207.889 222.119C207.54 223.025 207.366 224.042 207.366 225.173C207.366 226.309 207.543 227.31 207.898 228.174C208.253 229.032 208.762 229.707 209.425 230.198C210.088 230.683 210.887 230.926 211.822 230.926ZM222.948 223.158V232H221.865V213.818H222.948V220.521H223.055C223.374 219.811 223.883 219.246 224.582 218.825C225.286 218.399 226.13 218.186 227.112 218.186C228.029 218.186 228.837 218.381 229.536 218.772C230.234 219.157 230.779 219.71 231.169 220.432C231.566 221.148 231.764 222.007 231.764 223.007V232H230.69V223.051C230.69 221.885 230.344 220.95 229.651 220.246C228.959 219.541 228.044 219.189 226.908 219.189C226.144 219.189 225.464 219.355 224.866 219.686C224.268 220.018 223.798 220.482 223.454 221.08C223.117 221.672 222.948 222.365 222.948 223.158ZM241.066 218.364V219.331H235.109V218.364H241.066ZM237.124 215.097H238.198V228.777C238.198 229.334 238.305 229.789 238.518 230.145C238.737 230.494 239.021 230.754 239.37 230.926C239.725 231.092 240.104 231.174 240.506 231.174C240.702 231.174 240.87 231.16 241.013 231.13C241.16 231.1 241.3 231.062 241.43 231.015L241.696 232C241.53 232.059 241.347 232.109 241.146 232.151C240.944 232.198 240.708 232.222 240.435 232.222C239.867 232.222 239.329 232.095 238.82 231.84C238.317 231.586 237.908 231.216 237.595 230.73C237.281 230.245 237.124 229.659 237.124 228.973V215.097Z" fill="black"/>
<path d="M413.628 226V207.818H419.23C420.384 207.818 421.372 208.055 422.195 208.528C423.024 209.002 423.66 209.65 424.104 210.473C424.548 211.295 424.77 212.233 424.77 213.287C424.77 214.329 424.548 215.261 424.104 216.083C423.66 216.906 423.024 217.557 422.195 218.037C421.372 218.51 420.387 218.747 419.239 218.747H414.409V217.717H419.212C420.147 217.717 420.946 217.528 421.609 217.149C422.272 216.764 422.781 216.24 423.136 215.577C423.491 214.909 423.669 214.145 423.669 213.287C423.669 212.423 423.491 211.656 423.136 210.988C422.781 210.319 422.269 209.795 421.6 209.416C420.937 209.037 420.138 208.848 419.203 208.848H414.738V226H413.628ZM432.265 226.293C431.477 226.293 430.755 226.136 430.098 225.822C429.447 225.509 428.924 225.05 428.527 224.446C428.136 223.843 427.941 223.109 427.941 222.245C427.941 221.676 428.042 221.176 428.243 220.744C428.444 220.312 428.755 219.939 429.175 219.626C429.595 219.312 430.134 219.055 430.791 218.853C431.448 218.646 432.232 218.486 433.144 218.374C433.836 218.291 434.455 218.211 434.999 218.134C435.544 218.051 435.97 217.924 436.277 217.752C436.591 217.581 436.748 217.32 436.748 216.971V216.403C436.748 215.409 436.434 214.619 435.807 214.033C435.18 213.447 434.315 213.154 433.215 213.154C432.238 213.154 431.415 213.37 430.747 213.802C430.084 214.228 429.619 214.778 429.353 215.453L428.332 215.071C428.592 214.42 428.968 213.879 429.459 213.447C429.956 213.015 430.525 212.692 431.164 212.479C431.809 212.266 432.484 212.159 433.188 212.159C433.798 212.159 434.378 212.245 434.928 212.417C435.484 212.589 435.979 212.849 436.411 213.198C436.849 213.547 437.195 213.994 437.449 214.539C437.704 215.077 437.831 215.722 437.831 216.474V226H436.748V223.541H436.668C436.431 224.05 436.106 224.514 435.691 224.935C435.283 225.349 434.789 225.68 434.209 225.929C433.635 226.172 432.987 226.293 432.265 226.293ZM432.371 225.29C433.223 225.29 433.978 225.083 434.635 224.668C435.298 224.248 435.816 223.674 436.189 222.946C436.562 222.218 436.748 221.392 436.748 220.469V218.463C436.612 218.581 436.414 218.688 436.153 218.782C435.899 218.871 435.609 218.951 435.283 219.022C434.964 219.087 434.626 219.146 434.271 219.2C433.922 219.247 433.582 219.291 433.25 219.333C432.256 219.451 431.445 219.635 430.818 219.883C430.196 220.126 429.74 220.445 429.45 220.842C429.166 221.239 429.024 221.718 429.024 222.28C429.024 223.209 429.344 223.943 429.983 224.482C430.622 225.02 431.418 225.29 432.371 225.29ZM442.372 226V212.364H443.429V214.494H443.526C443.822 213.796 444.322 213.237 445.027 212.816C445.731 212.39 446.533 212.177 447.432 212.177C447.527 212.177 447.622 212.177 447.717 212.177C447.811 212.177 447.9 212.18 447.983 212.186V213.278C447.912 213.272 447.826 213.263 447.725 213.251C447.631 213.234 447.512 213.225 447.37 213.225C446.613 213.225 445.938 213.388 445.346 213.713C444.76 214.039 444.299 214.488 443.961 215.062C443.624 215.631 443.455 216.282 443.455 217.016V226H442.372ZM454.506 226.293C453.719 226.293 452.997 226.136 452.34 225.822C451.689 225.509 451.165 225.05 450.768 224.446C450.378 223.843 450.182 223.109 450.182 222.245C450.182 221.676 450.283 221.176 450.484 220.744C450.685 220.312 450.996 219.939 451.416 219.626C451.837 219.312 452.375 219.055 453.032 218.853C453.689 218.646 454.473 218.486 455.385 218.374C456.077 218.291 456.696 218.211 457.24 218.134C457.785 218.051 458.211 217.924 458.519 217.752C458.832 217.581 458.989 217.32 458.989 216.971V216.403C458.989 215.409 458.675 214.619 458.048 214.033C457.421 213.447 456.557 213.154 455.456 213.154C454.479 213.154 453.657 213.37 452.988 213.802C452.325 214.228 451.86 214.778 451.594 215.453L450.573 215.071C450.833 214.42 451.209 213.879 451.7 213.447C452.198 213.015 452.766 212.692 453.405 212.479C454.05 212.266 454.725 212.159 455.429 212.159C456.039 212.159 456.619 212.245 457.169 212.417C457.726 212.589 458.22 212.849 458.652 213.198C459.09 213.547 459.436 213.994 459.691 214.539C459.945 215.077 460.072 215.722 460.072 216.474V226H458.989V223.541H458.909C458.673 224.05 458.347 224.514 457.933 224.935C457.524 225.349 457.03 225.68 456.45 225.929C455.876 226.172 455.228 226.293 454.506 226.293ZM454.612 225.29C455.465 225.29 456.219 225.083 456.876 224.668C457.539 224.248 458.057 223.674 458.43 222.946C458.803 222.218 458.989 221.392 458.989 220.469V218.463C458.853 218.581 458.655 218.688 458.394 218.782C458.14 218.871 457.85 218.951 457.524 219.022C457.205 219.087 456.867 219.146 456.512 219.2C456.163 219.247 455.823 219.291 455.491 219.333C454.497 219.451 453.686 219.635 453.059 219.883C452.437 220.126 451.982 220.445 451.692 220.842C451.407 221.239 451.265 221.718 451.265 222.28C451.265 223.209 451.585 223.943 452.224 224.482C452.863 225.02 453.66 225.29 454.612 225.29ZM455.047 210.419L457.427 206.495H458.714L456.042 210.419H455.047ZM469.532 231.398C468.685 231.398 467.925 231.285 467.25 231.06C466.575 230.841 466.001 230.528 465.528 230.119C465.06 229.711 464.702 229.226 464.453 228.663L465.359 228.131C465.56 228.569 465.847 228.959 466.22 229.303C466.593 229.646 467.055 229.915 467.605 230.11C468.161 230.306 468.804 230.403 469.532 230.403C470.846 230.403 471.884 230.063 472.648 229.382C473.417 228.708 473.802 227.672 473.802 226.275V222.884H473.695C473.488 223.476 473.18 224.002 472.772 224.464C472.37 224.92 471.875 225.278 471.289 225.538C470.703 225.799 470.038 225.929 469.292 225.929C468.215 225.929 467.268 225.651 466.451 225.094C465.634 224.538 464.998 223.757 464.542 222.751C464.087 221.739 463.859 220.549 463.859 219.182C463.859 217.815 464.081 216.604 464.525 215.551C464.974 214.491 465.608 213.663 466.424 213.065C467.241 212.461 468.2 212.159 469.301 212.159C470.088 212.159 470.769 212.31 471.343 212.612C471.923 212.908 472.408 213.302 472.799 213.793C473.189 214.284 473.491 214.823 473.704 215.409H473.828V212.364H474.876V226.32C474.876 227.456 474.651 228.4 474.201 229.152C473.757 229.903 473.133 230.466 472.328 230.838C471.529 231.211 470.597 231.398 469.532 231.398ZM469.39 224.926C470.301 224.926 471.085 224.695 471.742 224.233C472.405 223.766 472.914 223.103 473.269 222.245C473.63 221.381 473.811 220.357 473.811 219.173C473.811 218.025 473.636 216.998 473.287 216.092C472.938 215.187 472.432 214.474 471.769 213.953C471.106 213.432 470.313 213.172 469.39 213.172C468.449 213.172 467.647 213.438 466.984 213.971C466.321 214.497 465.812 215.213 465.457 216.119C465.107 217.025 464.933 218.042 464.933 219.173C464.933 220.309 465.11 221.31 465.466 222.174C465.821 223.032 466.33 223.707 466.993 224.198C467.655 224.683 468.454 224.926 469.39 224.926ZM479.433 226V212.364H480.489V214.494H480.587C480.883 213.796 481.383 213.237 482.087 212.816C482.791 212.39 483.593 212.177 484.493 212.177C484.588 212.177 484.682 212.177 484.777 212.177C484.872 212.177 484.961 212.18 485.043 212.186V213.278C484.972 213.272 484.887 213.263 484.786 213.251C484.691 213.234 484.573 213.225 484.431 213.225C483.673 213.225 482.999 213.388 482.407 213.713C481.821 214.039 481.359 214.488 481.022 215.062C480.684 215.631 480.516 216.282 480.516 217.016V226H479.433ZM491.566 226.293C490.779 226.293 490.057 226.136 489.4 225.822C488.749 225.509 488.225 225.05 487.829 224.446C487.438 223.843 487.243 223.109 487.243 222.245C487.243 221.676 487.344 221.176 487.545 220.744C487.746 220.312 488.057 219.939 488.477 219.626C488.897 219.312 489.436 219.055 490.093 218.853C490.75 218.646 491.534 218.486 492.445 218.374C493.138 218.291 493.756 218.211 494.301 218.134C494.845 218.051 495.271 217.924 495.579 217.752C495.893 217.581 496.05 217.32 496.05 216.971V216.403C496.05 215.409 495.736 214.619 495.109 214.033C494.481 213.447 493.617 213.154 492.516 213.154C491.54 213.154 490.717 213.37 490.048 213.802C489.385 214.228 488.921 214.778 488.654 215.453L487.634 215.071C487.894 214.42 488.27 213.879 488.761 213.447C489.258 213.015 489.826 212.692 490.466 212.479C491.111 212.266 491.785 212.159 492.49 212.159C493.099 212.159 493.679 212.245 494.23 212.417C494.786 212.589 495.28 212.849 495.712 213.198C496.15 213.547 496.497 213.994 496.751 214.539C497.006 215.077 497.133 215.722 497.133 216.474V226H496.05V223.541H495.97C495.733 224.05 495.408 224.514 494.993 224.935C494.585 225.349 494.091 225.68 493.511 225.929C492.937 226.172 492.288 226.293 491.566 226.293ZM491.673 225.29C492.525 225.29 493.28 225.083 493.937 224.668C494.6 224.248 495.118 223.674 495.49 222.946C495.863 222.218 496.05 221.392 496.05 220.469V218.463C495.914 218.581 495.715 218.688 495.455 218.782C495.2 218.871 494.91 218.951 494.585 219.022C494.265 219.087 493.928 219.146 493.573 219.2C493.224 219.247 492.883 219.291 492.552 219.333C491.558 219.451 490.747 219.635 490.119 219.883C489.498 220.126 489.042 220.445 488.752 220.842C488.468 221.239 488.326 221.718 488.326 222.28C488.326 223.209 488.646 223.943 489.285 224.482C489.924 225.02 490.72 225.29 491.673 225.29ZM506.823 212.364V213.331H500.777V212.364H506.823ZM502.766 226V210.242C502.766 209.555 502.923 208.969 503.236 208.484C503.55 207.999 503.961 207.629 504.47 207.374C504.985 207.12 505.539 206.993 506.131 206.993C506.444 206.993 506.711 207.019 506.93 207.072C507.154 207.12 507.35 207.176 507.515 207.241L507.196 208.2C507.06 208.153 506.912 208.111 506.752 208.076C506.598 208.04 506.415 208.022 506.202 208.022C505.515 208.022 504.95 208.232 504.506 208.653C504.062 209.073 503.84 209.659 503.84 210.411L503.831 226H502.766ZM514.702 226.284C513.578 226.284 512.577 225.982 511.701 225.379C510.825 224.769 510.136 223.931 509.633 222.866C509.13 221.801 508.878 220.587 508.878 219.226C508.878 217.859 509.13 216.646 509.633 215.586C510.136 214.521 510.825 213.683 511.701 213.074C512.577 212.464 513.578 212.159 514.702 212.159C515.827 212.159 516.827 212.464 517.703 213.074C518.579 213.683 519.268 214.521 519.771 215.586C520.274 216.652 520.526 217.865 520.526 219.226C520.526 220.587 520.274 221.801 519.771 222.866C519.268 223.931 518.579 224.769 517.703 225.379C516.827 225.982 515.827 226.284 514.702 226.284ZM514.702 225.281C515.655 225.281 516.487 225.012 517.197 224.473C517.913 223.934 518.466 223.206 518.857 222.289C519.253 221.372 519.452 220.351 519.452 219.226C519.452 218.102 519.253 217.084 518.857 216.172C518.46 215.255 517.907 214.527 517.197 213.988C516.487 213.444 515.655 213.172 514.702 213.172C513.749 213.172 512.918 213.444 512.207 213.988C511.497 214.527 510.944 215.255 510.547 216.172C510.151 217.084 509.952 218.102 509.952 219.226C509.952 220.351 510.148 221.372 510.538 222.289C510.935 223.206 511.488 223.934 512.199 224.473C512.915 225.012 513.749 225.281 514.702 225.281ZM532.922 215.302L531.918 215.569C531.759 215.071 531.531 214.642 531.235 214.281C530.939 213.92 530.566 213.642 530.116 213.447C529.672 213.246 529.14 213.145 528.518 213.145C527.518 213.145 526.698 213.393 526.059 213.891C525.426 214.388 525.109 215.036 525.109 215.835C525.109 216.486 525.325 217.025 525.757 217.451C526.189 217.871 526.849 218.19 527.737 218.409L529.832 218.933C530.909 219.2 531.72 219.632 532.265 220.229C532.809 220.821 533.081 221.558 533.081 222.44C533.081 223.192 532.877 223.857 532.469 224.438C532.06 225.018 531.495 225.47 530.773 225.796C530.057 226.121 529.223 226.284 528.27 226.284C526.997 226.284 525.953 225.988 525.136 225.396C524.319 224.799 523.795 223.943 523.564 222.831L524.603 222.564C524.798 223.452 525.204 224.13 525.819 224.597C526.441 225.059 527.255 225.29 528.261 225.29C529.373 225.29 530.27 225.026 530.951 224.5C531.637 223.973 531.981 223.298 531.981 222.475C531.981 221.848 531.779 221.318 531.377 220.886C530.974 220.454 530.365 220.138 529.548 219.936L527.373 219.404C526.26 219.132 525.426 218.696 524.869 218.099C524.313 217.495 524.035 216.752 524.035 215.87C524.035 215.136 524.227 214.491 524.612 213.935C524.997 213.379 525.526 212.944 526.201 212.63C526.876 212.316 527.648 212.159 528.518 212.159C529.672 212.159 530.613 212.432 531.341 212.976C532.069 213.521 532.596 214.296 532.922 215.302Z" fill="black"/>
<path d="M485.35 54.3612C485.545 54.166 485.545 53.8494 485.35 53.6541L482.168 50.4722C481.972 50.2769 481.656 50.2769 481.461 50.4722C481.265 50.6674 481.265 50.984 481.461 51.1793L484.289 54.0077L481.461 56.8361C481.265 57.0314 481.265 57.348 481.461 57.5432C481.656 57.7385 481.972 57.7385 482.168 57.5432L485.35 54.3612ZM384.996 54.5077H385.996V53.5077H384.996V54.5077ZM387.996 54.5077H389.996V53.5077H387.996V54.5077ZM391.996 54.5077H393.996V53.5077H391.996V54.5077ZM395.996 54.5077H397.996V53.5077H395.996V54.5077ZM399.996 54.5077H401.996V53.5077H399.996V54.5077ZM403.996 54.5077H405.996V53.5077H403.996V54.5077ZM407.996 54.5077H409.996V53.5077H407.996V54.5077ZM411.996 54.5077H413.996V53.5077H411.996V54.5077ZM415.996 54.5077H417.996V53.5077H415.996V54.5077ZM419.996 54.5077H421.996V53.5077H419.996V54.5077ZM423.996 54.5077H425.996V53.5077H423.996V54.5077ZM427.996 54.5077H429.996V53.5077H427.996V54.5077ZM431.996 54.5077H433.996V53.5077H431.996V54.5077ZM435.996 54.5077H437.996V53.5077H435.996V54.5077ZM439.996 54.5077H441.996V53.5077H439.996V54.5077ZM443.996 54.5077H445.996V53.5077H443.996V54.5077ZM447.996 54.5077H449.996V53.5077H447.996V54.5077ZM451.996 54.5077H453.996V53.5077H451.996V54.5077ZM455.996 54.5077H457.996V53.5077H455.996V54.5077ZM459.996 54.5077H461.996V53.5077H459.996V54.5077ZM463.996 54.5077H465.996V53.5077H463.996V54.5077ZM467.996 54.5077H469.996V53.5077H467.996V54.5077ZM471.996 54.5077H473.996V53.5077H471.996V54.5077ZM475.996 54.5077H477.996V53.5077H475.996V54.5077ZM479.996 54.5077H481.996V53.5077H479.996V54.5077ZM483.996 54.5077H484.996V53.5077H483.996V54.5077Z" fill="#17468C"/>
<path d="M377.354 144.354C377.549 144.158 377.549 143.842 377.354 143.646L374.172 140.464C373.976 140.269 373.66 140.269 373.464 140.464C373.269 140.66 373.269 140.976 373.464 141.172L376.293 144L373.464 146.828C373.269 147.024 373.269 147.34 373.464 147.536C373.66 147.731 373.976 147.731 374.172 147.536L377.354 144.354ZM277 144.5H278V143.5H277V144.5ZM280 144.5H282V143.5H280V144.5ZM284 144.5H286V143.5H284V144.5ZM288 144.5H290V143.5H288V144.5ZM292 144.5H294V143.5H292V144.5ZM296 144.5H298V143.5H296V144.5ZM300 144.5H302V143.5H300V144.5ZM304 144.5H306V143.5H304V144.5ZM308 144.5H310V143.5H308V144.5ZM312 144.5H314V143.5H312V144.5ZM316 144.5H318V143.5H316V144.5ZM320 144.5H322V143.5H320V144.5ZM324 144.5H326V143.5H324V144.5ZM328 144.5H330V143.5H328V144.5ZM332 144.5H334V143.5H332V144.5ZM336 144.5H338V143.5H336V144.5ZM340 144.5H342V143.5H340V144.5ZM344 144.5H346V143.5H344V144.5ZM348 144.5H350V143.5H348V144.5ZM352 144.5H354V143.5H352V144.5ZM356 144.5H358V143.5H356V144.5ZM360 144.5H362V143.5H360V144.5ZM364 144.5H366V143.5H364V144.5ZM368 144.5H370V143.5H368V144.5ZM372 144.5H374V143.5H372V144.5ZM376 144.5H377V143.5H376V144.5Z" fill="#17468C"/>
<path d="M377.354 223.354C377.549 223.158 377.549 222.842 377.354 222.646L374.172 219.464C373.976 219.269 373.66 219.269 373.464 219.464C373.269 219.66 373.269 219.976 373.464 220.172L376.293 223L373.464 225.828C373.269 226.024 373.269 226.34 373.464 226.536C373.66 226.731 373.976 226.731 374.172 226.536L377.354 223.354ZM277 223.5H278V222.5H277V223.5ZM280 223.5H282V222.5H280V223.5ZM284 223.5H286V222.5H284V223.5ZM288 223.5H290V222.5H288V223.5ZM292 223.5H294V222.5H292V223.5ZM296 223.5H298V222.5H296V223.5ZM300 223.5H302V222.5H300V223.5ZM304 223.5H306V222.5H304V223.5ZM308 223.5H310V222.5H308V223.5ZM312 223.5H314V222.5H312V223.5ZM316 223.5H318V222.5H316V223.5ZM320 223.5H322V222.5H320V223.5ZM324 223.5H326V222.5H324V223.5ZM328 223.5H330V222.5H328V223.5ZM332 223.5H334V222.5H332V223.5ZM336 223.5H338V222.5H336V223.5ZM340 223.5H342V222.5H340V223.5ZM344 223.5H346V222.5H344V223.5ZM348 223.5H350V222.5H348V223.5ZM352 223.5H354V222.5H352V223.5ZM356 223.5H358V222.5H356V223.5ZM360 223.5H362V222.5H360V223.5ZM364 223.5H366V222.5H364V223.5ZM368 223.5H370V222.5H368V223.5ZM372 223.5H374V222.5H372V223.5ZM376 223.5H377V222.5H376V223.5Z" fill="#17468C"/>
</svg>
