<svg width="685" height="296" viewBox="0 0 685 296" fill="none" xmlns="http://www.w3.org/2000/svg">
<g clip-path="url(#clip0_1_35)">
<rect width="685" height="296" fill="white"/>
<rect x="38.25" y="18.25" width="137.5" height="57.5" rx="5.75" fill="#D9D9D9" stroke="black" stroke-width="0.5"/>
<path d="M47.024 69V30.12H62.048V34.008H52.448V46.968H59.888V50.808H52.448V69H47.024ZM65.678 69V41.256H70.814V69H65.678ZM65.678 37.128V31.752H70.814V37.128H65.678ZM82.7428 69.384C80.4708 69.384 78.6468 68.68 77.2708 67.272C75.8948 65.832 75.1108 63.944 74.9188 61.608L79.1908 60.312C79.4468 62.072 79.8788 63.4 80.4868 64.296C81.0948 65.16 81.9908 65.592 83.1748 65.592C84.1028 65.592 84.8068 65.336 85.2868 64.824C85.7668 64.28 86.0068 63.56 86.0068 62.664C86.0068 61.864 85.8308 61.144 85.4788 60.504C85.1268 59.864 84.5508 59.208 83.7508 58.536L78.9988 54.456C78.0388 53.624 77.2228 52.696 76.5508 51.672C75.9108 50.648 75.5908 49.32 75.5908 47.688C75.5908 46.216 75.8788 44.984 76.4548 43.992C77.0628 42.968 77.8948 42.2 78.9508 41.688C80.0388 41.144 81.3028 40.872 82.7428 40.872C84.9508 40.872 86.6308 41.592 87.7828 43.032C88.9668 44.44 89.6388 46.152 89.7988 48.168L86.3428 49.464C86.2148 48.504 86.0228 47.672 85.7668 46.968C85.5108 46.232 85.1588 45.672 84.7108 45.288C84.2628 44.872 83.6708 44.664 82.9348 44.664C82.1028 44.664 81.4308 44.952 80.9188 45.528C80.4388 46.072 80.1988 46.728 80.1988 47.496C80.1988 47.976 80.2948 48.456 80.4868 48.936C80.7108 49.384 81.0788 49.832 81.5908 50.28L86.4868 54.792C87.1588 55.4 87.7828 56.056 88.3588 56.76C88.9668 57.464 89.4628 58.264 89.8468 59.16C90.2308 60.056 90.4228 61.096 90.4228 62.28C90.4228 63.848 90.1028 65.16 89.4628 66.216C88.8228 67.272 87.9268 68.072 86.7748 68.616C85.6228 69.128 84.2788 69.384 82.7428 69.384ZM94.5999 69V41.256H99.7359V69H94.5999ZM94.5999 37.128V31.752H99.7359V37.128H94.5999ZM112.865 69.384C110.817 69.384 109.201 68.968 108.017 68.136C106.833 67.304 105.985 66.12 105.473 64.584C104.993 63.048 104.753 61.24 104.753 59.16V51.096C104.753 49.016 104.993 47.208 105.473 45.672C105.985 44.136 106.833 42.952 108.017 42.12C109.201 41.288 110.817 40.872 112.865 40.872C114.913 40.872 116.513 41.288 117.665 42.12C118.849 42.952 119.681 44.136 120.161 45.672C120.673 47.208 120.929 49.016 120.929 51.096V59.16C120.929 61.24 120.673 63.048 120.161 64.584C119.681 66.12 118.849 67.304 117.665 68.136C116.513 68.968 114.913 69.384 112.865 69.384ZM112.865 65.592C113.857 65.592 114.545 65.304 114.929 64.728C115.345 64.152 115.585 63.4 115.649 62.472C115.745 61.512 115.793 60.52 115.793 59.496V50.808C115.793 49.752 115.745 48.76 115.649 47.832C115.585 46.904 115.345 46.152 114.929 45.576C114.545 44.968 113.857 44.664 112.865 44.664C111.873 44.664 111.169 44.968 110.753 45.576C110.337 46.152 110.081 46.904 109.985 47.832C109.921 48.76 109.889 49.752 109.889 50.808V59.496C109.889 60.52 109.921 61.512 109.985 62.472C110.081 63.4 110.337 64.152 110.753 64.728C111.169 65.304 111.873 65.592 112.865 65.592Z" fill="black"/>
<g clip-path="url(#clip1_1_35)">
<mask id="mask0_1_35" style="mask-type:luminance" maskUnits="userSpaceOnUse" x="124" y="23" width="46" height="46">
<path d="M170 23H124V69H170V23Z" fill="white"/>
</mask>
<g mask="url(#mask0_1_35)">
<mask id="mask1_1_35" style="mask-type:luminance" maskUnits="userSpaceOnUse" x="124" y="23" width="46" height="46">
<path d="M124 23H169.981V68.9812H124V23Z" fill="white"/>
</mask>
<g mask="url(#mask1_1_35)">
<path fill-rule="evenodd" clip-rule="evenodd" d="M154.428 38.553V27.1236C154.428 26.3516 154.259 25.7114 153.882 25.0524C153.506 24.3934 153.035 23.9226 152.376 23.546C151.717 23.1695 151.077 23 150.323 23H143.658C142.905 23 142.264 23.1695 141.605 23.546C140.946 23.9226 140.476 24.3934 140.099 25.0524C139.722 25.7114 139.553 26.3516 139.553 27.1236V38.553H128.124C127.352 38.553 126.711 38.7225 126.052 39.0991C125.393 39.4756 124.923 39.9464 124.546 40.6054C124.169 41.2644 124 41.9046 124 42.6578V49.3234C124 51.5829 125.845 53.4282 128.124 53.4282H139.553V64.8576C139.553 67.1359 141.398 68.9812 143.658 68.9812H150.323C151.077 68.9812 151.717 68.8117 152.376 68.4351C153.035 68.0585 153.506 67.5878 153.882 66.9288C154.259 66.2698 154.428 65.6296 154.428 64.8576V53.4282H165.858C166.63 53.4282 167.27 53.2587 167.929 52.8821C168.588 52.5055 169.059 52.0348 169.435 51.3758C169.812 50.7167 169.981 50.0765 169.981 49.3234V42.6578C169.981 41.9046 169.812 41.2644 169.435 40.6054C169.059 39.9464 168.588 39.4756 167.929 39.0991C167.27 38.7225 166.63 38.553 165.858 38.553H154.428ZM151.754 47.2898L151.736 47.3086C151.698 47.3275 151.679 47.3463 151.66 47.384L146.991 52.0348L142.227 47.2898H142.246C142.076 47.1203 141.963 46.9509 141.831 46.7438C141.587 46.2919 141.455 45.8588 141.455 45.3316C141.455 44.8232 141.587 44.3713 141.831 43.9194C142.095 43.4675 142.434 43.1474 142.886 42.8838C143.338 42.6201 143.771 42.5072 144.298 42.5072C144.825 42.5072 145.258 42.6201 145.71 42.8838C146.162 43.1474 146.482 43.4675 146.746 43.9194C146.859 44.1077 146.934 44.2583 146.991 44.4654C147.047 44.2583 147.122 44.1077 147.235 43.9194C147.499 43.4675 147.819 43.1474 148.271 42.8838C148.723 42.6201 149.175 42.5072 149.683 42.5072C150.21 42.5072 150.662 42.6201 151.114 42.8838C151.566 43.1474 151.886 43.4675 152.15 43.9194C152.413 44.3713 152.526 44.8232 152.526 45.3316C152.526 45.8588 152.413 46.2919 152.15 46.7438C152.037 46.9509 151.905 47.1203 151.754 47.2898Z" fill="#00C3A5"/>
</g>
</g>
</g>
<rect x="509.25" y="18.25" width="137.5" height="57.5" rx="5.75" fill="white" stroke="black" stroke-width="0.5"/>
<path d="M518.024 69V30.12H533.048V34.008H523.448V46.968H530.888V50.808H523.448V69H518.024ZM536.678 69V41.256H541.814V69H536.678ZM536.678 37.128V31.752H541.814V37.128H536.678ZM553.743 69.384C551.471 69.384 549.647 68.68 548.271 67.272C546.895 65.832 546.111 63.944 545.919 61.608L550.191 60.312C550.447 62.072 550.879 63.4 551.487 64.296C552.095 65.16 552.991 65.592 554.175 65.592C555.103 65.592 555.807 65.336 556.287 64.824C556.767 64.28 557.007 63.56 557.007 62.664C557.007 61.864 556.831 61.144 556.479 60.504C556.127 59.864 555.551 59.208 554.751 58.536L549.999 54.456C549.039 53.624 548.223 52.696 547.551 51.672C546.911 50.648 546.591 49.32 546.591 47.688C546.591 46.216 546.879 44.984 547.455 43.992C548.063 42.968 548.895 42.2 549.951 41.688C551.039 41.144 552.303 40.872 553.743 40.872C555.951 40.872 557.631 41.592 558.783 43.032C559.967 44.44 560.639 46.152 560.799 48.168L557.343 49.464C557.215 48.504 557.023 47.672 556.767 46.968C556.511 46.232 556.159 45.672 555.711 45.288C555.263 44.872 554.671 44.664 553.935 44.664C553.103 44.664 552.431 44.952 551.919 45.528C551.439 46.072 551.199 46.728 551.199 47.496C551.199 47.976 551.295 48.456 551.487 48.936C551.711 49.384 552.079 49.832 552.591 50.28L557.487 54.792C558.159 55.4 558.783 56.056 559.359 56.76C559.967 57.464 560.463 58.264 560.847 59.16C561.231 60.056 561.423 61.096 561.423 62.28C561.423 63.848 561.103 65.16 560.463 66.216C559.823 67.272 558.927 68.072 557.775 68.616C556.623 69.128 555.279 69.384 553.743 69.384ZM565.6 69V41.256H570.736V69H565.6ZM565.6 37.128V31.752H570.736V37.128H565.6ZM583.865 69.384C581.817 69.384 580.201 68.968 579.017 68.136C577.833 67.304 576.985 66.12 576.473 64.584C575.993 63.048 575.753 61.24 575.753 59.16V51.096C575.753 49.016 575.993 47.208 576.473 45.672C576.985 44.136 577.833 42.952 579.017 42.12C580.201 41.288 581.817 40.872 583.865 40.872C585.913 40.872 587.513 41.288 588.665 42.12C589.849 42.952 590.681 44.136 591.161 45.672C591.673 47.208 591.929 49.016 591.929 51.096V59.16C591.929 61.24 591.673 63.048 591.161 64.584C590.681 66.12 589.849 67.304 588.665 68.136C587.513 68.968 585.913 69.384 583.865 69.384ZM583.865 65.592C584.857 65.592 585.545 65.304 585.929 64.728C586.345 64.152 586.585 63.4 586.649 62.472C586.745 61.512 586.793 60.52 586.793 59.496V50.808C586.793 49.752 586.745 48.76 586.649 47.832C586.585 46.904 586.345 46.152 585.929 45.576C585.545 44.968 584.857 44.664 583.865 44.664C582.873 44.664 582.169 44.968 581.753 45.576C581.337 46.152 581.081 46.904 580.985 47.832C580.921 48.76 580.889 49.752 580.889 50.808V59.496C580.889 60.52 580.921 61.512 580.985 62.472C581.081 63.4 581.337 64.152 581.753 64.728C582.169 65.304 582.873 65.592 583.865 65.592Z" fill="black"/>
<g clip-path="url(#clip2_1_35)">
<mask id="mask2_1_35" style="mask-type:luminance" maskUnits="userSpaceOnUse" x="595" y="23" width="46" height="46">
<path d="M641 23H595V69H641V23Z" fill="white"/>
</mask>
<g mask="url(#mask2_1_35)">
<mask id="mask3_1_35" style="mask-type:luminance" maskUnits="userSpaceOnUse" x="595" y="23" width="46" height="46">
<path d="M595 23H640.981V68.9812H595V23Z" fill="white"/>
</mask>
<g mask="url(#mask3_1_35)">
<path fill-rule="evenodd" clip-rule="evenodd" d="M625.428 38.553V27.1236C625.428 26.3516 625.259 25.7114 624.882 25.0524C624.506 24.3934 624.035 23.9226 623.376 23.546C622.717 23.1695 622.077 23 621.323 23H614.658C613.905 23 613.264 23.1695 612.605 23.546C611.946 23.9226 611.476 24.3934 611.099 25.0524C610.722 25.7114 610.553 26.3516 610.553 27.1236V38.553H599.124C598.352 38.553 597.711 38.7225 597.052 39.0991C596.393 39.4756 595.923 39.9464 595.546 40.6054C595.169 41.2644 595 41.9046 595 42.6578V49.3234C595 51.5829 596.845 53.4282 599.124 53.4282H610.553V64.8576C610.553 67.1359 612.398 68.9812 614.658 68.9812H621.323C622.077 68.9812 622.717 68.8117 623.376 68.4351C624.035 68.0585 624.506 67.5878 624.882 66.9288C625.259 66.2698 625.428 65.6296 625.428 64.8576V53.4282H636.858C637.63 53.4282 638.27 53.2587 638.929 52.8821C639.588 52.5055 640.059 52.0348 640.435 51.3758C640.812 50.7167 640.981 50.0765 640.981 49.3234V42.6578C640.981 41.9046 640.812 41.2644 640.435 40.6054C640.059 39.9464 639.588 39.4756 638.929 39.0991C638.27 38.7225 637.63 38.553 636.858 38.553H625.428ZM622.754 47.2898L622.736 47.3086C622.698 47.3275 622.679 47.3463 622.66 47.384L617.991 52.0348L613.227 47.2898H613.246C613.076 47.1203 612.963 46.9509 612.831 46.7438C612.587 46.2919 612.455 45.8588 612.455 45.3316C612.455 44.8232 612.587 44.3713 612.831 43.9194C613.095 43.4675 613.434 43.1474 613.886 42.8838C614.338 42.6201 614.771 42.5072 615.298 42.5072C615.825 42.5072 616.258 42.6201 616.71 42.8838C617.162 43.1474 617.482 43.4675 617.746 43.9194C617.859 44.1077 617.934 44.2583 617.991 44.4654C618.047 44.2583 618.122 44.1077 618.235 43.9194C618.499 43.4675 618.819 43.1474 619.271 42.8838C619.723 42.6201 620.175 42.5072 620.683 42.5072C621.21 42.5072 621.662 42.6201 622.114 42.8838C622.566 43.1474 622.886 43.4675 623.15 43.9194C623.413 44.3713 623.526 44.8232 623.526 45.3316C623.526 45.8588 623.413 46.2919 623.15 46.7438C623.037 46.9509 622.905 47.1203 622.754 47.2898Z" fill="#00C3A5"/>
</g>
</g>
</g>
<path d="M197.064 236V132.32H237.128V142.688H211.528V177.248H231.368V187.488H211.528V236H197.064ZM246.808 236V162.016H260.504V236H246.808ZM246.808 151.008V136.672H260.504V151.008H246.808ZM292.314 237.024C286.255 237.024 281.391 235.147 277.722 231.392C274.053 227.552 271.962 222.517 271.45 216.288L282.842 212.832C283.525 217.525 284.677 221.067 286.298 223.456C287.919 225.76 290.309 226.912 293.466 226.912C295.941 226.912 297.818 226.229 299.098 224.864C300.378 223.413 301.018 221.493 301.018 219.104C301.018 216.971 300.549 215.051 299.61 213.344C298.671 211.637 297.135 209.888 295.002 208.096L282.33 197.216C279.77 194.997 277.594 192.523 275.802 189.792C274.095 187.061 273.242 183.52 273.242 179.168C273.242 175.243 274.01 171.957 275.546 169.312C277.167 166.581 279.386 164.533 282.202 163.168C285.103 161.717 288.474 160.992 292.314 160.992C298.202 160.992 302.682 162.912 305.754 166.752C308.911 170.507 310.703 175.072 311.13 180.448L301.914 183.904C301.573 181.344 301.061 179.125 300.378 177.248C299.695 175.285 298.757 173.792 297.562 172.768C296.367 171.659 294.789 171.104 292.826 171.104C290.607 171.104 288.815 171.872 287.45 173.408C286.17 174.859 285.53 176.608 285.53 178.656C285.53 179.936 285.786 181.216 286.298 182.496C286.895 183.691 287.877 184.885 289.242 186.08L302.298 198.112C304.09 199.733 305.754 201.483 307.29 203.36C308.911 205.237 310.234 207.371 311.258 209.76C312.282 212.149 312.794 214.923 312.794 218.08C312.794 222.261 311.941 225.76 310.234 228.576C308.527 231.392 306.138 233.525 303.066 234.976C299.994 236.341 296.41 237.024 292.314 237.024ZM323.933 236V162.016H337.629V236H323.933ZM323.933 151.008V136.672H337.629V151.008H323.933ZM372.639 237.024C367.178 237.024 362.868 235.915 359.711 233.696C356.554 231.477 354.292 228.32 352.927 224.224C351.647 220.128 351.007 215.307 351.007 209.76V188.256C351.007 182.709 351.647 177.888 352.927 173.792C354.292 169.696 356.554 166.539 359.711 164.32C362.868 162.101 367.178 160.992 372.639 160.992C378.1 160.992 382.367 162.101 385.439 164.32C388.596 166.539 390.815 169.696 392.095 173.792C393.46 177.888 394.143 182.709 394.143 188.256V209.76C394.143 215.307 393.46 220.128 392.095 224.224C390.815 228.32 388.596 231.477 385.439 233.696C382.367 235.915 378.1 237.024 372.639 237.024ZM372.639 226.912C375.284 226.912 377.119 226.144 378.143 224.608C379.252 223.072 379.892 221.067 380.063 218.592C380.319 216.032 380.447 213.387 380.447 210.656V187.488C380.447 184.672 380.319 182.027 380.063 179.552C379.892 177.077 379.252 175.072 378.143 173.536C377.119 171.915 375.284 171.104 372.639 171.104C369.994 171.104 368.116 171.915 367.007 173.536C365.898 175.072 365.215 177.077 364.959 179.552C364.788 182.027 364.703 184.672 364.703 187.488V210.656C364.703 213.387 364.788 216.032 364.959 218.592C365.215 221.067 365.898 223.072 367.007 224.608C368.116 226.144 369.994 226.912 372.639 226.912Z" fill="black"/>
<g clip-path="url(#clip3_1_35)">
<mask id="mask4_1_35" style="mask-type:luminance" maskUnits="userSpaceOnUse" x="404" y="112" width="124" height="125">
<path d="M528 112.595H404.238V236.357H528V112.595Z" fill="white"/>
</mask>
<g mask="url(#mask4_1_35)">
<mask id="mask5_1_35" style="mask-type:luminance" maskUnits="userSpaceOnUse" x="404" y="112" width="124" height="125">
<path d="M404.238 112.595H527.949V236.307H404.238V112.595Z" fill="white"/>
</mask>
<g mask="url(#mask5_1_35)">
<path fill-rule="evenodd" clip-rule="evenodd" d="M486.104 154.44V123.69C486.104 121.613 485.648 119.89 484.635 118.117C483.622 116.344 482.356 115.078 480.582 114.064C478.809 113.051 477.087 112.595 475.061 112.595H457.127C455.101 112.595 453.378 113.051 451.605 114.064C449.832 115.078 448.565 116.344 447.552 118.117C446.539 119.89 446.083 121.613 446.083 123.69V154.44H415.333C413.256 154.44 411.533 154.896 409.76 155.909C407.987 156.923 406.72 158.189 405.707 159.962C404.694 161.735 404.238 163.458 404.238 165.484V183.418C404.238 189.497 409.203 194.462 415.333 194.462H446.083V225.212C446.083 231.342 451.048 236.307 457.127 236.307H475.061C477.087 236.307 478.809 235.851 480.582 234.837C482.356 233.824 483.622 232.558 484.635 230.785C485.648 229.012 486.104 227.289 486.104 225.212V194.462H516.855C518.932 194.462 520.654 194.006 522.427 192.992C524.201 191.979 525.467 190.713 526.48 188.94C527.493 187.167 527.949 185.444 527.949 183.418V165.484C527.949 163.458 527.493 161.735 526.48 159.962C525.467 158.189 524.201 156.923 522.427 155.909C520.654 154.896 518.932 154.44 516.855 154.44H486.104ZM478.911 177.946L478.86 177.997C478.759 178.048 478.708 178.098 478.657 178.2L466.094 190.713L453.277 177.946H453.327C452.872 177.49 452.568 177.035 452.213 176.477C451.554 175.261 451.2 174.096 451.2 172.678C451.2 171.31 451.554 170.094 452.213 168.878C452.922 167.662 453.834 166.801 455.05 166.092C456.266 165.383 457.431 165.079 458.849 165.079C460.268 165.079 461.433 165.383 462.649 166.092C463.865 166.801 464.726 167.662 465.435 168.878C465.739 169.385 465.942 169.79 466.094 170.347C466.246 169.79 466.448 169.385 466.752 168.878C467.462 167.662 468.323 166.801 469.539 166.092C470.754 165.383 471.97 165.079 473.338 165.079C474.757 165.079 475.972 165.383 477.188 166.092C478.404 166.801 479.265 167.662 479.975 168.878C480.684 170.094 480.988 171.31 480.988 172.678C480.988 174.096 480.684 175.261 479.975 176.477C479.671 177.035 479.316 177.49 478.911 177.946Z" fill="#00C3A5"/>
</g>
</g>
</g>
<rect x="195.25" y="18.25" width="137.5" height="57.5" rx="5.75" fill="#00C3A5" stroke="black" stroke-width="0.5"/>
<path d="M204.024 69V30.12H219.048V34.008H209.448V46.968H216.888V50.808H209.448V69H204.024ZM222.678 69V41.256H227.814V69H222.678ZM222.678 37.128V31.752H227.814V37.128H222.678ZM239.743 69.384C237.471 69.384 235.647 68.68 234.271 67.272C232.895 65.832 232.111 63.944 231.919 61.608L236.191 60.312C236.447 62.072 236.879 63.4 237.487 64.296C238.095 65.16 238.991 65.592 240.175 65.592C241.103 65.592 241.807 65.336 242.287 64.824C242.767 64.28 243.007 63.56 243.007 62.664C243.007 61.864 242.831 61.144 242.479 60.504C242.127 59.864 241.551 59.208 240.751 58.536L235.999 54.456C235.039 53.624 234.223 52.696 233.551 51.672C232.911 50.648 232.591 49.32 232.591 47.688C232.591 46.216 232.879 44.984 233.455 43.992C234.063 42.968 234.895 42.2 235.951 41.688C237.039 41.144 238.303 40.872 239.743 40.872C241.951 40.872 243.631 41.592 244.783 43.032C245.967 44.44 246.639 46.152 246.799 48.168L243.343 49.464C243.215 48.504 243.023 47.672 242.767 46.968C242.511 46.232 242.159 45.672 241.711 45.288C241.263 44.872 240.671 44.664 239.935 44.664C239.103 44.664 238.431 44.952 237.919 45.528C237.439 46.072 237.199 46.728 237.199 47.496C237.199 47.976 237.295 48.456 237.487 48.936C237.711 49.384 238.079 49.832 238.591 50.28L243.487 54.792C244.159 55.4 244.783 56.056 245.359 56.76C245.967 57.464 246.463 58.264 246.847 59.16C247.231 60.056 247.423 61.096 247.423 62.28C247.423 63.848 247.103 65.16 246.463 66.216C245.823 67.272 244.927 68.072 243.775 68.616C242.623 69.128 241.279 69.384 239.743 69.384ZM251.6 69V41.256H256.736V69H251.6ZM251.6 37.128V31.752H256.736V37.128H251.6ZM269.865 69.384C267.817 69.384 266.201 68.968 265.017 68.136C263.833 67.304 262.985 66.12 262.473 64.584C261.993 63.048 261.753 61.24 261.753 59.16V51.096C261.753 49.016 261.993 47.208 262.473 45.672C262.985 44.136 263.833 42.952 265.017 42.12C266.201 41.288 267.817 40.872 269.865 40.872C271.913 40.872 273.513 41.288 274.665 42.12C275.849 42.952 276.681 44.136 277.161 45.672C277.673 47.208 277.929 49.016 277.929 51.096V59.16C277.929 61.24 277.673 63.048 277.161 64.584C276.681 66.12 275.849 67.304 274.665 68.136C273.513 68.968 271.913 69.384 269.865 69.384ZM269.865 65.592C270.857 65.592 271.545 65.304 271.929 64.728C272.345 64.152 272.585 63.4 272.649 62.472C272.745 61.512 272.793 60.52 272.793 59.496V50.808C272.793 49.752 272.745 48.76 272.649 47.832C272.585 46.904 272.345 46.152 271.929 45.576C271.545 44.968 270.857 44.664 269.865 44.664C268.873 44.664 268.169 44.968 267.753 45.576C267.337 46.152 267.081 46.904 266.985 47.832C266.921 48.76 266.889 49.752 266.889 50.808V59.496C266.889 60.52 266.921 61.512 266.985 62.472C267.081 63.4 267.337 64.152 267.753 64.728C268.169 65.304 268.873 65.592 269.865 65.592Z" fill="white"/>
<g clip-path="url(#clip4_1_35)">
<mask id="mask6_1_35" style="mask-type:luminance" maskUnits="userSpaceOnUse" x="281" y="23" width="46" height="46">
<path d="M327 23H281V69H327V23Z" fill="white"/>
</mask>
<g mask="url(#mask6_1_35)">
<mask id="mask7_1_35" style="mask-type:luminance" maskUnits="userSpaceOnUse" x="281" y="23" width="46" height="46">
<path d="M281 23H326.981V68.9812H281V23Z" fill="white"/>
</mask>
<g mask="url(#mask7_1_35)">
<path fill-rule="evenodd" clip-rule="evenodd" d="M311.428 38.553V27.1236C311.428 26.3516 311.259 25.7114 310.882 25.0524C310.506 24.3934 310.035 23.9226 309.376 23.546C308.717 23.1695 308.077 23 307.323 23H300.658C299.905 23 299.264 23.1695 298.605 23.546C297.946 23.9226 297.476 24.3934 297.099 25.0524C296.722 25.7114 296.553 26.3516 296.553 27.1236V38.553H285.124C284.352 38.553 283.711 38.7225 283.052 39.0991C282.393 39.4756 281.923 39.9464 281.546 40.6054C281.169 41.2644 281 41.9046 281 42.6578V49.3234C281 51.5829 282.845 53.4282 285.124 53.4282H296.553V64.8576C296.553 67.1359 298.398 68.9812 300.658 68.9812H307.323C308.077 68.9812 308.717 68.8117 309.376 68.4351C310.035 68.0585 310.506 67.5878 310.882 66.9288C311.259 66.2698 311.428 65.6296 311.428 64.8576V53.4282H322.858C323.63 53.4282 324.27 53.2587 324.929 52.8821C325.588 52.5055 326.059 52.0348 326.435 51.3758C326.812 50.7167 326.981 50.0765 326.981 49.3234V42.6578C326.981 41.9046 326.812 41.2644 326.435 40.6054C326.059 39.9464 325.588 39.4756 324.929 39.0991C324.27 38.7225 323.63 38.553 322.858 38.553H311.428ZM308.754 47.2898L308.736 47.3086C308.698 47.3275 308.679 47.3463 308.66 47.384L303.991 52.0348L299.227 47.2898H299.246C299.076 47.1203 298.963 46.9509 298.831 46.7438C298.587 46.2919 298.455 45.8588 298.455 45.3316C298.455 44.8232 298.587 44.3713 298.831 43.9194C299.095 43.4675 299.434 43.1474 299.886 42.8838C300.338 42.6201 300.771 42.5072 301.298 42.5072C301.825 42.5072 302.258 42.6201 302.71 42.8838C303.162 43.1474 303.482 43.4675 303.746 43.9194C303.859 44.1077 303.934 44.2583 303.991 44.4654C304.047 44.2583 304.122 44.1077 304.235 43.9194C304.499 43.4675 304.819 43.1474 305.271 42.8838C305.723 42.6201 306.175 42.5072 306.683 42.5072C307.21 42.5072 307.662 42.6201 308.114 42.8838C308.566 43.1474 308.886 43.4675 309.15 43.9194C309.413 44.3713 309.526 44.8232 309.526 45.3316C309.526 45.8588 309.413 46.2919 309.15 46.7438C309.037 46.9509 308.905 47.1203 308.754 47.2898Z" fill="white"/>
</g>
</g>
</g>
<rect x="352.25" y="18.25" width="137.5" height="57.5" rx="5.75" fill="black" stroke="black" stroke-width="0.5"/>
<path d="M361.024 69V30.12H376.048V34.008H366.448V46.968H373.888V50.808H366.448V69H361.024ZM379.678 69V41.256H384.814V69H379.678ZM379.678 37.128V31.752H384.814V37.128H379.678ZM396.743 69.384C394.471 69.384 392.647 68.68 391.271 67.272C389.895 65.832 389.111 63.944 388.919 61.608L393.191 60.312C393.447 62.072 393.879 63.4 394.487 64.296C395.095 65.16 395.991 65.592 397.175 65.592C398.103 65.592 398.807 65.336 399.287 64.824C399.767 64.28 400.007 63.56 400.007 62.664C400.007 61.864 399.831 61.144 399.479 60.504C399.127 59.864 398.551 59.208 397.751 58.536L392.999 54.456C392.039 53.624 391.223 52.696 390.551 51.672C389.911 50.648 389.591 49.32 389.591 47.688C389.591 46.216 389.879 44.984 390.455 43.992C391.063 42.968 391.895 42.2 392.951 41.688C394.039 41.144 395.303 40.872 396.743 40.872C398.951 40.872 400.631 41.592 401.783 43.032C402.967 44.44 403.639 46.152 403.799 48.168L400.343 49.464C400.215 48.504 400.023 47.672 399.767 46.968C399.511 46.232 399.159 45.672 398.711 45.288C398.263 44.872 397.671 44.664 396.935 44.664C396.103 44.664 395.431 44.952 394.919 45.528C394.439 46.072 394.199 46.728 394.199 47.496C394.199 47.976 394.295 48.456 394.487 48.936C394.711 49.384 395.079 49.832 395.591 50.28L400.487 54.792C401.159 55.4 401.783 56.056 402.359 56.76C402.967 57.464 403.463 58.264 403.847 59.16C404.231 60.056 404.423 61.096 404.423 62.28C404.423 63.848 404.103 65.16 403.463 66.216C402.823 67.272 401.927 68.072 400.775 68.616C399.623 69.128 398.279 69.384 396.743 69.384ZM408.6 69V41.256H413.736V69H408.6ZM408.6 37.128V31.752H413.736V37.128H408.6ZM426.865 69.384C424.817 69.384 423.201 68.968 422.017 68.136C420.833 67.304 419.985 66.12 419.473 64.584C418.993 63.048 418.753 61.24 418.753 59.16V51.096C418.753 49.016 418.993 47.208 419.473 45.672C419.985 44.136 420.833 42.952 422.017 42.12C423.201 41.288 424.817 40.872 426.865 40.872C428.913 40.872 430.513 41.288 431.665 42.12C432.849 42.952 433.681 44.136 434.161 45.672C434.673 47.208 434.929 49.016 434.929 51.096V59.16C434.929 61.24 434.673 63.048 434.161 64.584C433.681 66.12 432.849 67.304 431.665 68.136C430.513 68.968 428.913 69.384 426.865 69.384ZM426.865 65.592C427.857 65.592 428.545 65.304 428.929 64.728C429.345 64.152 429.585 63.4 429.649 62.472C429.745 61.512 429.793 60.52 429.793 59.496V50.808C429.793 49.752 429.745 48.76 429.649 47.832C429.585 46.904 429.345 46.152 428.929 45.576C428.545 44.968 427.857 44.664 426.865 44.664C425.873 44.664 425.169 44.968 424.753 45.576C424.337 46.152 424.081 46.904 423.985 47.832C423.921 48.76 423.889 49.752 423.889 50.808V59.496C423.889 60.52 423.921 61.512 423.985 62.472C424.081 63.4 424.337 64.152 424.753 64.728C425.169 65.304 425.873 65.592 426.865 65.592Z" fill="white"/>
<g clip-path="url(#clip5_1_35)">
<mask id="mask8_1_35" style="mask-type:luminance" maskUnits="userSpaceOnUse" x="438" y="23" width="46" height="46">
<path d="M484 23H438V69H484V23Z" fill="white"/>
</mask>
<g mask="url(#mask8_1_35)">
<mask id="mask9_1_35" style="mask-type:luminance" maskUnits="userSpaceOnUse" x="438" y="23" width="46" height="46">
<path d="M438 23H483.981V68.9812H438V23Z" fill="white"/>
</mask>
<g mask="url(#mask9_1_35)">
<path fill-rule="evenodd" clip-rule="evenodd" d="M468.428 38.553V27.1236C468.428 26.3516 468.259 25.7114 467.882 25.0524C467.506 24.3934 467.035 23.9226 466.376 23.546C465.717 23.1695 465.077 23 464.323 23H457.658C456.905 23 456.264 23.1695 455.605 23.546C454.946 23.9226 454.476 24.3934 454.099 25.0524C453.722 25.7114 453.553 26.3516 453.553 27.1236V38.553H442.124C441.352 38.553 440.711 38.7225 440.052 39.0991C439.393 39.4756 438.923 39.9464 438.546 40.6054C438.169 41.2644 438 41.9046 438 42.6578V49.3234C438 51.5829 439.845 53.4282 442.124 53.4282H453.553V64.8576C453.553 67.1359 455.398 68.9812 457.658 68.9812H464.323C465.077 68.9812 465.717 68.8117 466.376 68.4351C467.035 68.0585 467.506 67.5878 467.882 66.9288C468.259 66.2698 468.428 65.6296 468.428 64.8576V53.4282H479.858C480.63 53.4282 481.27 53.2587 481.929 52.8821C482.588 52.5055 483.059 52.0348 483.435 51.3758C483.812 50.7167 483.981 50.0765 483.981 49.3234V42.6578C483.981 41.9046 483.812 41.2644 483.435 40.6054C483.059 39.9464 482.588 39.4756 481.929 39.0991C481.27 38.7225 480.63 38.553 479.858 38.553H468.428ZM465.754 47.2898L465.736 47.3086C465.698 47.3275 465.679 47.3463 465.66 47.384L460.991 52.0348L456.227 47.2898H456.246C456.076 47.1203 455.963 46.9509 455.831 46.7438C455.587 46.2919 455.455 45.8588 455.455 45.3316C455.455 44.8232 455.587 44.3713 455.831 43.9194C456.095 43.4675 456.434 43.1474 456.886 42.8838C457.338 42.6201 457.771 42.5072 458.298 42.5072C458.825 42.5072 459.258 42.6201 459.71 42.8838C460.162 43.1474 460.482 43.4675 460.746 43.9194C460.859 44.1077 460.934 44.2583 460.991 44.4654C461.047 44.2583 461.122 44.1077 461.235 43.9194C461.499 43.4675 461.819 43.1474 462.271 42.8838C462.723 42.6201 463.175 42.5072 463.683 42.5072C464.21 42.5072 464.662 42.6201 465.114 42.8838C465.566 43.1474 465.886 43.4675 466.15 43.9194C466.413 44.3713 466.526 44.8232 466.526 45.3316C466.526 45.8588 466.413 46.2919 466.15 46.7438C466.037 46.9509 465.905 47.1203 465.754 47.2898Z" fill="white"/>
</g>
</g>
</g>
<path d="M152.508 262.909C152.458 263.18 152.637 263.441 152.909 263.492L157.333 264.313C157.605 264.364 157.866 264.185 157.916 263.913C157.966 263.642 157.787 263.381 157.516 263.33L153.583 262.6L154.313 258.667C154.364 258.395 154.185 258.134 153.913 258.084C153.642 258.034 153.381 258.213 153.33 258.484L152.508 262.909ZM189.901 237.053L189.056 237.633L189.622 238.457L190.467 237.877L189.901 237.053ZM187.366 238.794L185.676 239.954L186.242 240.779L187.932 239.618L187.366 238.794ZM183.985 241.115L182.295 242.276L182.861 243.1L184.551 241.939L183.985 241.115ZM180.605 243.437L178.915 244.597L179.481 245.422L181.171 244.261L180.605 243.437ZM177.225 245.758L175.534 246.919L176.101 247.743L177.791 246.582L177.225 245.758ZM173.844 248.079L172.154 249.24L172.72 250.064L174.41 248.904L173.844 248.079ZM170.464 250.401L168.774 251.561L169.34 252.386L171.03 251.225L170.464 250.401ZM167.084 252.722L165.393 253.883L165.959 254.707L167.65 253.546L167.084 252.722ZM163.703 255.043L162.013 256.204L162.579 257.028L164.269 255.868L163.703 255.043ZM160.323 257.365L158.633 258.525L159.199 259.35L160.889 258.189L160.323 257.365ZM156.942 259.686L155.252 260.847L155.818 261.671L157.509 260.51L156.942 259.686ZM153.562 262.007L152.717 262.588L153.283 263.412L154.128 262.832L153.562 262.007Z" fill="black"/>
<path d="M94.24 277.108C93.584 277.108 93.06 276.98 92.668 276.724C92.276 276.468 91.996 276.104 91.828 275.632C91.66 275.152 91.576 274.592 91.576 273.952V270.268C91.576 269.628 91.66 269.08 91.828 268.624C92.004 268.16 92.284 267.808 92.668 267.568C93.06 267.32 93.584 267.196 94.24 267.196C94.896 267.196 95.416 267.32 95.8 267.568C96.184 267.816 96.46 268.168 96.628 268.624C96.804 269.08 96.892 269.628 96.892 270.268V273.964C96.892 274.596 96.804 275.148 96.628 275.62C96.46 276.092 96.184 276.46 95.8 276.724C95.416 276.98 94.896 277.108 94.24 277.108ZM94.24 276.04C94.6 276.04 94.872 275.968 95.056 275.824C95.24 275.672 95.364 275.464 95.428 275.2C95.492 274.928 95.524 274.612 95.524 274.252V269.992C95.524 269.632 95.492 269.324 95.428 269.068C95.364 268.804 95.24 268.604 95.056 268.468C94.872 268.324 94.6 268.252 94.24 268.252C93.88 268.252 93.604 268.324 93.412 268.468C93.228 268.604 93.104 268.804 93.04 269.068C92.976 269.324 92.944 269.632 92.944 269.992V274.252C92.944 274.612 92.976 274.928 93.04 275.2C93.104 275.464 93.228 275.672 93.412 275.824C93.604 275.968 93.88 276.04 94.24 276.04ZM99.7248 277.096C99.1568 277.096 98.7008 276.92 98.3568 276.568C98.0128 276.208 97.8168 275.736 97.7688 275.152L98.8368 274.828C98.9008 275.268 99.0088 275.6 99.1608 275.824C99.3128 276.04 99.5368 276.148 99.8328 276.148C100.065 276.148 100.241 276.084 100.361 275.956C100.481 275.82 100.541 275.64 100.541 275.416C100.541 275.216 100.497 275.036 100.409 274.876C100.321 274.716 100.177 274.552 99.9768 274.384L98.7888 273.364C98.5488 273.156 98.3448 272.924 98.1768 272.668C98.0168 272.412 97.9368 272.08 97.9368 271.672C97.9368 271.304 98.0088 270.996 98.1528 270.748C98.3048 270.492 98.5128 270.3 98.7768 270.172C99.0488 270.036 99.3648 269.968 99.7248 269.968C100.277 269.968 100.697 270.148 100.985 270.508C101.281 270.86 101.449 271.288 101.489 271.792L100.625 272.116C100.593 271.876 100.545 271.668 100.481 271.492C100.417 271.308 100.329 271.168 100.217 271.072C100.105 270.968 99.9568 270.916 99.7728 270.916C99.5648 270.916 99.3968 270.988 99.2688 271.132C99.1488 271.268 99.0888 271.432 99.0888 271.624C99.0888 271.744 99.1128 271.864 99.1608 271.984C99.2168 272.096 99.3088 272.208 99.4368 272.32L100.661 273.448C100.829 273.6 100.985 273.764 101.129 273.94C101.281 274.116 101.405 274.316 101.501 274.54C101.597 274.764 101.645 275.024 101.645 275.32C101.645 275.712 101.565 276.04 101.405 276.304C101.245 276.568 101.021 276.768 100.733 276.904C100.445 277.032 100.109 277.096 99.7248 277.096ZM103.409 277L102.293 270.064H103.349L104.069 275.176L104.993 270.064H105.977L106.901 275.152L107.621 270.064H108.677L107.525 277H106.445L105.497 272.104L104.561 277H103.409ZM110.908 277.096C110.636 277.096 110.396 277.02 110.188 276.868C109.98 276.708 109.816 276.508 109.696 276.268C109.576 276.02 109.516 275.76 109.516 275.488C109.516 275.056 109.588 274.692 109.732 274.396C109.876 274.1 110.072 273.852 110.32 273.652C110.576 273.444 110.868 273.264 111.196 273.112C111.532 272.96 111.884 272.812 112.252 272.668V272.176C112.252 271.896 112.236 271.664 112.204 271.48C112.172 271.296 112.104 271.16 112 271.072C111.904 270.976 111.756 270.928 111.556 270.928C111.38 270.928 111.236 270.968 111.124 271.048C111.02 271.128 110.944 271.244 110.896 271.396C110.848 271.54 110.824 271.712 110.824 271.912V272.26L109.552 272.212C109.568 271.444 109.744 270.88 110.08 270.52C110.416 270.152 110.936 269.968 111.64 269.968C112.328 269.968 112.816 270.156 113.104 270.532C113.392 270.908 113.536 271.452 113.536 272.164V275.332C113.536 275.548 113.54 275.756 113.548 275.956C113.564 276.156 113.58 276.344 113.596 276.52C113.62 276.688 113.64 276.848 113.656 277H112.48C112.456 276.872 112.424 276.712 112.384 276.52C112.352 276.32 112.328 276.14 112.312 275.98C112.232 276.252 112.076 276.508 111.844 276.748C111.62 276.98 111.308 277.096 110.908 277.096ZM111.412 275.992C111.54 275.992 111.66 275.956 111.772 275.884C111.884 275.812 111.984 275.732 112.072 275.644C112.16 275.548 112.22 275.472 112.252 275.416V273.448C112.052 273.56 111.864 273.672 111.688 273.784C111.512 273.896 111.356 274.016 111.22 274.144C111.092 274.264 110.988 274.404 110.908 274.564C110.836 274.716 110.8 274.892 110.8 275.092C110.8 275.372 110.852 275.592 110.956 275.752C111.06 275.912 111.212 275.992 111.412 275.992ZM114.889 277V267.28H116.173V277H114.889ZM119.119 277.096C118.535 277.096 118.099 276.884 117.811 276.46C117.523 276.028 117.379 275.3 117.379 274.276V272.932C117.379 272.404 117.423 271.916 117.511 271.468C117.599 271.012 117.763 270.648 118.003 270.376C118.251 270.104 118.611 269.968 119.083 269.968C119.315 269.968 119.527 270.02 119.719 270.124C119.911 270.228 120.083 270.356 120.235 270.508V267.28H121.519V277H120.235V276.556C120.083 276.716 119.915 276.848 119.731 276.952C119.555 277.048 119.351 277.096 119.119 277.096ZM119.443 276.088C119.563 276.088 119.691 276.068 119.827 276.028C119.963 275.98 120.099 275.912 120.235 275.824V271.276C120.123 271.196 119.999 271.128 119.863 271.072C119.727 271.008 119.579 270.976 119.419 270.976C119.123 270.976 118.923 271.12 118.819 271.408C118.715 271.688 118.663 272.028 118.663 272.428V274.384C118.663 274.704 118.679 274.996 118.711 275.26C118.751 275.516 118.827 275.72 118.939 275.872C119.051 276.016 119.219 276.088 119.443 276.088ZM125.502 273.868V272.896H128.178V273.868H125.502ZM137.11 277.108C136.582 277.108 136.142 277.008 135.79 276.808C135.438 276.608 135.174 276.32 134.998 275.944C134.822 275.568 134.734 275.124 134.734 274.612V274.288H136.006C136.006 274.32 136.006 274.356 136.006 274.396C136.006 274.428 136.006 274.464 136.006 274.504C136.014 274.792 136.046 275.052 136.102 275.284C136.166 275.516 136.274 275.7 136.426 275.836C136.586 275.972 136.814 276.04 137.11 276.04C137.422 276.04 137.658 275.968 137.818 275.824C137.978 275.672 138.086 275.46 138.142 275.188C138.198 274.916 138.226 274.604 138.226 274.252C138.226 273.74 138.13 273.324 137.938 273.004C137.754 272.676 137.426 272.496 136.954 272.464C136.93 272.456 136.898 272.452 136.858 272.452C136.826 272.452 136.798 272.452 136.774 272.452V271.168C136.798 271.168 136.826 271.168 136.858 271.168C136.89 271.168 136.918 271.168 136.942 271.168C137.398 271.152 137.726 271.032 137.926 270.808C138.126 270.584 138.226 270.212 138.226 269.692C138.226 269.252 138.15 268.9 137.998 268.636C137.854 268.372 137.562 268.24 137.122 268.24C136.682 268.24 136.39 268.388 136.246 268.684C136.102 268.972 136.022 269.344 136.006 269.8C136.006 269.832 136.006 269.868 136.006 269.908C136.006 269.94 136.006 269.972 136.006 270.004H134.734V269.68C134.734 269.16 134.822 268.716 134.998 268.348C135.174 267.98 135.438 267.696 135.79 267.496C136.15 267.296 136.594 267.196 137.122 267.196C137.658 267.196 138.102 267.296 138.454 267.496C138.806 267.696 139.07 267.984 139.246 268.36C139.422 268.728 139.51 269.172 139.51 269.692C139.51 270.276 139.382 270.744 139.126 271.096C138.878 271.448 138.542 271.688 138.118 271.816C138.414 271.904 138.662 272.056 138.862 272.272C139.07 272.488 139.23 272.764 139.342 273.1C139.454 273.428 139.51 273.812 139.51 274.252C139.51 274.828 139.43 275.332 139.27 275.764C139.11 276.188 138.854 276.52 138.502 276.76C138.15 276.992 137.686 277.108 137.11 277.108ZM143.081 277.108C142.529 277.108 142.073 276.984 141.713 276.736C141.361 276.488 141.097 276.148 140.921 275.716C140.753 275.284 140.669 274.792 140.669 274.24V270.052C140.669 269.484 140.753 268.988 140.921 268.564C141.089 268.132 141.349 267.796 141.701 267.556C142.061 267.316 142.521 267.196 143.081 267.196C143.641 267.196 144.097 267.316 144.449 267.556C144.801 267.796 145.061 268.132 145.229 268.564C145.397 268.988 145.481 269.484 145.481 270.052V274.24C145.481 274.8 145.393 275.296 145.217 275.728C145.049 276.16 144.789 276.5 144.437 276.748C144.085 276.988 143.633 277.108 143.081 277.108ZM143.081 276.052C143.385 276.052 143.613 275.964 143.765 275.788C143.925 275.612 144.033 275.388 144.089 275.116C144.153 274.836 144.185 274.548 144.185 274.252V270.04C144.185 269.728 144.157 269.436 144.101 269.164C144.045 268.884 143.937 268.66 143.777 268.492C143.625 268.324 143.393 268.24 143.081 268.24C142.769 268.24 142.533 268.324 142.373 268.492C142.213 268.66 142.105 268.884 142.049 269.164C141.993 269.436 141.965 269.728 141.965 270.04V274.252C141.965 274.548 141.993 274.836 142.049 275.116C142.113 275.388 142.225 275.612 142.385 275.788C142.553 275.964 142.785 276.052 143.081 276.052ZM149.28 277.108C148.728 277.108 148.272 276.984 147.912 276.736C147.56 276.488 147.296 276.148 147.12 275.716C146.952 275.284 146.868 274.792 146.868 274.24V270.052C146.868 269.484 146.952 268.988 147.12 268.564C147.288 268.132 147.548 267.796 147.9 267.556C148.26 267.316 148.72 267.196 149.28 267.196C149.84 267.196 150.296 267.316 150.648 267.556C151 267.796 151.26 268.132 151.428 268.564C151.596 268.988 151.68 269.484 151.68 270.052V274.24C151.68 274.8 151.592 275.296 151.416 275.728C151.248 276.16 150.988 276.5 150.636 276.748C150.284 276.988 149.832 277.108 149.28 277.108ZM149.28 276.052C149.584 276.052 149.812 275.964 149.964 275.788C150.124 275.612 150.232 275.388 150.288 275.116C150.352 274.836 150.384 274.548 150.384 274.252V270.04C150.384 269.728 150.356 269.436 150.3 269.164C150.244 268.884 150.136 268.66 149.976 268.492C149.824 268.324 149.592 268.24 149.28 268.24C148.968 268.24 148.732 268.324 148.572 268.492C148.412 268.66 148.304 268.884 148.248 269.164C148.192 269.436 148.164 269.728 148.164 270.04V274.252C148.164 274.548 148.192 274.836 148.248 275.116C148.312 275.388 148.424 275.612 148.584 275.788C148.752 275.964 148.984 276.052 149.28 276.052Z" fill="black"/>
</g>
<defs>
<clipPath id="clip0_1_35">
<rect width="685" height="296" fill="white"/>
</clipPath>
<clipPath id="clip1_1_35">
<rect width="46" height="46" fill="white" transform="translate(124 23)"/>
</clipPath>
<clipPath id="clip2_1_35">
<rect width="46" height="46" fill="white" transform="translate(595 23)"/>
</clipPath>
<clipPath id="clip3_1_35">
<rect width="123.762" height="123.762" fill="white" transform="translate(404.238 112.595)"/>
</clipPath>
<clipPath id="clip4_1_35">
<rect width="46" height="46" fill="white" transform="translate(281 23)"/>
</clipPath>
<clipPath id="clip5_1_35">
<rect width="46" height="46" fill="white" transform="translate(438 23)"/>
</clipPath>
</defs>
</svg>
